<svg width="247" height="247" viewBox="0 0 247 247" fill="none" xmlns="http://www.w3.org/2000/svg">
<mask id="mask0_866_13179" style="mask-type:luminance" maskUnits="userSpaceOnUse" x="0" y="0" width="247" height="247">
<path d="M247 0H0V247H247V0Z" fill="white"/>
</mask>
<g mask="url(#mask0_866_13179)">
<path d="M205.889 196.978H222.251V196.854H205.889V196.978Z" fill="#EBEBEB"/>
<path d="M159.33 198.321H163.622V198.198H159.33V198.321Z" fill="#EBEBEB"/>
<path d="M195.916 192.393H205.396V192.27H195.916V192.393Z" fill="#EBEBEB"/>
<path d="M25.9153 193.223H47.2511V193.1H25.9153V193.223Z" fill="#EBEBEB"/>
<path d="M51.6526 193.223H54.7796V193.1H51.6526V193.223Z" fill="#EBEBEB"/>
<path d="M64.9463 195.308H111.224V195.185H64.9463V195.308Z" fill="#EBEBEB"/>
<path d="M117.078 166.873H21.6915C20.1354 166.871 18.8757 165.608 18.8757 164.052V29.966C18.8891 28.4197 20.1453 27.1724 21.6915 27.1699H117.078C118.636 27.1699 119.899 28.4326 119.899 29.9907V164.052C119.899 165.61 118.636 166.873 117.078 166.873ZM21.6915 27.2687C20.2036 27.2712 18.9992 28.478 18.9992 29.966V164.052C18.9992 165.54 20.2036 166.747 21.6915 166.75H117.078C118.566 166.747 119.772 165.541 119.775 164.052V29.966C119.772 28.4775 118.566 27.2712 117.078 27.2687H21.6915Z" fill="#EBEBEB"/>
<path d="M223.935 166.873H128.544C126.987 166.871 125.726 165.609 125.723 164.052V29.966C125.739 28.4188 126.996 27.1724 128.544 27.1699H223.935C225.48 27.1753 226.733 28.4212 226.746 29.966V164.052C226.746 165.606 225.489 166.868 223.935 166.873ZM128.544 27.2687C127.055 27.2712 125.849 28.4775 125.846 29.966V164.052C125.849 165.541 127.055 166.747 128.544 166.75H223.935C225.423 166.747 226.63 165.541 226.632 164.052V29.966C226.63 28.4775 225.423 27.2712 223.935 27.2687H128.544Z" fill="#EBEBEB"/>
<path d="M0 188.723H247V188.846H0V188.723Z" fill="#EBEBEB"/>
<path d="M189.778 105.823C191.019 98.1414 198.253 92.9208 205.935 94.1622C213.617 95.4036 218.837 102.637 217.596 110.319C216.354 118 209.12 123.221 201.438 121.98C193.757 120.738 188.537 113.505 189.778 105.823Z" fill="#DFDFDF"/>
<path d="M188.604 105.848C189.848 98.1888 197.064 92.988 204.723 94.2309C212.383 95.4743 217.583 102.691 216.34 110.35C215.097 118.009 207.88 123.21 200.221 121.967C192.562 120.724 187.361 113.507 188.604 105.848Z" fill="#EBEBEB"/>
<path d="M202.466 96.908C208.695 96.908 213.744 101.957 213.744 108.186C213.744 114.415 208.695 119.464 202.466 119.464C196.238 119.464 191.188 114.415 191.188 108.186C191.188 101.957 196.238 96.908 202.466 96.908Z" fill="white"/>
<path d="M203.409 109.031C203.409 109.663 202.897 110.177 202.264 110.177C201.63 110.177 201.117 109.663 201.117 109.031C201.117 108.398 201.63 107.885 202.264 107.885H202.268C202.899 107.885 203.409 108.395 203.409 109.026V109.031Z" fill="#DFDFDF"/>
<path d="M202.135 109.451L197.284 104.886L197.753 104.382L202.15 108.522L210.029 101.561L210.483 102.075L202.135 109.451Z" fill="#DFDFDF"/>
<path d="M124.982 79.5335C146.759 79.5221 165.079 95.8527 167.56 117.488C167.929 120.743 167.929 124.029 167.56 127.283C165.067 148.909 146.751 165.226 124.982 165.213C123.787 165.213 122.596 165.163 121.425 165.065C97.8407 163.114 80.3022 142.415 82.252 118.83C83.9786 97.9522 100.547 81.3835 121.425 79.657C122.596 79.5582 123.787 79.5335 124.982 79.5335Z" fill="#DFDFDF"/>
<path d="M123.5 78.0514C145.277 78.04 163.597 94.3707 166.078 116.006C166.447 119.261 166.447 122.546 166.078 125.801C163.585 147.427 145.269 163.744 123.5 163.731C122.305 163.731 121.114 163.681 119.943 163.583C96.3588 161.632 78.8203 140.933 80.7701 117.348C82.4966 96.4702 99.0654 79.9014 119.943 78.1749C121.114 78.0761 122.305 78.0514 123.5 78.0514Z" fill="#EBEBEB"/>
<path d="M125.165 101.705C135.756 101.705 144.342 110.29 144.342 120.882C144.342 131.473 135.756 140.059 125.165 140.059C114.574 140.059 105.988 131.473 105.988 120.882C105.988 110.29 114.574 101.705 125.165 101.705Z" fill="#DFDFDF"/>
<path d="M112.055 118.757C113.231 111.513 120.057 106.594 127.301 107.77C134.545 108.946 139.465 115.772 138.289 123.016C137.113 130.26 130.287 135.18 123.043 134.003C115.799 132.828 110.879 126.002 112.055 118.757Z" fill="#F5F5F5"/>
<path d="M124.987 118.797C126.139 118.797 127.072 119.73 127.072 120.882C127.072 122.033 126.139 122.966 124.987 122.966C123.836 122.966 122.902 122.033 122.902 120.882C122.902 119.73 123.836 118.797 124.987 118.797Z" fill="#DFDFDF"/>
<path d="M144.016 117.34L166.078 115.981C166.446 119.236 166.446 122.522 166.078 125.778L144.016 124.419L138.088 124.049L127.452 123.396L124.932 123.243L122.413 123.396L112.247 124.024L106.319 124.389L80.9467 125.97C80.5451 122.6 80.5451 119.194 80.9467 115.823L106.309 117.384L112.237 117.75L122.403 118.377L124.923 118.53L127.442 118.377L138.053 117.72L144.016 117.34Z" fill="white"/>
<path d="M203.39 163.963C202.545 164.009 201.699 163.976 200.86 163.865C197.436 163.408 194.335 161.601 192.25 158.846L191.825 159.167C193.995 162.034 197.222 163.916 200.786 164.393C201.669 164.512 202.56 164.545 203.449 164.492C203.365 164.364 203.331 164.209 203.356 164.057C203.362 164.025 203.374 163.993 203.39 163.963Z" fill="#DFDFDF"/>
<path d="M202.464 163.417L205.015 163.763L204.014 171.14L201.464 170.794L202.464 163.417Z" fill="#EBEBEB"/>
<path d="M191.875 176.12C192.398 172.272 197.284 169.758 202.787 170.504C208.29 171.25 212.336 174.979 211.812 178.827L191.875 176.12Z" fill="#EBEBEB"/>
<path d="M192.679 159.557L213.717 143.431L214.042 143.855L193.003 159.981L192.679 159.557Z" fill="#DFDFDF"/>
<path d="M194.43 148.346C196.308 143.36 201.872 140.841 206.858 142.718C211.845 144.597 214.364 150.162 212.487 155.149C210.608 160.134 205.044 162.654 200.058 160.776C195.071 158.897 192.551 153.333 194.43 148.346Z" fill="#EBEBEB"/>
<path d="M195.713 157.848C192.579 153.381 193.659 147.219 198.126 144.086C202.259 141.185 207.916 141.868 211.24 145.671L210.893 145.937C207.52 141.969 201.568 141.487 197.6 144.86C193.846 148.051 193.181 153.593 196.073 157.581L195.713 157.848Z" fill="#DFDFDF"/>
<path d="M195.712 157.848L196.053 157.581C199.111 161.797 205.007 162.737 209.224 159.68C213.441 156.623 214.38 150.726 211.323 146.509C211.181 146.312 211.03 146.122 210.873 145.937L211.22 145.671C214.353 150.137 213.273 156.299 208.806 159.433C204.673 162.334 199.016 161.65 195.693 157.848H195.712Z" fill="#DFDFDF"/>
<path d="M206.586 155.729L206.314 155.388C208.834 153.412 211.2 149.494 210.849 145.829L211.279 145.784C211.644 149.613 209.194 153.683 206.586 155.729Z" fill="#DFDFDF"/>
<path d="M196.039 157.739L196.182 157.33C199.665 158.545 204.032 157.181 206.556 155.205L206.828 155.546C204.205 157.586 199.67 159.004 196.039 157.739Z" fill="#DFDFDF"/>
<path d="M200.633 148.136L200.362 147.795C202.97 145.75 207.51 144.337 211.141 145.601L210.997 146.012C207.515 144.796 203.148 146.165 200.633 148.136Z" fill="#DFDFDF"/>
<path d="M195.896 157.556C195.536 153.733 197.985 149.653 200.593 147.612L200.86 147.953C198.345 149.929 195.979 153.846 196.33 157.512L195.896 157.556Z" fill="#DFDFDF"/>
<path d="M195.748 157.532L210.934 145.62L211.202 145.962L196.016 157.873L195.748 157.532Z" fill="#DFDFDF"/>
<path d="M202.305 142.289L202.647 142.021L212.73 154.875L212.388 155.144L202.305 142.289Z" fill="#DFDFDF"/>
<path d="M197.222 144.403L197.564 144.135L209.469 159.314L209.127 159.582L197.222 144.403Z" fill="#DFDFDF"/>
<path d="M194.095 149.006L194.437 148.737L204.252 161.249L203.909 161.518L194.095 149.006Z" fill="#DFDFDF"/>
<path d="M216.041 152.784C216.534 149.227 215.586 145.62 213.408 142.766L212.983 143.092C217.337 148.82 216.223 156.993 210.496 161.346C208.443 162.907 205.973 163.823 203.399 163.979C203.384 164.008 203.372 164.039 203.365 164.073C203.341 164.224 203.374 164.379 203.459 164.506C209.909 164.102 215.178 159.203 216.051 152.799L216.041 152.784Z" fill="#DFDFDF"/>
<path d="M123.5 202.723C176.398 202.723 219.282 205.226 219.282 208.315C219.282 211.403 176.398 213.907 123.5 213.907C70.6009 213.907 27.7183 211.403 27.7183 208.315C27.7183 205.226 70.6009 202.723 123.5 202.723Z" fill="#F5F5F5"/>
<path d="M120.912 104.871C120.888 104.894 120.866 104.919 120.848 104.946H120.763L120.912 104.871Z" fill="#253138"/>
<path d="M129.64 111.935H129.606C129.606 111.935 129.635 111.92 129.64 111.935Z" fill="#253138"/>
<path d="M169.377 54.7578C171.095 53.0392 173.883 53.0392 175.602 54.7578C177.32 56.4765 177.32 59.2636 175.602 60.9827C173.883 62.7014 171.095 62.7014 169.377 60.9827C167.658 59.2636 167.658 56.4765 169.377 54.7578Z" fill="white"/>
<path d="M212.316 165.184C212.499 165.184 212.647 165.332 212.647 165.515C212.647 165.697 212.499 165.846 212.316 165.846C212.134 165.846 211.985 165.697 211.985 165.515C211.985 165.332 212.134 165.184 212.316 165.184Z" fill="#DFDFDF"/>
<path d="M24.206 198.825L24.0034 198.375C31.0824 194.561 37.7366 193.332 45.112 191.292L45.2454 191.786C37.9046 193.801 31.9222 194.971 24.206 198.825Z" fill="#407AFF"/>
<path d="M19.1128 201.621L18.856 201.196C19.6118 200.742 20.3824 200.297 21.1481 199.872L21.3852 200.307C20.6294 200.726 19.8637 201.166 19.1128 201.621Z" fill="#407AFF"/>
<path d="M202.935 119.983C196.387 119.983 191.079 114.675 191.079 108.127C191.079 101.579 196.387 96.2706 202.935 96.2706C209.483 96.2706 214.791 101.579 214.791 108.127C214.791 114.675 209.483 119.983 202.935 119.983ZM202.935 97.0363C196.802 97.0363 191.83 102.008 191.83 108.141C191.83 114.274 196.802 119.247 202.935 119.247C209.069 119.247 214.04 114.274 214.04 108.141C214.035 102.01 209.066 97.0418 202.935 97.0363Z" fill="#407AFF"/>
<path d="M123.648 231.755C95.8953 231.755 69.8022 229.542 50.1657 225.526C30.3662 221.48 19.4636 216.022 19.4636 210.153C19.4636 204.284 30.3662 198.83 50.1657 194.78C69.7973 190.763 95.8953 188.555 123.648 188.555C151.402 188.555 177.494 190.763 197.136 194.78C216.935 198.83 227.838 204.289 227.838 210.153C227.838 216.017 216.935 221.48 197.136 225.526C177.499 229.542 151.406 231.755 123.648 231.755ZM123.648 189.296C95.9447 189.296 69.8961 191.5 50.3139 195.505C31.1764 199.418 20.2046 204.758 20.2046 210.153C20.2046 215.547 31.1764 220.887 50.3386 224.805C69.9208 228.806 95.9694 231.014 123.673 231.014C151.376 231.014 177.425 228.806 197.007 224.805C216.145 220.887 227.141 215.552 227.141 210.153C227.141 204.754 216.165 199.418 197.007 195.505C177.401 191.5 151.357 189.296 123.648 189.296Z" fill="#407AFF"/>
<path d="M102.06 56.9186C95.0945 49.9532 83.8021 49.9532 76.8367 56.9186C69.8718 63.884 69.8718 75.1769 76.8367 82.1423L102.06 56.9186ZM78.7436 73.9616C75.246 70.4641 75.7796 64.2397 79.9786 60.0605C84.1776 55.8812 90.3521 55.328 93.8743 58.8255L78.7436 73.9616Z" fill="#407AFF"/>
<path d="M102.076 56.9235C95.1102 49.9581 83.8174 49.9581 76.852 56.9235C69.8866 63.8889 69.8866 75.1818 76.852 82.1472L102.076 56.9235ZM78.7588 73.9665C75.2613 70.469 75.7948 64.2446 79.9938 60.0654C84.1928 55.8861 90.3678 55.3328 93.89 58.8304L78.7588 73.9665ZM78.7588 73.9665C75.2613 70.469 75.7948 64.2446 79.9938 60.0654C84.1928 55.8861 90.3678 55.3328 93.89 58.8304L78.7588 73.9665ZM78.7588 73.9665C75.2613 70.469 75.7948 64.2446 79.9938 60.0654C84.1928 55.8861 90.3678 55.3328 93.89 58.8304L78.7588 73.9665Z" fill="white"/>
<path d="M89.414 87.349C79.5646 87.3979 71.4843 79.5596 71.2343 69.7132C71.2289 69.6193 71.2289 69.5254 71.2343 69.4316V69.1302C71.4922 59.2898 79.5701 51.4604 89.414 51.5093C89.6185 51.5093 89.7845 51.6752 89.7845 51.8798C89.7845 52.0843 89.6185 52.2503 89.414 52.2503C79.9746 52.2122 72.2346 59.724 71.9901 69.1599C71.9852 69.2488 71.9852 69.3382 71.9901 69.4266V69.6736C72.2263 79.1174 79.9672 86.6406 89.414 86.608C89.6185 86.608 89.7845 86.7739 89.7845 86.9785C89.7845 87.1835 89.6185 87.349 89.414 87.349Z" fill="#407AFF"/>
<path d="M146.091 188.49C145.917 188.346 145.823 188.128 145.839 187.903C145.838 187.769 145.91 187.646 146.026 187.582C146.614 187.216 148.724 188.209 148.956 188.318C149.003 188.34 149.031 188.389 149.025 188.441C149.021 188.493 148.983 188.536 148.932 188.545C148.403 188.672 147.864 188.749 147.321 188.777C146.891 188.819 146.459 188.718 146.091 188.49ZM148.516 188.397C147.652 188.016 146.462 187.601 146.125 187.789C146.081 187.819 146.056 187.869 146.057 187.923C146.045 188.072 146.108 188.218 146.224 188.313C146.551 188.58 147.39 188.604 148.511 188.386L148.516 188.397Z" fill="#407AFF"/>
<path d="M148.853 188.574C148.225 188.312 146.946 187.23 147.025 186.657C147.025 186.519 147.133 186.351 147.464 186.311H147.558C148.704 186.287 148.996 188.376 149.016 188.465C149.026 188.506 149.01 188.549 148.976 188.574C148.952 188.581 148.926 188.581 148.902 188.574H148.853ZM147.514 186.524C147.296 186.554 147.277 186.662 147.277 186.662C147.217 187.018 148.101 187.858 148.759 188.223C148.65 187.729 148.319 186.504 147.583 186.519L147.514 186.524Z" fill="#407AFF"/>
<path d="M148.541 176.387L143.536 177.939L148.956 188.381L153.956 186.831L148.541 176.387Z" fill="#B55B52"/>
<path d="M147.741 188.214C146.708 189.612 146.599 190.857 142.904 192.571C142.084 192.956 142.722 194.987 144.821 194.517C146.921 194.048 148.877 193.436 150.393 193.095C152.863 192.541 153.851 192.443 155.798 192.033C155.837 192.027 155.875 192.014 155.911 191.998C156.319 191.844 156.526 191.388 156.372 190.98L156.371 190.975L154.578 186.717C154.499 186.521 154.288 186.413 154.084 186.465L148.482 187.72C148.185 187.795 147.923 187.969 147.741 188.214Z" fill="#253138"/>
<path d="M148.546 176.388L151.342 181.777L146.55 183.744L143.542 177.939L148.546 176.388Z" fill="black"/>
<path d="M151.55 179.816L144.742 182.32C144.742 182.32 130.465 165.757 122.63 150.744C120.561 146.792 119.4 140.602 118.793 133.894C118.226 126.786 118.061 119.654 118.299 112.528C118.491 105.271 118.931 100.02 118.931 100.02C118.931 100.02 124.236 97.8119 129.428 95.9791C145.197 114.919 125.051 129.774 132.629 146.095C139.584 161.069 151.55 179.816 151.55 179.816Z" fill="#407AFF"/>
<path d="M151.549 179.816L144.742 182.32C144.742 182.32 130.465 165.757 122.63 150.744C120.561 146.792 119.4 140.602 118.792 133.894C118.225 126.786 118.06 119.654 118.298 112.528C118.491 105.271 118.93 100.02 118.93 100.02C118.93 100.02 124.236 97.8119 129.428 95.9791C145.196 114.919 125.051 129.774 132.629 146.095C139.584 161.069 151.549 179.816 151.549 179.816Z" fill="white"/>
<path d="M142.188 180.058L151.307 177.489L152.246 179.811L144.169 183.017L142.188 180.058Z" fill="#407AFF"/>
<path d="M110.972 68.3991C110.611 68.1541 110.279 67.8671 109.984 67.5445C109.189 66.6899 101.487 54.0237 101.053 53.7125C100.183 53.1197 99.541 54.2065 98.8494 55.0018C98.7254 55.1194 98.6429 55.2735 98.6123 55.4415C98.6148 55.5606 98.6454 55.6771 98.7012 55.7824C100.509 60.0145 102.32 64.2461 104.135 68.4782C104.891 70.2417 105.746 72.1338 107.425 73.0674C111.511 75.3398 121.104 74.0208 123.411 73.0674C124.784 72.5141 126.158 71.7484 126.928 70.4838C127.699 69.2192 127.635 67.3518 126.434 66.4676C124.424 64.9806 113.398 69.9997 110.972 68.3991Z" fill="#B55B52"/>
<path d="M101.058 53.7273L98.879 49.6321L94.927 53.0901C94.927 53.0901 97.1549 56.5777 100.193 55.4761L101.058 53.7273Z" fill="#B55B52"/>
<path d="M96.3153 49.0294L92.6152 50.8424L94.937 53.0852L98.8841 49.642L96.3153 49.0294Z" fill="#B55B52"/>
<path d="M101.671 50.5065L90.5948 51.8996C90.5375 51.9094 90.4797 51.9094 90.4224 51.8996L89.4739 51.6427L90.2544 51.1487C90.3068 51.1195 90.3631 51.0993 90.4224 51.0894L101.493 49.3802C101.723 49.3466 101.939 49.4977 101.987 49.726L102.041 49.9878C102.087 50.2264 101.931 50.4566 101.693 50.5025C101.686 50.504 101.678 50.5055 101.671 50.5065Z" fill="#253138"/>
<path d="M97.7033 51.3067L95.1197 50.3385L94.1416 51.0943L96.1818 52.7739L97.7033 51.3067Z" fill="#B55B52"/>
<path d="M126.928 70.5135C126.157 71.7781 124.784 72.5438 123.411 73.0971C121.104 74.0357 111.511 75.3547 107.425 73.0971C105.746 72.1634 104.891 70.2714 104.135 68.5078C102.327 64.2757 100.516 60.0441 98.7006 55.812C98.7006 55.7676 98.6616 55.7182 98.6468 55.6737C96.5028 55.4514 95.0253 53.2383 94.9314 53.1L92.6101 50.8572L96.3299 49.0294L98.8834 49.637L101.057 53.7224C101.492 54.0188 109.194 66.685 109.989 67.5544C110.283 67.877 110.615 68.164 110.977 68.409C113.403 70.0096 124.428 64.9906 126.454 66.5071C127.635 67.3815 127.699 69.2488 126.928 70.5135Z" fill="black"/>
<path d="M98.8846 49.6424L98.8691 49.6372L98.8795 49.6321L98.8846 49.6424Z" fill="black"/>
<path d="M102.416 55.0364C102.144 55.1105 102.016 55.5008 102.144 55.891C102.273 56.2813 102.53 56.553 102.806 56.469C103.083 56.385 103.192 56.0047 103.083 55.6045C102.974 55.2044 102.693 54.9574 102.416 55.0364Z" fill="#253138"/>
<path d="M101.487 55.1798L102.475 54.8685C102.337 55.5503 101.487 55.1798 101.487 55.1798Z" fill="#253138"/>
<path d="M103.676 58.9139C103.221 59.1638 102.679 59.2024 102.194 59.0181C102.603 58.0854 102.885 57.1019 103.034 56.0936L103.676 58.9139Z" fill="#9F2723"/>
<path d="M101.587 53.0111C101.524 52.8985 101.558 52.7562 101.666 52.6851C102.307 52.2242 103.129 52.0977 103.879 52.3442C104 52.4 104.054 52.5438 103.998 52.6648C103.947 52.7774 103.819 52.8333 103.701 52.7937C103.1 52.6115 102.448 52.7191 101.937 53.0852C101.906 53.1084 101.868 53.1223 101.829 53.1247C101.732 53.139 101.637 53.0941 101.587 53.0111Z" fill="#253138"/>
<path d="M110.947 62.1007C111.975 64.2743 112.543 66.7097 109.377 68.246C109.377 68.246 106.788 71.9659 112.879 70.5975C118.432 69.3477 119.894 65.9638 119.894 65.9638C117.424 64.4521 115.942 59.5072 115.942 56.4098L110.947 62.1007Z" fill="#B55B52"/>
<path d="M102.945 74.5939C103.33 76.5255 103.933 79.3067 104.921 83.1401C105.754 82.2415 106.446 81.2204 106.971 80.1119C108.779 76.2587 105.489 74.3123 102.945 74.5939Z" fill="black"/>
<path d="M114.608 47.4585C112.204 44.5928 107.933 44.2179 105.067 46.6217C105.066 46.6222 105.065 46.6232 105.064 46.6237C100.815 50.0026 102.1 57.4324 104.353 61.4832C106.823 65.9934 113.141 65.618 115.838 60.7619C117.626 57.5213 117.083 55.4663 116.065 50.5065C115.843 49.3841 115.342 48.3359 114.608 47.4585Z" fill="#B55B52"/>
<path d="M102.861 74.1686C103.622 78.1206 106.2 85.294 109.589 99.7583L130.337 97.0309C129.235 89.4776 127.842 84.0239 128.583 69.8313V69.5744C128.578 66.9987 126.486 64.916 123.91 64.9214C117.454 65.0676 111.103 66.5827 105.276 69.3674C103.468 70.2279 102.474 72.2039 102.861 74.1686Z" fill="#253138"/>
<path d="M106.126 54.1522C105.237 55.239 105.499 57.0519 105.963 57.9609C106.457 58.9489 107.564 59.0279 108.132 57.6497C108.544 56.6642 108.643 55.5759 108.413 54.5325C108.117 53.3766 107.015 53.0604 106.126 54.1522Z" fill="#B55B52"/>
<path d="M120.294 143.932C119.874 140.241 119.331 136.907 118.812 133.894C118.246 126.787 118.081 119.654 118.318 112.528L118.481 112.489C119.232 112.133 120.077 112.489 121.01 113.669C128.094 117.429 122.616 134.639 120.294 143.932Z" fill="black"/>
<path d="M103.646 190.946C103.473 190.807 103.375 190.594 103.384 190.372C103.379 190.237 103.447 190.108 103.562 190.037C104.155 189.656 106.284 190.59 106.526 190.693C106.571 190.716 106.598 190.762 106.595 190.812C106.596 190.867 106.556 190.913 106.501 190.921C105.98 191.058 105.448 191.149 104.911 191.193C104.474 191.254 104.029 191.167 103.646 190.946ZM103.691 190.259C103.647 190.286 103.622 190.336 103.626 190.387C103.618 190.536 103.682 190.68 103.799 190.772C104.135 191.014 104.975 191.019 106.091 190.772C105.222 190.417 104.022 190.031 103.691 190.259Z" fill="#407AFF"/>
<path d="M106.432 190.906C105.795 190.659 104.501 189.621 104.56 189.039C104.56 188.905 104.664 188.733 104.985 188.683H105.089C106.235 188.629 106.595 190.693 106.595 190.788C106.601 190.831 106.584 190.874 106.551 190.901C106.531 190.917 106.506 190.925 106.482 190.926L106.432 190.906ZM105.024 188.93C104.802 188.964 104.802 189.078 104.802 189.078C104.768 189.429 105.652 190.249 106.284 190.595C106.151 190.101 105.79 188.88 105.069 188.925L105.024 188.93Z" fill="#407AFF"/>
<path d="M109.806 179.465L104.777 179.445L107.158 191.519L112.187 191.529L109.806 179.465Z" fill="#B55B52"/>
<path d="M105.751 190.743C104.432 191.884 102.885 193.07 98.8988 193.934C98.0096 194.127 98.1727 196.251 100.322 196.251C102.47 196.251 105.681 196.088 107.238 196.088C109.762 196.088 110.735 196.207 112.736 196.241H112.864C113.296 196.181 113.598 195.781 113.537 195.349C113.537 195.346 113.537 195.344 113.536 195.342L112.765 190.793C112.73 190.591 112.555 190.444 112.35 190.442H106.6C106.291 190.441 105.991 190.548 105.751 190.743Z" fill="#253138"/>
<path d="M109.811 179.47L111.036 185.695L106.096 186.154L104.782 179.45L109.811 179.47Z" fill="black"/>
<path d="M125.076 97.8119C130.313 121.524 103.834 130.287 105.993 147.469C107.969 163.237 111.427 184.222 111.427 184.222L104.017 184.795C104.017 184.795 98.356 164.383 95.3767 148.511C92.5164 133.242 109.901 99.778 109.901 99.778C109.901 99.778 119.41 98.4244 125.076 97.8119Z" fill="#407AFF"/>
<path d="M125.076 97.8119C130.312 121.524 103.834 130.287 105.993 147.469C107.969 163.237 111.427 184.222 111.427 184.222L104.017 184.795C104.017 184.795 98.3553 164.383 95.376 148.511C92.5157 133.242 109.9 99.778 109.9 99.778C109.9 99.778 119.41 98.4244 125.076 97.8119Z" fill="white"/>
<path d="M102.268 181.747L112.36 181.777L112.291 184.262L102.945 185.126L102.268 181.747Z" fill="#407AFF"/>
<path d="M130.223 95.6284L109.144 98.4393C108.937 98.4689 108.759 98.5924 108.759 98.7159V100.504C108.759 100.618 108.897 100.667 109.09 100.667L130.91 97.7576C131.147 97.723 131.34 97.555 131.285 97.4266L130.559 95.7371C130.48 95.6358 130.347 95.5928 130.223 95.6284Z" fill="white"/>
<path d="M130.223 95.6284L109.144 98.4393C108.937 98.4689 108.759 98.5924 108.759 98.7159V100.504C108.759 100.618 108.897 100.667 109.09 100.667L130.91 97.7576C131.147 97.723 131.34 97.555 131.285 97.4266L130.559 95.7371C130.48 95.6358 130.347 95.5928 130.223 95.6284Z" fill="#407AFF"/>
<path d="M111.995 43.0915C109.031 43.6646 110.152 44.8057 108.537 44.5735C104.259 43.956 102.525 45.7097 102.115 48.8713C101.69 52.1811 103.226 52.6554 103.493 56.8445C103.588 57.461 103.911 58.0197 104.397 58.4105C104.833 58.8585 105.503 58.985 106.072 58.7266C106.462 60.7619 108.418 62.5551 110.488 62.3921C113.022 62.1945 110.928 64.9214 113.946 65.939C115.434 66.3456 117.021 65.8388 117.997 64.6448C121.41 66.764 126.844 64.5855 128.504 60.9299C130.332 56.9137 126.593 57.9659 126.439 57.5954C128.025 57.1458 129.789 55.3082 128.524 53.7471C127.259 52.1861 124.74 53.8854 123.643 54.0188C124.78 53.7452 125.751 53.0091 126.321 51.9885C126.572 51.5725 126.693 51.0904 126.667 50.6053C126.494 48.7676 124.389 50.2941 122.221 49.6173C118.417 48.5058 118.13 41.9158 111.995 43.0915Z" fill="#253138"/>
<path d="M104.728 78.9362C104.649 79.1832 104.557 79.4252 104.451 79.6623L104.175 80.2798C103.982 80.675 103.78 81.0653 103.577 81.4457C103.167 82.2163 102.727 82.9623 102.268 83.6786C101.349 85.1196 100.329 86.4929 99.215 87.7886C98.1035 89.079 96.9124 90.2982 95.6483 91.4393C94.9962 91.9876 94.3688 92.5607 93.6723 93.0646L92.6843 93.8352C92.3434 94.0965 91.9714 94.3154 91.5777 94.4873C91.4483 94.5471 91.3144 94.5965 91.1776 94.6355C91.0155 94.6844 90.8505 94.7239 90.6836 94.754C90.4855 94.7847 90.2859 94.8025 90.0858 94.8084C88.9827 94.8054 87.9488 94.2699 87.3096 93.3708C87.0161 92.9974 86.7859 92.579 86.6278 92.1309C86.4332 91.5761 86.3038 91.0011 86.2425 90.4167C86.1472 89.5028 86.1205 88.583 86.1635 87.6651C86.2395 86.0107 86.4045 84.3618 86.6575 82.7251C87.1515 79.529 87.5763 75.7548 88.4408 72.6426L91.4048 72.282C91.1973 75.3892 91.2418 80.0526 91.1578 83.1203C91.1183 84.6567 91.0936 86.1881 91.1578 87.6306C91.1855 88.294 91.2635 88.9545 91.39 89.6066C91.4167 89.7997 91.4769 89.9869 91.5678 90.1598C91.5678 90.1895 91.5678 90.1302 91.4493 89.9524C91.3445 89.8185 91.2196 89.7019 91.0788 89.6066C90.8575 89.4544 90.607 89.3502 90.3427 89.3003C90.2153 89.2697 90.0834 89.2568 89.9525 89.2608C89.8472 89.2484 89.7415 89.2484 89.6363 89.2608C89.5671 89.2761 89.5004 89.3008 89.4387 89.3349L89.3103 89.3843C89.167 89.4386 89.1719 89.4386 89.2115 89.4188L90.0315 88.6877C90.5897 88.1937 91.0837 87.6701 91.6172 87.1711C93.6619 85.0954 95.4694 82.7992 97.0068 80.3243C97.3921 79.7117 97.7626 79.0942 98.0936 78.4669C98.2665 78.1606 98.4246 77.8395 98.5876 77.5332L98.8099 77.0738L98.9927 76.6885L104.728 78.9362Z" fill="#B55B52"/>
<path d="M91.3899 72.2771L91.8839 67.6681L86.6871 68.3251C86.6871 68.3251 86.5932 72.4599 89.7301 73.2404L91.3899 72.2771Z" fill="#B55B52"/>
<path d="M90.0908 65.7315L86.0054 65.1782L86.6822 68.3349L91.879 67.6779L90.0908 65.7315Z" fill="#B55B52"/>
<path d="M109.866 77.9136C109.841 80.6207 106.462 85.9707 106.121 86.4993C104.397 80.1316 103.113 76.0907 102.51 73.3836C103.124 72.7468 103.836 72.2128 104.619 71.8028C105.998 71.1359 109.91 73.6059 109.866 77.9136Z" fill="black"/>
<path d="M108.981 76.6242C108.7 79.4598 104.456 84.8888 104.456 84.8888L97.4465 78.704C98.5531 76.0166 100.514 71.62 104.293 70.0738C105.716 69.5057 109.411 72.3165 108.981 76.6242Z" fill="#253138"/>
<path d="M141.778 180.053C142.638 179.436 157.27 181.189 165.614 175.868C173.957 170.549 170.919 188.535 171.023 188.88C171.082 189.088 171.398 195.09 164.25 198.143C159.31 200.248 150.966 203.726 141.17 199.937C136.344 198.094 141.778 180.053 141.778 180.053Z" fill="#253138"/>
<path d="M126.567 156.302C123.336 154.616 119.349 155.868 117.663 159.1C117.345 159.71 117.124 160.366 117.008 161.044C116.738 163.237 116.759 165.456 117.073 167.644C117.636 172.93 118.579 178.168 119.893 183.318C121.331 188.995 122.156 193.321 124.468 200.48C126.938 200.223 130.766 199.21 131.972 199.042C131.972 199.042 131.379 189.923 131.408 188.861C131.611 181.782 130.85 179.554 128.657 173.053C130.781 179.193 133.636 195.555 140.133 199.443C144.514 202.061 150.507 201.003 152.67 197.467C155.486 192.858 154.261 190.62 151.964 185.897C150.26 182.404 140.824 163.855 126.567 156.302Z" fill="#253138"/>
<path d="M127.057 201.241L132.254 200.253C132.484 200.2 132.717 200.33 132.792 200.554L135.707 207.411C135.859 207.912 135.575 208.441 135.074 208.593C135.071 208.594 135.068 208.595 135.065 208.596C135.03 208.609 134.993 208.619 134.956 208.626C132.698 209.036 131.582 209.12 128.727 209.693C126.978 210.044 121.811 211.935 119.341 211.946C116.871 211.955 116.733 209.515 117.755 209.288C121.065 208.577 124.355 205.533 125.659 202.575C125.882 202.283 126.697 201.305 127.057 201.241Z" fill="#253138"/>
<path d="M123.213 207.583C123.45 207.679 123.718 207.651 123.93 207.509C124.305 207.171 124.551 206.714 124.626 206.215C124.76 205.627 124.843 205.029 124.873 204.427V204.392C124.878 204.376 124.878 204.359 124.873 204.343C124.849 204.27 124.77 204.231 124.698 204.256C124.674 204.264 124.652 204.279 124.636 204.298C124.577 204.363 124.374 204.595 124.142 204.911C124.033 205.044 123.915 205.202 123.791 205.365C123.297 206.032 122.803 206.847 122.927 207.297C122.969 207.434 123.077 207.541 123.213 207.583ZM123.312 207.302C123.25 207.288 123.203 207.236 123.194 207.173C123.166 207.088 123.166 206.997 123.194 206.911C123.456 206.282 123.807 205.693 124.236 205.163C124.345 205.019 124.458 204.881 124.577 204.753C124.547 205.098 124.503 205.415 124.453 205.696C124.305 206.507 124.073 207.06 123.777 207.257C123.639 207.349 123.465 207.366 123.312 207.302Z" fill="#407AFF"/>
<path d="M122.186 205.805C122.537 205.963 123.174 205.701 123.777 205.336C123.92 205.242 124.063 205.143 124.196 205.044C124.438 204.872 124.658 204.671 124.853 204.447V204.412V204.378C124.858 204.361 124.858 204.344 124.853 204.328V204.294C124.829 204.249 124.781 204.222 124.73 204.224C124.403 204.173 124.072 204.149 123.742 204.155C123.243 204.14 122.749 204.267 122.319 204.521C122.087 204.683 121.939 204.94 121.914 205.222C121.849 205.457 121.964 205.704 122.186 205.805ZM122.28 205.524C122.25 205.524 122.156 205.484 122.186 205.222L122.226 205.163C122.247 204.99 122.338 204.833 122.477 204.728C122.915 204.509 123.397 204.396 123.885 204.397C124.061 204.402 124.236 204.418 124.409 204.447C124.297 204.561 124.178 204.669 124.053 204.768C123.451 205.242 122.581 205.667 122.28 205.504V205.524Z" fill="#407AFF"/>
<path d="M123.045 198.864L133.681 197.654L133.573 201.32L124.028 202.204L123.045 198.864Z" fill="#407AFF"/>
<path d="M143.69 147.874C143.166 148.798 142.702 149.638 142.173 150.478C141.645 151.317 141.121 152.147 140.578 152.948C139.48 154.587 138.335 156.198 137.12 157.759C135.88 159.341 134.561 160.86 133.168 162.309C131.729 163.831 130.162 165.225 128.485 166.478L128.134 166.74L127.941 166.839C126.222 167.639 124.621 168.217 123.001 168.815C121.381 169.413 119.765 169.927 118.145 170.43C116.525 170.934 114.904 171.418 113.269 171.863C111.634 172.307 109.994 172.752 108.329 173.122L107.025 169.575C109.989 168.004 113.032 166.542 116.041 165.085L120.526 162.916C122.008 162.2 123.49 161.434 124.775 160.728L124.231 161.079C125.503 159.949 126.693 158.731 127.793 157.433C128.934 156.089 130.05 154.706 131.093 153.224C132.135 151.742 133.173 150.26 134.17 148.719C134.664 147.953 135.158 147.172 135.652 146.417C136.146 145.661 136.64 144.851 137.055 144.139L143.69 147.874Z" fill="#FFC3BC"/>
<path d="M137.159 160.125L129.774 152.092C138.666 140.686 142.805 138.809 143.606 142.158C146.051 152.374 137.159 160.125 137.159 160.125Z" fill="#407AFF"/>
<path d="M137.51 159.76L137.623 159.661L137.683 159.631C139.165 158.184 143.191 153.658 143.917 147.612C142.633 147.044 141.333 146.836 140.35 147.34C137.678 148.778 136.146 152.74 137.51 159.76Z" fill="black"/>
<path d="M108.863 172.707C107.223 175.809 102.628 175.119 102.628 175.119L103.547 169.625L108.038 169.704L108.863 172.707Z" fill="#FFC3BC"/>
<path d="M103.547 169.625L102.628 175.118L98.2417 175.484L98.711 171.537L103.547 169.625Z" fill="#FFC3BC"/>
<path d="M154.789 180.369C153.875 181.268 152.497 181.486 151.218 181.466C149.549 181.5 147.911 181.015 146.53 180.078C144.899 178.867 144.485 178.201 142.35 174.046C141.856 176.022 142.844 179.747 143.946 181.456C145.048 183.165 146.258 184.795 148.061 185.601C149.569 186.248 151.275 186.257 152.789 185.625C154.295 184.987 155.54 183.854 156.316 182.414C156.624 181.926 156.773 181.355 156.741 180.779C156.691 180.19 156.227 179.721 155.639 179.663C154.967 179.663 154.528 180.339 154.216 180.932L154.789 180.369Z" fill="black"/>
<path d="M141.373 172.836C142.331 158.139 138.903 155.98 137.5 149.059C136.799 145.556 138.498 142.012 141.669 140.365C144.826 138.715 148.743 136.759 152.537 135.05C152.901 134.889 153.276 134.753 153.659 134.644C157.942 133.426 162.4 135.911 163.618 140.194C163.62 140.198 163.621 140.202 163.622 140.207C169.224 160.278 166.75 175.345 166.75 175.345L156.376 178.378C155.65 183.215 144.446 188.372 141.373 172.836Z" fill="#407AFF"/>
<path d="M142.139 132.066C143.66 134.59 144.895 137.925 141.496 140.464C140.943 142.47 140.953 144.416 144.845 142.554C147.966 141.167 150.422 138.616 151.687 135.445C148.61 134.037 147.103 127.343 146.619 123.46L142.139 132.066Z" fill="#FFC3BC"/>
<path d="M145.73 133.182C145.152 133.954 144.286 134.459 143.329 134.58C143.138 133.913 142.892 133.265 142.593 132.639L145.794 127.897C146.022 128.321 146.218 128.762 146.382 129.216C146.883 130.56 146.635 132.069 145.73 133.182Z" fill="black"/>
<path d="M129.428 120.561C127.427 123.678 128.865 124.132 130.554 125.007C132.244 125.882 133.518 128.336 133.518 128.336L135.158 126.854C135.623 117.572 131.404 117.439 129.428 120.561Z" fill="#253138"/>
<path d="M133.973 116.91C130.248 120.773 132.333 127.946 134.961 131.671C136.982 134.618 141.01 135.37 143.958 133.349C145.061 132.593 145.902 131.513 146.367 130.258C147.731 126.839 146.585 124.137 145.048 119.365C143.512 114.593 137.703 113.042 133.973 116.91Z" fill="#FFC3BC"/>
<path d="M132.654 122.211C133.859 123.258 136.823 124.187 138.424 124.256C136.325 123.179 134.797 121.245 134.235 118.955C134.931 120.146 139.847 120.931 141.956 120.931C140.78 120.358 139.655 119.687 138.592 118.925C139.58 119.78 141.091 119.578 142.213 120.22C142.901 120.692 143.471 121.32 143.873 122.052C143.532 120.792 143.064 119.571 142.475 118.407C143.994 120.09 144.918 122.227 145.103 124.488C145.029 123.697 146.901 127.946 147.39 127.314C148.061 126.464 148.664 119.76 146.896 117.32C145.414 115.29 144.569 114.731 142.534 114.766C143.841 114.105 144.766 112.875 145.038 111.436C144.327 112.662 138.666 113.363 137.727 113.348C135.257 113.304 133.943 114.746 132.417 116.648C131.834 117.374 129.769 117.972 130.055 118.925C130.416 120.116 131.745 121.415 132.654 122.211Z" fill="#253138"/>
<path d="M146.802 120.793C145.424 121.193 144.954 123.238 145.073 124.528C145.172 125.985 146.303 126.874 147.464 125.916C148.34 125.181 148.904 124.141 149.04 123.006C149.188 121.598 148.2 120.388 146.802 120.793Z" fill="#FFC3BC"/>
<path d="M138.206 128.632C138.206 128.632 137.292 129.522 136.359 129.284C136.719 127.768 136.432 125.224 136.432 125.224L138.206 128.632Z" fill="#EC847D"/>
<path d="M138.765 121.667C138.271 121.355 137.154 121.499 136.611 121.756C136.497 121.809 136.363 121.76 136.309 121.647C136.255 121.526 136.305 121.383 136.423 121.321C137.105 120.995 138.364 120.857 139.006 121.252C139.117 121.322 139.149 121.468 139.081 121.578C139.059 121.615 139.031 121.647 138.997 121.672C138.924 121.712 138.836 121.71 138.765 121.667Z" fill="#253138"/>
<path d="M132.437 124.626C132.317 124.589 132.25 124.461 132.288 124.341L132.288 124.34C132.458 123.577 132.976 122.937 133.686 122.611C133.804 122.576 133.927 122.641 133.963 122.759C134.009 122.887 133.943 123.029 133.815 123.075C133.258 123.342 132.856 123.85 132.723 124.453C132.705 124.532 132.65 124.596 132.575 124.626C132.53 124.642 132.481 124.642 132.437 124.626Z" fill="#253138"/>
<path d="M138.681 130.687C139.274 131.11 139.842 131.569 140.38 132.061L140.627 131.858C141.729 130.935 141.857 130.07 141.674 129.388C141.5 128.853 141.179 128.379 140.746 128.021C140.523 128.934 139.579 129.887 139.051 130.371C138.814 130.574 138.681 130.687 138.681 130.687Z" fill="#2D3539"/>
<path d="M139.051 130.367L139.303 130.564C139.447 130.68 139.652 130.68 139.797 130.564C140.602 129.842 141.081 129.19 141.155 128.627C141.166 128.518 141.128 128.409 141.052 128.331C140.955 128.223 140.852 128.122 140.741 128.03C140.523 128.934 139.579 129.882 139.051 130.367Z" fill="white"/>
<path d="M140.627 131.858C141.728 130.935 141.857 130.07 141.674 129.388C141.255 129.753 140.918 130.203 140.686 130.707C140.547 131.075 140.526 131.478 140.627 131.858Z" fill="#DE5652"/>
<path d="M134.566 125.757C134.328 125.876 134.288 126.276 134.482 126.636C134.674 126.997 135.02 127.195 135.252 127.072C135.484 126.948 135.523 126.552 135.336 126.192C135.148 125.831 134.802 125.634 134.566 125.757Z" fill="#253138"/>
<path d="M138.74 123.722C138.503 123.841 138.463 124.241 138.656 124.602C138.849 124.962 139.194 125.16 139.427 125.036C139.659 124.913 139.698 124.517 139.511 124.152C139.323 123.786 138.973 123.599 138.74 123.722Z" fill="#253138"/>
<path d="M164.704 142.38C165.964 146.881 166.152 150.778 164.275 153.742C163.792 154.499 162.788 154.722 162.031 154.24C161.931 154.176 161.839 154.102 161.755 154.019C158.297 150.561 150.764 141.125 155.032 136.892C155.58 136.343 156.746 133.409 164.704 142.38Z" fill="black"/>
<path d="M155.477 178.428C154.684 181.95 154.432 185.573 154.73 189.172C155.072 192.047 156.43 194.912 158.845 196.508C161.657 198.361 165.762 198.726 168.518 196.779C173.74 193.099 177.346 183.768 175.395 158.574C175.203 156.075 172.129 154.587 169.698 153.98C160.984 151.811 157.092 172.48 155.477 178.428Z" fill="#253138"/>
<path d="M164.996 195.624C166.72 196.375 167.767 193.347 168.029 191.489C168.479 188.328 167.644 168.488 167.041 164.734C166.162 159.408 163.751 163.469 162.645 166.261C159.937 172.999 160.056 193.455 164.996 195.624Z" fill="black"/>
<path d="M164.181 162.323C163.109 165.515 163.055 168.943 163.099 172.307C163.223 181.377 164.251 188.022 165.668 196.977C167.535 198.222 165.935 197.546 168.138 197.867C170.342 198.188 172.885 198.479 173.182 196.251C174.51 186.179 177.193 175.009 176.556 164.887C176.433 162.862 176.023 159.562 175.187 157.709C174.106 155.309 171.991 154.296 169.363 155.635C166.834 156.934 165.065 159.685 164.181 162.323Z" fill="#253138"/>
<path d="M157.907 136.418C161.859 137.549 172.544 146.708 173.087 147.598C179.653 153.18 172.816 157.877 172.07 158.662C170.771 160.031 168.893 161.183 167.451 162.393C164.68 164.754 162.264 167.081 159.216 169.076L156.785 166.177C159.137 163.569 165.075 155.872 166.033 154.597C166.463 154.044 168.76 152.177 167.08 151.49C166.641 150.868 156.796 143.972 154.395 141.526L157.907 136.418Z" fill="#FFC3BC"/>
<path d="M160.125 150.522L168.158 141.422C159.912 132.723 155.407 134.254 154.355 134.506C144.188 136.7 160.125 150.522 160.125 150.522Z" fill="#407AFF"/>
<path d="M158.312 165.49L160.224 165.915C161.933 167.575 159.463 171.843 159.463 171.843L154.227 169.61L156.845 166.033C157.185 165.579 157.759 165.367 158.312 165.49Z" fill="#FFC3BC"/>
<path d="M154.227 169.59L159.483 171.813L157.872 175.844L152.868 174.782L154.227 169.59Z" fill="#FFC3BC"/>
<path d="M103.142 231.483C102.931 229.129 102.717 226.774 102.5 224.419C102.404 223.843 102.446 223.252 102.623 222.695C102.752 222.379 102.974 222.102 103.083 221.777C103.19 221.363 103.203 220.931 103.122 220.512C102.692 217.184 102.496 213.829 102.535 210.474C102.579 209.026 102.693 207.584 102.732 206.141C102.777 204.264 102.688 202.387 102.599 200.515C102.362 195.624 102.128 190.735 101.897 185.848C101.616 179.984 101.334 174.1 100.391 168.306C100.084 166.89 99.8827 165.453 99.7879 164.008C99.7138 161.301 100.366 158.115 100.134 155.422L102.401 157.586C102.174 161.953 102.011 165.214 103.033 169.442C103.404 170.973 103.246 171.309 103.478 172.865C103.666 174.13 104.352 193.85 105.079 201.433C105.172 202.421 107.144 203.533 108.102 203.73C108.146 204.783 106.803 204.956 106.714 206.008L105.36 204.941C104.427 209.184 104.629 214.821 105.247 219.148C105.468 220.464 105.859 221.746 106.407 222.962C106.842 223.846 107.326 224.982 107.662 225.793C107.759 226.085 107.599 226.401 107.307 226.497C107.072 226.574 106.816 226.489 106.674 226.287C106.443 225.893 106.234 225.487 106.047 225.072C105.815 224.574 105.468 224.139 105.034 223.802C104.773 223.614 104.408 223.673 104.221 223.935C104.128 224.063 104.092 224.224 104.12 224.38C104.294 225.489 104.348 226.614 104.283 227.734C104.275 228.932 104.341 230.13 104.481 231.32L103.142 231.483Z" fill="#407AFF"/>
<path d="M103.142 231.483C102.931 229.129 102.717 226.774 102.5 224.419C102.404 223.843 102.446 223.252 102.623 222.695C102.752 222.379 102.974 222.102 103.083 221.777C103.19 221.363 103.203 220.931 103.122 220.512C102.692 217.184 102.496 213.829 102.535 210.474C102.579 209.026 102.693 207.584 102.732 206.141C102.777 204.264 102.688 202.387 102.599 200.515C102.362 195.624 102.128 190.735 101.897 185.848C101.616 179.984 101.334 174.1 100.391 168.306C100.084 166.89 99.8827 165.453 99.7879 164.008C99.7138 161.301 100.366 158.115 100.134 155.422L102.401 157.586C102.174 161.953 102.011 165.214 103.033 169.442C103.404 170.973 103.246 171.309 103.478 172.865C103.666 174.13 104.352 193.85 105.079 201.433C105.172 202.421 107.144 203.533 108.102 203.73C108.146 204.783 106.803 204.956 106.714 206.008L105.36 204.941C104.427 209.184 104.629 214.821 105.247 219.148C105.468 220.464 105.859 221.746 106.407 222.962C106.842 223.846 107.326 224.982 107.662 225.793C107.759 226.085 107.599 226.401 107.307 226.497C107.072 226.574 106.816 226.489 106.674 226.287C106.443 225.893 106.234 225.487 106.047 225.072C105.815 224.574 105.468 224.139 105.034 223.802C104.773 223.614 104.408 223.673 104.221 223.935C104.128 224.063 104.092 224.224 104.12 224.38C104.294 225.489 104.348 226.614 104.283 227.734C104.275 228.932 104.341 230.13 104.481 231.32L103.142 231.483Z" fill="black"/>
<path d="M102.841 170.138L101.067 171.349C100.766 171.551 100.43 171.843 100.524 172.203C100.618 172.564 101.102 172.648 101.448 172.525C101.794 172.401 102.085 172.154 102.436 172.065C103.068 171.902 103.789 172.273 104.362 171.961C104.622 171.801 104.821 171.56 104.931 171.275C105.652 169.634 103.859 169.442 102.841 170.138Z" fill="#FFC3BC"/>
<path d="M170.707 199.482L166.147 198.869C165.964 198.839 165.812 198.993 165.792 199.22L164.709 206.244C164.657 206.726 164.934 207.182 165.386 207.356H165.47C166.705 207.495 166.819 207.46 167.54 207.534C168.285 207.6 169.003 207.839 169.64 208.23C171.887 209.654 176.644 210.7 178.304 210.503C180.166 210.291 180.597 207.776 179.035 206.551C176.294 205.41 173.454 203.453 171.981 200.663C171.764 200.4 170.988 199.507 170.707 199.482Z" fill="#253138"/>
<path d="M174.49 205.242C174.678 204.822 174.318 203.938 173.937 203.202C173.844 203.019 173.749 202.846 173.661 202.708C173.468 202.357 173.305 202.095 173.255 202.021C173.223 201.973 173.164 201.95 173.107 201.961C173.067 201.972 173.032 201.997 173.008 202.031C173.003 202.047 173.003 202.064 173.008 202.08V202.115C172.943 202.716 172.931 203.32 172.974 203.923C172.975 204.427 173.15 204.916 173.468 205.306C173.653 205.483 173.915 205.553 174.164 205.494C174.309 205.471 174.432 205.376 174.49 205.242ZM173.631 205.099C173.369 204.862 173.226 204.284 173.206 203.454V202.505C173.306 202.653 173.398 202.804 173.483 202.96C173.822 203.552 174.076 204.189 174.238 204.852C174.256 204.94 174.246 205.032 174.209 205.114C174.187 205.173 174.134 205.215 174.071 205.222C173.913 205.255 173.748 205.209 173.631 205.099Z" fill="#407AFF"/>
<path d="M175.78 203.36C175.795 203.078 175.689 202.803 175.489 202.604C175.097 202.297 174.629 202.103 174.135 202.046C173.809 201.99 173.478 201.961 173.147 201.962C173.097 201.956 173.047 201.974 173.014 202.011V202.046C173.009 202.062 173.009 202.079 173.014 202.095V202.13V202.169C173.168 202.422 173.355 202.655 173.567 202.861C173.681 202.98 173.809 203.098 173.937 203.217C174.461 203.666 175.064 204.027 175.419 203.928C175.67 203.863 175.828 203.615 175.78 203.36ZM173.74 202.579C173.633 202.461 173.532 202.337 173.439 202.209C173.615 202.205 173.792 202.217 173.967 202.244C174.451 202.313 174.911 202.499 175.306 202.787C175.428 202.912 175.494 203.081 175.489 203.256L175.513 203.325C175.513 203.587 175.41 203.607 175.375 203.607C175.068 203.711 174.278 203.157 173.74 202.579Z" fill="#407AFF"/>
<path d="M173.982 200.099L164.438 199.215L164.329 195.549L174.97 196.76L173.982 200.099Z" fill="#407AFF"/>
<path d="M172.347 27.2732C157.753 27.2757 145.925 39.1084 145.928 53.7022C145.93 68.2959 157.763 80.1238 172.357 80.1213C186.948 80.1184 198.776 68.289 198.776 53.6973C198.776 39.1035 186.945 27.2732 172.352 27.2732H172.347ZM175.711 56.9132C171.003 60.5046 165.673 55.1743 169.264 50.4912C173.972 46.8801 179.322 52.2103 175.711 56.9181V56.9132Z" fill="white"/>
<path d="M192.596 33.0283C189.692 30.217 186.241 28.031 182.458 26.6063L182.632 26.142C186.474 27.5889 189.982 29.8025 192.942 32.6479L192.596 33.0283Z" fill="#407AFF"/>
<path d="M180.127 25.8752C179.658 25.7418 179.174 25.6233 178.695 25.5195L178.799 25.0255C179.293 25.1342 179.787 25.2577 180.281 25.3861L180.127 25.8752Z" fill="#407AFF"/>
<path d="M172.347 27.2732C186.94 27.2732 198.771 39.1035 198.771 53.6973C198.771 68.291 186.94 80.1213 172.347 80.1213C157.753 80.1213 145.923 68.291 145.923 53.6973C145.923 39.1035 157.753 27.2732 172.347 27.2732Z" fill="#407AFF"/>
<path d="M48.2588 146.791C47.5257 145.174 46.3198 143.816 44.8008 142.898L45.0577 142.473C46.6607 143.445 47.9332 144.877 48.7083 146.583L48.2588 146.791Z" fill="#407AFF"/>
<path d="M43.2842 142.177C42.7897 141.996 42.2809 141.859 41.7627 141.767L41.8516 141.273C42.3965 141.37 42.932 141.514 43.4522 141.702L43.2842 142.177Z" fill="#407AFF"/>
<path d="M39.6484 159.832C34.9203 159.832 31.0874 156 31.0874 151.271C31.0874 146.543 34.9203 142.71 39.6484 142.71C44.3765 142.71 48.2094 146.543 48.2094 151.271V151.276C48.204 156.002 44.3735 159.83 39.6484 159.832ZM39.6484 143.456C35.3299 143.456 31.8284 146.958 31.8284 151.276C31.8284 155.595 35.3299 159.096 39.6484 159.096C43.9675 159.096 47.4684 155.595 47.4684 151.276C47.466 146.959 43.9665 143.459 39.6484 143.456Z" fill="#407AFF"/>
<path d="M32.1904 63.4807C25.2703 57.9106 24.1762 47.7852 29.7468 40.8651C35.3169 33.9454 45.4422 32.8514 52.3619 38.4215C59.282 43.9921 60.3761 54.1174 54.8055 61.0371C49.2354 67.9572 39.11 69.0513 32.1904 63.4807Z" fill="#DFDFDF"/>
<path d="M43.6076 68.6548C52.6755 67.675 59.2322 59.5298 58.2524 50.4619C57.2726 41.3939 49.1274 34.8373 40.0595 35.8171C30.9935 36.7966 24.4375 44.9388 25.4141 54.0051C26.391 63.0733 34.5344 69.6322 43.6027 68.6553L43.6076 68.6548ZM29.969 56.2904C30.223 56.8111 30.275 57.4072 30.115 57.964C31.2318 57.585 32.37 58.5999 33.0647 59.603C33.9647 60.897 34.444 62.4352 33.2458 62.843C32.5238 63.1048 31.4177 62.6629 30.3077 61.3568C29.7348 60.6535 29.1917 59.4898 29.4036 58.6918C28.7381 58.878 27.9066 58.3567 27.4861 57.4084C27.0657 56.4601 27.2391 55.3979 27.9149 55.0764C28.5907 54.755 29.5202 55.3104 29.969 56.2904ZM34.7504 47.7046C35.8907 48.2606 36.3647 49.6354 35.8087 50.7762C35.2532 51.9164 33.8779 52.3905 32.7376 51.8344C31.5968 51.2785 31.1233 49.9036 31.6788 48.7629L31.6796 48.7618C32.2324 47.6234 33.6035 47.1478 34.7425 47.7009C34.7451 47.7022 34.7478 47.7034 34.7504 47.7046ZM54.3076 53.3625C53.339 53.4672 52.4694 52.7672 52.3647 51.7986C52.2602 50.8306 52.9601 49.9604 53.9287 49.8558C54.8972 49.7512 55.7669 50.4517 55.8715 51.4197C55.9761 52.3883 55.2761 53.2579 54.3076 53.3625ZM48.341 54.4743C47.2315 54.5942 46.235 53.7921 46.1152 52.6826L46.1056 52.5942C42.1596 53.7688 38.009 51.5223 36.8343 47.5763C36.4796 46.3853 36.4283 45.1244 36.6854 43.908C35.097 43.4402 34.1885 41.773 34.6563 40.1846C35.1242 38.5962 36.7914 37.6876 38.3798 38.1555C38.9869 38.3339 39.5224 38.7008 39.9085 39.2022C43.359 36.9512 47.9807 37.9236 50.2317 41.3736C50.4919 41.7728 50.713 42.1956 50.8928 42.6363C51.1091 42.4718 51.3664 42.3705 51.6362 42.3423C52.4807 42.2993 53.2003 42.9494 53.2434 43.7939C53.2832 44.5717 52.7329 45.2547 51.9646 45.3825C51.7968 45.3976 51.6281 45.3856 51.4639 45.3471C51.4756 46.5125 51.2174 47.6644 50.7097 48.713C50.339 49.476 49.8389 50.1685 49.2316 50.7608C50.172 51.3618 50.4471 52.611 49.8462 53.5514C49.5164 54.0676 48.9701 54.4063 48.3606 54.4722L48.341 54.4743ZM37.1147 60.1592C36.2958 60.3197 35.501 59.788 35.3366 58.97C35.2727 58.6365 35.3189 58.2917 35.4688 57.9868C34.1997 58.0638 33.1085 57.0975 33.0315 55.8284C32.955 54.5592 33.9212 53.468 35.19 53.3915C36.4591 53.3145 37.5503 54.2808 37.6273 55.5499C37.6635 56.1512 37.463 56.7428 37.068 57.1979C37.892 57.3329 38.4505 58.1103 38.3154 58.9338C38.2124 59.5621 37.7274 60.0587 37.1015 60.1755L37.1147 60.1592ZM51.1361 60.8453C50.507 60.9133 49.9415 60.4581 49.8736 59.829C49.8056 59.1998 50.2607 58.6344 50.8899 58.5664C51.519 58.4984 52.0845 58.9536 52.1524 59.5828C52.2146 60.2086 51.7608 60.7679 51.1351 60.8355L51.1361 60.8453ZM38.536 64.4377C37.7165 64.5973 36.9227 64.062 36.7636 63.2425C36.604 62.423 37.1394 61.6292 37.9589 61.4701C38.776 61.3113 39.5678 61.8429 39.7301 62.6591C39.8903 63.48 39.3562 64.2756 38.536 64.4377Z" fill="#EFEFEF"/>
<path d="M51.1531 60.9975C50.4316 61.0755 49.7835 60.5537 49.7055 59.8322C49.6276 59.1107 50.1493 58.4626 50.8708 58.3846C51.5923 58.3067 52.2404 58.8284 52.3184 59.5499L52.3189 59.5548C52.3966 60.2739 51.8771 60.9193 51.158 60.997L51.1531 60.9975ZM51.1176 60.6684C51.6598 60.6099 52.0523 60.1227 51.9937 59.58C51.9351 59.0378 51.4475 58.6453 50.9053 58.7039C50.3631 58.7625 49.9706 59.2501 50.0291 59.7923C50.0878 60.335 50.5753 60.727 51.1176 60.6684Z" fill="#F9F9F9"/>
<path d="M54.331 53.5289C53.2705 53.6465 52.3158 52.8816 52.1988 51.8215C52.0813 50.7614 52.8456 49.8063 53.9062 49.6892C54.9663 49.5717 55.9209 50.3366 56.0385 51.3967L56.039 51.4016C56.1508 52.4593 55.3879 53.4092 54.331 53.5289ZM54.295 53.1949C55.1708 53.0973 55.8016 52.3082 55.7045 51.4328C55.6069 50.5569 54.8182 49.9256 53.9423 50.0232C53.0684 50.1201 52.4378 50.9062 52.5323 51.7805C52.6269 52.6567 53.4138 53.2901 54.29 53.1955L54.295 53.1949Z" fill="#F9F9F9"/>
<path d="M35.9601 50.8483C35.3632 52.0745 33.885 52.585 32.6583 51.9881C31.4316 51.3912 30.9212 49.9135 31.518 48.6869C32.1154 47.4601 33.5932 46.9501 34.8198 47.547C35.4093 47.8341 35.8604 48.3434 36.0739 48.9633C36.1361 49.1389 36.1781 49.3207 36.1977 49.5059C36.246 49.9667 36.1635 50.4318 35.9601 50.8483ZM32.8104 51.6855C33.8582 52.2132 35.1358 51.7915 35.6636 50.7437C35.671 50.729 35.6778 50.7143 35.6852 50.6996C35.9353 50.1911 35.9722 49.6038 35.7876 49.0682C35.3891 47.959 34.1671 47.383 33.0579 47.7816C31.9482 48.1803 31.3723 49.4027 31.7709 50.5119C31.9535 51.0198 32.3212 51.4387 32.8011 51.6865L32.8104 51.6855Z" fill="#F9F9F9"/>
<path d="M38.2172 59.6032C37.6995 60.3712 36.6583 60.5766 35.8874 60.0632C35.2636 59.6431 34.9961 58.8596 35.2331 58.1464C33.8703 58.0884 32.8118 56.9367 32.8692 55.5736C32.9272 54.2108 34.0794 53.1532 35.4426 53.2106C36.5857 53.259 37.5451 54.0865 37.7624 55.2098C37.8947 55.8643 37.753 56.5444 37.3699 57.0912C37.9388 57.2791 38.3644 57.7554 38.4883 58.3417L38.5043 58.489C38.5443 58.8827 38.4424 59.2778 38.2172 59.6032ZM36.9494 57.0665C37.3824 56.5726 37.5607 55.9044 37.4305 55.2606C37.2053 54.1053 36.0878 53.3506 34.9322 53.5728C33.7881 53.8142 33.0501 54.9304 33.275 56.0778C33.4831 57.1255 34.432 57.8603 35.4988 57.8001C35.5577 57.7938 35.6145 57.8224 35.6453 57.8737C35.6828 57.9214 35.6898 57.9862 35.6634 58.0407C35.3465 58.6489 35.5367 59.398 36.1054 59.7817C36.4033 59.9821 36.769 60.0554 37.1211 59.985C37.4747 59.9145 37.7846 59.7012 37.9767 59.3957C38.387 58.774 38.2151 57.9374 37.5939 57.5271C37.4302 57.419 37.2451 57.3481 37.0517 57.3193C36.9923 57.3123 36.9426 57.271 36.926 57.2136L36.9218 57.1744C36.9201 57.1358 36.9313 57.0973 36.9543 57.066L36.9494 57.0665Z" fill="#F9F9F9"/>
<path d="M38.5693 64.608C37.6591 64.7878 36.7758 64.1961 36.596 63.2859C36.4162 62.3761 37.0083 61.4923 37.9181 61.3125C38.8283 61.1327 39.7121 61.7244 39.8919 62.6346L39.8921 62.6366L39.907 62.7741C40.0019 63.6388 39.422 64.4339 38.5693 64.608ZM36.9282 63.2152C37.039 63.9515 37.7268 64.4585 38.4636 64.3476C39.1999 64.2363 39.707 63.5489 39.5961 62.8126C39.4848 62.0764 38.797 61.5693 38.0607 61.6807C37.3674 61.7849 36.8702 62.4031 36.916 63.1022L36.9282 63.2152Z" fill="#F9F9F9"/>
<path d="M48.7064 60.4321C48.7096 60.4159 48.7077 60.3987 48.7011 60.383C48.6639 60.3011 48.5675 60.2643 48.4855 60.3015L48.4836 60.3022C45.8958 61.506 40.4305 61.371 40.3759 61.372C40.2858 61.3698 40.2098 61.4396 40.2042 61.5297C40.2022 61.6218 40.275 61.6979 40.3668 61.7009C40.5959 61.706 45.9668 61.8411 48.6202 60.6004C48.6818 60.5684 48.7163 60.5011 48.7064 60.4321Z" fill="#F9F9F9"/>
<path d="M50.4001 62.1273C50.3931 62.0763 50.3647 62.0302 50.3219 62.0016C50.2416 61.9576 50.1413 61.9808 50.0893 62.0565C49.2219 63.4232 47.9449 64.4809 46.4409 65.0792C46.3577 65.1135 46.3183 65.2092 46.3532 65.2924L46.3552 65.2971C46.3907 65.3822 46.4885 65.4228 46.5737 65.3878C48.1443 64.7625 49.4784 63.6588 50.3867 62.2331C50.4014 62.1997 50.4064 62.1629 50.4001 62.1273Z" fill="#F9F9F9"/>
<path d="M51.952 54.8295C51.942 54.7371 51.8598 54.6705 51.7674 54.6805C51.6751 54.6904 51.6085 54.7732 51.6185 54.8655C51.676 55.6647 51.6311 56.468 51.4842 57.2556C51.4818 57.3483 51.5548 57.4258 51.6474 57.4282C51.7187 57.4305 51.7836 57.3867 51.8091 57.3198C51.9621 56.4959 52.0095 55.656 51.951 54.8201L51.952 54.8295Z" fill="#F9F9F9"/>
<path d="M55.4488 60.429C55.4398 60.3544 55.3825 60.294 55.3085 60.2802L53.1857 59.9431C53.0968 59.9155 53.0027 59.9644 52.9755 60.0528C52.9473 60.1413 52.9967 60.2358 53.0852 60.2635C53.1021 60.2686 53.1193 60.2713 53.1367 60.2709L55.255 60.6084C55.3457 60.6245 55.4326 60.5639 55.4491 60.4732L55.4488 60.429Z" fill="#F9F9F9"/>
<path d="M52.991 64.2621C52.8495 63.4258 52.5424 62.6257 52.0865 61.9103C52.0267 61.8397 51.9209 61.8308 51.8499 61.8906C51.7901 61.9403 51.7735 62.0251 51.8083 62.0944C52.2416 62.771 52.5318 63.5297 52.6602 64.3227C52.6702 64.4151 52.7529 64.4817 52.8452 64.4717C52.9376 64.4617 53.0037 64.379 52.9937 64.2867L52.991 64.2621Z" fill="#F9F9F9"/>
<path d="M49.1699 58.325C49.1639 58.2606 49.1212 58.2056 49.0602 58.1833C47.5953 57.6857 42.6017 55.8005 42.5499 55.7813C42.4659 55.7481 42.3715 55.7896 42.3388 55.8737C42.338 55.8752 42.3376 55.8763 42.3368 55.8783C42.3064 55.9641 42.3493 56.0584 42.4344 56.0914C42.4786 56.0866 47.4852 58.0007 48.9501 58.4983C49.0368 58.5277 49.1317 58.4817 49.1626 58.3954L49.1699 58.325Z" fill="#F9F9F9"/>
<path d="M56.3173 54.3926C56.3119 54.3331 56.274 54.2815 56.2184 54.2592C56.1336 54.2236 56.0355 54.263 55.9994 54.3474C55.2804 55.9341 54.1617 57.3066 52.7529 58.3304C52.6991 58.4028 52.7146 58.5049 52.787 58.5587C52.8269 58.5877 52.8771 58.5972 52.9245 58.5851C54.3827 57.5262 55.5406 56.1068 56.2855 54.4656C56.2999 54.4432 56.3102 54.4187 56.3173 54.3926Z" fill="#F9F9F9"/>
<path d="M34.0614 62.2529C33.944 62.61 33.6611 62.8885 33.3025 63.0007C32.4462 63.3069 31.2505 62.7256 30.1556 61.4675C29.5302 60.756 29.1811 59.8432 29.1722 58.8957C28.4759 58.9361 27.71 58.3779 27.3117 57.4967C27.0832 57.0231 27.0048 56.4904 27.0872 55.9707C27.1452 55.5228 27.4215 55.1322 27.8241 54.9272C28.5917 54.5809 29.6084 55.1617 30.0962 56.227C30.3189 56.6973 30.3966 57.2235 30.3191 57.7382C31.6672 57.523 32.8323 59.0169 33.1734 59.5068C33.6449 60.1266 33.9676 60.8465 34.1163 61.611C34.1421 61.8268 34.1234 62.045 34.0614 62.2529ZM29.9552 57.9117C30.1078 57.3968 30.0624 56.8433 29.8274 56.3604C29.4171 55.4606 28.5971 54.953 27.9956 55.2266C27.694 55.3874 27.4903 55.6862 27.4509 56.0258C27.3821 56.479 27.4516 56.9425 27.6493 57.3559C28.0216 58.1802 28.7876 58.6937 29.3658 58.5269C29.4238 58.5117 29.4856 58.5274 29.5294 58.5689C29.5659 58.6171 29.5728 58.6809 29.5474 58.7359C29.3603 59.4418 29.8403 60.5725 30.4203 61.2501C31.5618 62.6174 32.5855 62.8944 33.1747 62.6916C33.4391 62.6094 33.6456 62.4007 33.7257 62.1352C33.9047 61.5842 33.596 60.6586 32.9089 59.6794C32.5808 59.218 31.4011 57.6809 30.15 58.1043C30.1026 58.1169 30.053 58.1078 30.0131 58.0793C29.985 58.0536 29.9668 58.0183 29.9627 57.9805C29.9548 57.9584 29.9523 57.9349 29.9552 57.9117Z" fill="#F9F9F9"/>
<path d="M51.9821 45.5451C51.8586 45.5604 51.7334 45.5605 51.6095 45.5456C51.5912 46.6685 51.3276 47.7742 50.8365 48.7843C50.4878 49.5066 50.0261 50.1687 49.4684 50.7457C49.9362 51.1066 50.2366 51.6425 50.2996 52.2305C50.4107 53.4338 49.5252 54.4999 48.3213 54.6106C47.1864 54.7154 46.1611 53.9313 45.9647 52.8082C45.582 52.9131 45.191 52.9872 44.7961 53.0293C40.6104 53.4796 36.8523 50.4518 36.4015 46.2661C36.321 45.5161 36.3519 44.759 36.4935 44.0182C34.8396 43.4591 33.9521 41.6649 34.5118 40.0109C35.0714 38.3565 36.8656 37.4695 38.5196 38.0291C39.0667 38.214 39.5527 38.545 39.9249 38.9868C43.4901 36.7482 48.1949 37.8239 50.4335 41.3896C50.6364 41.7125 50.8144 42.05 50.9665 42.3998C51.1687 42.2885 51.3907 42.2193 51.6201 42.195C52.544 42.0445 53.4147 42.6714 53.5652 43.5952C53.7161 44.5185 53.0893 45.3897 52.1659 45.5401C52.1054 45.5501 52.045 45.5567 51.9837 45.5598L51.9821 45.5451ZM50.9916 42.7697L50.8167 42.8984L50.7355 42.6985C49.2041 38.965 44.9368 37.1792 41.2033 38.7105C40.7827 38.8832 40.3792 39.0947 39.998 39.3421L39.8729 39.4252L39.7755 39.306C38.8162 38.0751 37.041 37.8555 35.81 38.8148C34.5791 39.7741 34.359 41.5494 35.3183 42.7798C35.6782 43.2418 36.1724 43.5804 36.7327 43.7489L36.8816 43.793L36.8483 43.9451C36.0175 47.8857 38.5377 51.7538 42.4778 52.5847C43.2248 52.7425 43.9917 52.7819 44.7507 52.7013C45.1908 52.6543 45.6254 52.5656 46.0488 52.4369L46.2415 52.3813L46.2722 52.6656C46.4349 53.6786 47.3878 54.3681 48.4008 54.2055C49.3405 54.0548 50.0142 53.2173 49.9607 52.2671C49.9024 51.7089 49.592 51.2088 49.1182 50.9077L48.9418 50.7927L49.095 50.6469C50.5118 49.2506 51.2988 47.3371 51.2751 45.3477L51.2518 45.1321L51.4611 45.184C51.6135 45.2192 51.7711 45.229 51.9264 45.2132C52.6788 45.1776 53.2597 44.539 53.2236 43.7867C53.188 43.0343 52.5494 42.4533 51.797 42.4889C51.7426 42.4918 51.6881 42.4977 51.6339 42.5065C51.4005 42.5352 51.1783 42.6258 50.9916 42.7697Z" fill="#F9F9F9"/>
<path d="M44.3903 45.9628C44.2516 46.4906 43.7113 46.8058 43.1835 46.6671C42.6557 46.5284 42.3404 45.9875 42.4792 45.4603C42.5163 45.3206 42.5827 45.1902 42.6751 45.0794C42.9181 44.6059 43.4986 44.419 43.972 44.6615C44.1998 44.7785 44.3717 44.9815 44.4498 45.226C44.4643 45.2905 44.4713 45.3558 44.471 45.4219C44.4969 45.606 44.469 45.7943 44.3903 45.9628Z" fill="#EFEFEF"/>
<path d="M51.1355 60.8355C51.7647 60.7675 52.2199 60.2021 52.1519 59.5729C52.0838 58.9433 51.5185 58.4886 50.8893 58.5566C50.2602 58.6246 49.8049 59.1895 49.873 59.8192C49.941 60.4483 50.5064 60.9035 51.1355 60.8355Z" fill="#E6E6E6"/>
<path d="M54.3075 53.3626C55.2763 53.2604 55.9796 52.3929 55.8774 51.4241C55.7752 50.4553 54.9078 49.753 53.939 49.8547C52.9701 49.9564 52.2674 50.8244 52.3691 51.7932L52.3697 51.7986C52.4741 52.7652 53.3407 53.4646 54.3075 53.3626Z" fill="#E6E6E6"/>
<path d="M35.8124 50.7748C36.3732 49.637 35.9049 48.2596 34.7671 47.6993C33.6288 47.1386 32.2518 47.6064 31.6911 48.7447C31.1303 49.8825 31.5986 51.2594 32.7369 51.8201C32.738 51.821 32.74 51.8213 32.7411 51.8222C33.8768 52.3817 35.2509 51.9152 35.8104 50.7795C35.8113 50.7779 35.8116 50.7764 35.8124 50.7748Z" fill="#E6E6E6"/>
<path d="M37.1137 60.1499C37.9344 59.9966 38.4751 59.2068 38.3218 58.3861C38.2045 57.7603 37.7084 57.2753 37.0802 57.1722C37.8964 56.2006 37.7701 54.7514 36.7985 53.9352C35.8269 53.1195 34.3787 53.2456 33.5625 54.2173C32.7467 55.1884 32.8725 56.6381 33.8436 57.4539C34.2967 57.8347 34.8787 58.0247 35.4689 57.9868C35.3092 58.2977 35.2586 58.653 35.325 58.9961C35.5063 59.8048 36.3027 60.319 37.1137 60.1499Z" fill="#E6E6E6"/>
<path d="M38.5358 64.4377C39.3545 64.2752 39.8867 63.4794 39.7236 62.6602C39.5606 61.8416 38.7653 61.3099 37.9462 61.473C37.13 61.6352 36.5989 62.427 36.7577 63.244C36.9223 64.063 37.7157 64.5954 38.5358 64.4377Z" fill="#E6E6E6"/>
<path d="M48.5237 53.667C49.5835 53.5525 50.3503 52.6011 50.2362 51.5411C50.1734 50.9591 49.8491 50.4372 49.356 50.1218C49.9358 49.5563 50.4139 48.8945 50.7679 48.1656C51.2552 47.1579 51.5013 46.0506 51.4867 44.9312C51.6432 44.968 51.8049 44.9793 51.9653 44.965C52.7624 44.8327 53.3011 44.0788 53.1688 43.2817C53.0472 42.5476 52.3942 42.0224 51.6515 42.0599C51.393 42.0868 51.1472 42.1844 50.941 42.3414C49.4565 38.6962 45.2987 36.9443 41.6535 38.4288C41.2323 38.6 40.8283 38.8116 40.4473 39.0605C39.4773 37.8138 37.6803 37.5901 36.4336 38.56C35.1869 39.53 34.9637 41.3264 35.9336 42.5731C36.2983 43.042 36.7995 43.3859 37.368 43.5565C36.5545 47.4043 39.0149 51.1835 42.8631 51.9964C44.0245 52.2421 45.2296 52.1934 46.3681 51.8542L46.3772 51.9382C46.4809 52.9993 47.4253 53.7752 48.4858 53.6711L48.5237 53.667ZM48.5237 53.667C49.5835 53.5525 50.3503 52.6011 50.2362 51.5411C50.1734 50.9591 49.8491 50.4372 49.356 50.1218C49.9358 49.5563 50.4139 48.8945 50.7679 48.1656C51.2552 47.1579 51.5013 46.0506 51.4867 44.9312C51.6432 44.968 51.8049 44.9793 51.9653 44.965C52.7624 44.8327 53.3011 44.0788 53.1688 43.2817C53.0472 42.5476 52.3942 42.0224 51.6515 42.0599C51.393 42.0868 51.1472 42.1844 50.941 42.3414C49.4565 38.6962 45.2987 36.9443 41.6535 38.4288C41.2323 38.6 40.8283 38.8116 40.4473 39.0605C39.4773 37.8138 37.6803 37.5901 36.4336 38.56C35.1869 39.53 34.9637 41.3264 35.9336 42.5731C36.2983 43.042 36.7995 43.3859 37.368 43.5565C36.5545 47.4043 39.0149 51.1835 42.8631 51.9964C44.0245 52.2421 45.2296 52.1934 46.3681 51.8542L46.3772 51.9382C46.4809 52.9993 47.4253 53.7752 48.4858 53.6711L48.5237 53.667Z" fill="#E6E6E6"/>
<path d="M33.2464 62.8429C34.4424 62.4156 33.9653 60.897 33.0653 59.603C32.3706 58.5998 31.2324 57.585 30.1156 57.964C30.2756 57.4071 30.2236 56.811 29.9696 56.2904C29.5208 55.3104 28.6022 54.7637 27.9155 55.0764C27.2288 55.3891 27.0364 56.4136 27.4883 57.4231C27.9403 58.4326 28.7387 58.878 29.4058 58.7065C29.1923 59.4898 29.7114 60.661 30.3099 61.3715C31.4183 62.6628 32.5441 63.1026 33.2464 62.8429Z" fill="#E6E6E6"/>
<path d="M54.7183 106.534C56.3159 104.937 58.906 104.937 60.5031 106.534C62.1002 108.131 62.1002 110.721 60.5031 112.318C58.906 113.916 56.3159 113.916 54.7183 112.318C53.1212 110.721 53.1212 108.131 54.7183 106.534Z" fill="white"/>
<path d="M54.7183 106.534C56.3159 104.937 58.906 104.937 60.5031 106.534C62.1002 108.131 62.1002 110.721 60.5031 112.318C58.906 113.916 56.3159 113.916 54.7183 112.318C53.1212 110.721 53.1212 108.131 54.7183 106.534Z" fill="#407AFF"/>
</g>
</svg>
