<svg width="196" height="47" viewBox="0 0 196 47" fill="none" xmlns="http://www.w3.org/2000/svg">
<path d="M27.4719 32.2715C26.6457 32.8449 25.784 33.089 24.8516 32.6741V46.6443H27.4719V32.2715Z" fill="#A0A0AE"/>
<path d="M27.4648 36.9325C27.4648 36.9325 27.1697 36.4932 29.5422 34.3337C31.9147 32.1741 33.4492 31.3322 33.9095 30.3561C34.3699 29.38 34.9246 28.4284 35.4322 27.9281C35.4322 27.9281 35.4558 24.3654 36.2466 21.6202C37.0375 18.8628 37.604 17.6183 37.5804 15.9833C37.5568 14.568 35.4558 9.90723 35.4558 9.90723L33.402 12.3596C33.402 12.3596 35.1961 15.3245 35.0899 16.5446C35.0899 16.5446 34.9364 18.4723 33.8505 21.0956C32.9298 23.3039 32.8354 26.2688 32.8354 27.1473C32.8354 27.3669 32.7646 27.5865 32.6466 27.7695C32.4577 28.0623 32.0682 28.5138 31.301 29.1238C29.8964 30.2463 27.4884 32.2839 27.4884 32.2839V36.9325H27.4648Z" fill="#A0A0AE"/>
<path d="M35.4375 27.9281H40.6192C40.6192 27.9281 42.0592 28.0257 43.7589 26.2078V29.0262C43.7589 30.2219 42.8146 31.198 41.6579 31.198H33.2656C33.2656 31.198 33.8086 30.7953 34.0801 30.0389C34.3397 29.2824 35.1306 28.2453 35.4375 27.9281Z" fill="#A0A0AE"/>
<path d="M24.8569 32.662C24.8569 32.662 20.2772 28.7943 20.0057 27.562C19.6988 26.2077 19.6516 23.2429 18.8726 21.1565C18.0935 19.0701 17.3381 17.545 17.3971 16.0077C17.4562 14.4825 18.2824 12.8964 18.2824 12.8964L16.4174 10.7734C16.4174 10.7734 15.0719 14.5436 15.0246 15.9711C14.9774 17.3986 16.3348 21.3639 16.4883 21.9618C16.6417 22.5596 17.5978 25.7807 17.3263 27.9037L19.4864 31.503C19.4864 31.503 23.7002 35.1877 24.8569 37.2252V32.662Z" fill="#A0A0AE"/>
<path d="M9.15625 26.3418V28.8186C9.15625 30.0875 10.1595 31.1246 11.3871 31.1246H18.2803C18.2803 31.1246 19.024 31.1002 19.4843 31.5028L17.3243 27.9035H12.3432C12.3432 27.9035 10.6789 28.0377 9.15625 26.3418Z" fill="#A0A0AE"/>
<path d="M11.473 33.8942C11.7989 33.8942 12.0632 33.621 12.0632 33.2841C12.0632 32.9472 11.7989 32.6741 11.473 32.6741C11.147 32.6741 10.8828 32.9472 10.8828 33.2841C10.8828 33.621 11.147 33.8942 11.473 33.8942Z" fill="#A0A0AE"/>
<path d="M12.6527 26.9518C12.9786 26.9518 13.2428 26.6787 13.2428 26.3417C13.2428 26.0048 12.9786 25.7317 12.6527 25.7317C12.3267 25.7317 12.0625 26.0048 12.0625 26.3417C12.0625 26.6787 12.3267 26.9518 12.6527 26.9518Z" fill="#A0A0AE"/>
<path d="M9.01875 33.5649C9.55982 33.5649 9.99844 33.1115 9.99844 32.5522C9.99844 31.9929 9.55982 31.5396 9.01875 31.5396C8.47768 31.5396 8.03906 31.9929 8.03906 32.5522C8.03906 33.1115 8.47768 33.5649 9.01875 33.5649Z" fill="#A0A0AE"/>
<path d="M7.3 30.3926C7.84107 30.3926 8.27969 29.9392 8.27969 29.3799C8.27969 28.8206 7.84107 28.3672 7.3 28.3672C6.75893 28.3672 6.32031 28.8206 6.32031 29.3799C6.32031 29.9392 6.75893 30.3926 7.3 30.3926Z" fill="#A0A0AE"/>
<path d="M4.69844 28.6723C5.23951 28.6723 5.67813 28.2189 5.67813 27.6597C5.67813 27.1004 5.23951 26.647 4.69844 26.647C4.15737 26.647 3.71875 27.1004 3.71875 27.6597C3.71875 28.2189 4.15737 28.6723 4.69844 28.6723Z" fill="#A0A0AE"/>
<path d="M10.3859 25.1706C10.927 25.1706 11.3656 24.7172 11.3656 24.1579C11.3656 23.5987 10.927 23.1453 10.3859 23.1453C9.84487 23.1453 9.40625 23.5987 9.40625 24.1579C9.40625 24.7172 9.84487 25.1706 10.3859 25.1706Z" fill="#A0A0AE"/>
<path d="M7.52096 22.9865C8.23151 22.9865 8.80753 22.3911 8.80753 21.6566C8.80753 20.9221 8.23151 20.3267 7.52096 20.3267C6.8104 20.3267 6.23438 20.9221 6.23438 21.6566C6.23438 22.3911 6.8104 22.9865 7.52096 22.9865Z" fill="#A0A0AE"/>
<path d="M15.7688 26.9519C16.3098 26.9519 16.7484 26.4985 16.7484 25.9392C16.7484 25.3799 16.3098 24.9265 15.7688 24.9265C15.2277 24.9265 14.7891 25.3799 14.7891 25.9392C14.7891 26.4985 15.2277 26.9519 15.7688 26.9519Z" fill="#A0A0AE"/>
<path d="M13.4574 23.8528C14.0898 23.8528 14.6024 23.323 14.6024 22.6693C14.6024 22.0157 14.0898 21.4858 13.4574 21.4858C12.8251 21.4858 12.3125 22.0157 12.3125 22.6693C12.3125 23.323 12.8251 23.8528 13.4574 23.8528Z" fill="#A0A0AE"/>
<path d="M1.14494 22.8401C1.77727 22.8401 2.28988 22.3103 2.28988 21.6566C2.28988 21.003 1.77727 20.4731 1.14494 20.4731C0.512608 20.4731 0 21.003 0 21.6566C0 22.3103 0.512608 22.8401 1.14494 22.8401Z" fill="#A0A0AE"/>
<path d="M8.79337 18.2405C9.42571 18.2405 9.93831 17.7107 9.93831 17.057C9.93831 16.4034 9.42571 15.8735 8.79337 15.8735C8.16104 15.8735 7.64844 16.4034 7.64844 17.057C7.64844 17.7107 8.16104 18.2405 8.79337 18.2405Z" fill="#A0A0AE"/>
<path d="M13.6449 20.2415C14.2773 20.2415 14.7899 19.7116 14.7899 19.058C14.7899 18.4044 14.2773 17.8745 13.6449 17.8745C13.0126 17.8745 12.5 18.4044 12.5 19.058C12.5 19.7116 13.0126 20.2415 13.6449 20.2415Z" fill="#A0A0AE"/>
<path d="M10.8341 21.0956C11.2904 21.0956 11.6603 20.7132 11.6603 20.2415C11.6603 19.7698 11.2904 19.3875 10.8341 19.3875C10.3777 19.3875 10.0078 19.7698 10.0078 20.2415C10.0078 20.7132 10.3777 21.0956 10.8341 21.0956Z" fill="#A0A0AE"/>
<path d="M6.31342 12.628C6.685 12.628 6.98622 12.3166 6.98622 11.9325C6.98622 11.5484 6.685 11.2371 6.31342 11.2371C5.94185 11.2371 5.64062 11.5484 5.64062 11.9325C5.64062 12.3166 5.94185 12.628 6.31342 12.628Z" fill="#A0A0AE"/>
<path d="M6.31562 16.4834C6.85669 16.4834 7.29531 16.03 7.29531 15.4707C7.29531 14.9114 6.85669 14.458 6.31562 14.458C5.77456 14.458 5.33594 14.9114 5.33594 15.4707C5.33594 16.03 5.77456 16.4834 6.31562 16.4834Z" fill="#A0A0AE"/>
<path d="M9.83125 14.751C10.3723 14.751 10.8109 14.2976 10.8109 13.7383C10.8109 13.179 10.3723 12.7256 9.83125 12.7256C9.29018 12.7256 8.85156 13.179 8.85156 13.7383C8.85156 14.2976 9.29018 14.751 9.83125 14.751Z" fill="#A0A0AE"/>
<path d="M20.572 12.3595C21.3021 12.3595 21.894 11.7477 21.894 10.993C21.894 10.2383 21.3021 9.62646 20.572 9.62646C19.8419 9.62646 19.25 10.2383 19.25 10.993C19.25 11.7477 19.8419 12.3595 20.572 12.3595Z" fill="#A0A0AE"/>
<path d="M20.572 8.10119C21.3021 8.10119 21.894 7.48938 21.894 6.73468C21.894 5.97997 21.3021 5.36816 20.572 5.36816C19.8419 5.36816 19.25 5.97997 19.25 6.73468C19.25 7.48938 19.8419 8.10119 20.572 8.10119Z" fill="#A0A0AE"/>
<path d="M19.3361 16.5077C19.9489 16.5077 20.4456 15.9942 20.4456 15.3608C20.4456 14.7274 19.9489 14.2139 19.3361 14.2139C18.7233 14.2139 18.2266 14.7274 18.2266 15.3608C18.2266 15.9942 18.7233 16.5077 19.3361 16.5077Z" fill="#A0A0AE"/>
<path d="M11.2403 17.8744C11.6966 17.8744 12.0665 17.492 12.0665 17.0203C12.0665 16.5486 11.6966 16.1663 11.2403 16.1663C10.784 16.1663 10.4141 16.5486 10.4141 17.0203C10.4141 17.492 10.784 17.8744 11.2403 17.8744Z" fill="#A0A0AE"/>
<path d="M22.2139 16.3005C22.7419 16.3005 23.17 15.8581 23.17 15.3123C23.17 14.7664 22.7419 14.324 22.2139 14.324C21.6859 14.324 21.2578 14.7664 21.2578 15.3123C21.2578 15.8581 21.6859 16.3005 22.2139 16.3005Z" fill="#A0A0AE"/>
<path d="M23.9867 13.6163C24.4625 13.6163 24.8483 13.2175 24.8483 12.7256C24.8483 12.2337 24.4625 11.835 23.9867 11.835C23.5108 11.835 23.125 12.2337 23.125 12.7256C23.125 13.2175 23.5108 13.6163 23.9867 13.6163Z" fill="#A0A0AE"/>
<path d="M22.0596 24.7068C22.4377 24.7068 22.7442 24.39 22.7442 23.9992C22.7442 23.6083 22.4377 23.2915 22.0596 23.2915C21.6815 23.2915 21.375 23.6083 21.375 23.9992C21.375 24.39 21.6815 24.7068 22.0596 24.7068Z" fill="#A0A0AE"/>
<path d="M22.4842 22.4376C23.0709 22.4376 23.5465 21.946 23.5465 21.3395C23.5465 20.7331 23.0709 20.2415 22.4842 20.2415C21.8975 20.2415 21.4219 20.7331 21.4219 21.3395C21.4219 21.946 21.8975 22.4376 22.4842 22.4376Z" fill="#A0A0AE"/>
<path d="M25.3904 27.0372C25.9771 27.0372 26.4528 26.5456 26.4528 25.9392C26.4528 25.3327 25.9771 24.8411 25.3904 24.8411C24.8037 24.8411 24.3281 25.3327 24.3281 25.9392C24.3281 26.5456 24.8037 27.0372 25.3904 27.0372Z" fill="#A0A0AE"/>
<path d="M27.9842 27.0372C28.5709 27.0372 29.0465 26.5456 29.0465 25.9392C29.0465 25.3327 28.5709 24.8411 27.9842 24.8411C27.3975 24.8411 26.9219 25.3327 26.9219 25.9392C26.9219 26.5456 27.3975 27.0372 27.9842 27.0372Z" fill="#A0A0AE"/>
<path d="M28.0678 21.2782C28.7784 21.2782 29.3544 20.6828 29.3544 19.9483C29.3544 19.2138 28.7784 18.6184 28.0678 18.6184C27.3573 18.6184 26.7812 19.2138 26.7812 19.9483C26.7812 20.6828 27.3573 21.2782 28.0678 21.2782Z" fill="#A0A0AE"/>
<path d="M33.1178 17.2764C33.7697 17.2764 34.2982 16.7301 34.2982 16.0563C34.2982 15.3824 33.7697 14.8362 33.1178 14.8362C32.466 14.8362 31.9375 15.3824 31.9375 16.0563C31.9375 16.7301 32.466 17.2764 33.1178 17.2764Z" fill="#A0A0AE"/>
<path d="M39.0475 20.3147C39.6994 20.3147 40.2279 19.7685 40.2279 19.0946C40.2279 18.4208 39.6994 17.8745 39.0475 17.8745C38.3956 17.8745 37.8672 18.4208 37.8672 19.0946C37.8672 19.7685 38.3956 20.3147 39.0475 20.3147Z" fill="#A0A0AE"/>
<path d="M42.1125 20.51C42.6536 20.51 43.0922 20.0566 43.0922 19.4973C43.0922 18.938 42.6536 18.4846 42.1125 18.4846C41.5714 18.4846 41.1328 18.938 41.1328 19.4973C41.1328 20.0566 41.5714 20.51 42.1125 20.51Z" fill="#A0A0AE"/>
<path d="M45.4034 22.4252C46.0879 22.4252 46.6428 21.8517 46.6428 21.1441C46.6428 20.4366 46.0879 19.863 45.4034 19.863C44.7189 19.863 44.1641 20.4366 44.1641 21.1441C44.1641 21.8517 44.7189 22.4252 45.4034 22.4252Z" fill="#A0A0AE"/>
<path d="M51.9347 22.9621C52.6192 22.9621 53.174 22.3885 53.174 21.681C53.174 20.9735 52.6192 20.3999 51.9347 20.3999C51.2502 20.3999 50.6953 20.9735 50.6953 21.681C50.6953 22.3885 51.2502 22.9621 51.9347 22.9621Z" fill="#A0A0AE"/>
<path d="M39.9191 24.3654C40.6035 24.3654 41.1584 23.7919 41.1584 23.0843C41.1584 22.3768 40.6035 21.8032 39.9191 21.8032C39.2346 21.8032 38.6797 22.3768 38.6797 23.0843C38.6797 23.7919 39.2346 24.3654 39.9191 24.3654Z" fill="#A0A0AE"/>
<path d="M30.8329 14.4092C31.5044 14.4092 32.0487 13.8465 32.0487 13.1525C32.0487 12.4584 31.5044 11.8958 30.8329 11.8958C30.1615 11.8958 29.6172 12.4584 29.6172 13.1525C29.6172 13.8465 30.1615 14.4092 30.8329 14.4092Z" fill="#A0A0AE"/>
<path d="M31.9392 10.3707C32.6693 10.3707 33.2612 9.75891 33.2612 9.00421C33.2612 8.2495 32.6693 7.6377 31.9392 7.6377C31.2091 7.6377 30.6172 8.2495 30.6172 9.00421C30.6172 9.75891 31.2091 10.3707 31.9392 10.3707Z" fill="#A0A0AE"/>
<path d="M29.0573 6.88115C29.5593 6.88115 29.9662 6.46053 29.9662 5.94167C29.9662 5.42282 29.5593 5.0022 29.0573 5.0022C28.5554 5.0022 28.1484 5.42282 28.1484 5.94167C28.1484 6.46053 28.5554 6.88115 29.0573 6.88115Z" fill="#A0A0AE"/>
<path d="M32.0417 6.93022C32.5436 6.93022 32.9505 6.50961 32.9505 5.99075C32.9505 5.47189 32.5436 5.05127 32.0417 5.05127C31.5397 5.05127 31.1328 5.47189 31.1328 5.99075C31.1328 6.50961 31.5397 6.93022 32.0417 6.93022Z" fill="#A0A0AE"/>
<path d="M34.8229 8.67485C35.3249 8.67485 35.7318 8.25424 35.7318 7.73538C35.7318 7.21652 35.3249 6.7959 34.8229 6.7959C34.321 6.7959 33.9141 7.21652 33.9141 7.73538C33.9141 8.25424 34.321 8.67485 34.8229 8.67485Z" fill="#A0A0AE"/>
<path d="M37.987 11.2249C38.4889 11.2249 38.8959 10.8043 38.8959 10.2854C38.8959 9.76657 38.4889 9.34595 37.987 9.34595C37.485 9.34595 37.0781 9.76657 37.0781 10.2854C37.0781 10.8043 37.485 11.2249 37.987 11.2249Z" fill="#A0A0AE"/>
<path d="M44.3245 18.5944C44.6505 18.5944 44.9147 18.3212 44.9147 17.9843C44.9147 17.6474 44.6505 17.3743 44.3245 17.3743C43.9986 17.3743 43.7344 17.6474 43.7344 17.9843C43.7344 18.3212 43.9986 18.5944 44.3245 18.5944Z" fill="#A0A0AE"/>
<path d="M48.9283 21.3638C49.4238 21.3638 49.8254 20.9487 49.8254 20.4366C49.8254 19.9244 49.4238 19.5093 48.9283 19.5093C48.4329 19.5093 48.0312 19.9244 48.0312 20.4366C48.0312 20.9487 48.4329 21.3638 48.9283 21.3638Z" fill="#A0A0AE"/>
<path d="M43.7564 25.012C44.2519 25.012 44.6535 24.5969 44.6535 24.0847C44.6535 23.5726 44.2519 23.1575 43.7564 23.1575C43.261 23.1575 42.8594 23.5726 42.8594 24.0847C42.8594 24.5969 43.261 25.012 43.7564 25.012Z" fill="#A0A0AE"/>
<path d="M37.5852 26.9643C38.1328 26.9643 38.5767 26.5055 38.5767 25.9394C38.5767 25.3734 38.1328 24.9146 37.5852 24.9146C37.0377 24.9146 36.5938 25.3734 36.5938 25.9394C36.5938 26.5055 37.0377 26.9643 37.5852 26.9643Z" fill="#A0A0AE"/>
<path d="M45.9056 27.0617C46.4531 27.0617 46.897 26.6029 46.897 26.0368C46.897 25.4708 46.4531 25.012 45.9056 25.012C45.358 25.012 44.9141 25.4708 44.9141 26.0368C44.9141 26.6029 45.358 27.0617 45.9056 27.0617Z" fill="#A0A0AE"/>
<path d="M45.9056 30.3315C46.4531 30.3315 46.897 29.8727 46.897 29.3066C46.897 28.7406 46.4531 28.2817 45.9056 28.2817C45.358 28.2817 44.9141 28.7406 44.9141 29.3066C44.9141 29.8727 45.358 30.3315 45.9056 30.3315Z" fill="#A0A0AE"/>
<path d="M43.8509 33.5283C44.3985 33.5283 44.8424 33.0694 44.8424 32.5034C44.8424 31.9374 44.3985 31.4785 43.8509 31.4785C43.3033 31.4785 42.8594 31.9374 42.8594 32.5034C42.8594 33.0694 43.3033 33.5283 43.8509 33.5283Z" fill="#A0A0AE"/>
<path d="M48.8264 27.9525C49.2958 27.9525 49.6763 27.5592 49.6763 27.074C49.6763 26.5889 49.2958 26.1956 48.8264 26.1956C48.357 26.1956 47.9766 26.5889 47.9766 27.074C47.9766 27.5592 48.357 27.9525 48.8264 27.9525Z" fill="#A0A0AE"/>
<path d="M40.0124 33.7601C40.3644 33.7601 40.6498 33.4651 40.6498 33.1012C40.6498 32.7374 40.3644 32.4424 40.0124 32.4424C39.6604 32.4424 39.375 32.7374 39.375 33.1012C39.375 33.4651 39.6604 33.7601 40.0124 33.7601Z" fill="#A0A0AE"/>
<path d="M40.2273 26.952C40.5859 26.952 40.8765 26.6515 40.8765 26.2809C40.8765 25.9103 40.5859 25.6099 40.2273 25.6099C39.8688 25.6099 39.5781 25.9103 39.5781 26.2809C39.5781 26.6515 39.8688 26.952 40.2273 26.952Z" fill="#A0A0AE"/>
<path d="M46.4714 12.7623C46.9733 12.7623 47.3802 12.3416 47.3802 11.8228C47.3802 11.3039 46.9733 10.8833 46.4714 10.8833C45.9694 10.8833 45.5625 11.3039 45.5625 11.8228C45.5625 12.3416 45.9694 12.7623 46.4714 12.7623Z" fill="#A0A0AE"/>
<path d="M46.6951 19.6557C47.2818 19.6557 47.7574 19.164 47.7574 18.5576C47.7574 17.9511 47.2818 17.4595 46.6951 17.4595C46.1084 17.4595 45.6328 17.9511 45.6328 18.5576C45.6328 19.164 46.1084 19.6557 46.6951 19.6557Z" fill="#A0A0AE"/>
<path d="M44.001 16.4834C44.679 16.4834 45.2286 15.9153 45.2286 15.2145C45.2286 14.5137 44.679 13.9456 44.001 13.9456C43.323 13.9456 42.7734 14.5137 42.7734 15.2145C42.7734 15.9153 43.323 16.4834 44.001 16.4834Z" fill="#A0A0AE"/>
<path d="M34.6294 5.02672C34.9684 5.02672 35.2432 4.74266 35.2432 4.39226C35.2432 4.04187 34.9684 3.75781 34.6294 3.75781C34.2904 3.75781 34.0156 4.04187 34.0156 4.39226C34.0156 4.74266 34.2904 5.02672 34.6294 5.02672Z" fill="#A0A0AE"/>
<path d="M31.2879 24.3655C31.7963 24.3655 32.2085 23.9394 32.2085 23.4138C32.2085 22.8882 31.7963 22.4622 31.2879 22.4622C30.7794 22.4622 30.3672 22.8882 30.3672 23.4138C30.3672 23.9394 30.7794 24.3655 31.2879 24.3655Z" fill="#A0A0AE"/>
<path d="M24.6145 19.1799C25.3121 19.1799 25.8775 18.5954 25.8775 17.8744C25.8775 17.1533 25.3121 16.5688 24.6145 16.5688C23.917 16.5688 23.3516 17.1533 23.3516 17.8744C23.3516 18.5954 23.917 19.1799 24.6145 19.1799Z" fill="#A0A0AE"/>
<path d="M26.9192 15.4584C27.6167 15.4584 28.1822 14.8739 28.1822 14.1529C28.1822 13.4319 27.6167 12.8474 26.9192 12.8474C26.2217 12.8474 25.6562 13.4319 25.6562 14.1529C25.6562 14.8739 26.2217 15.4584 26.9192 15.4584Z" fill="#A0A0AE"/>
<path d="M38.671 14.4458C39.2056 14.4458 39.6389 13.9979 39.6389 13.4453C39.6389 12.8928 39.2056 12.4448 38.671 12.4448C38.1365 12.4448 37.7031 12.8928 37.7031 13.4453C37.7031 13.9979 38.1365 14.4458 38.671 14.4458Z" fill="#A0A0AE"/>
<path d="M40.6554 17.2156C41.1899 17.2156 41.6233 16.7676 41.6233 16.2151C41.6233 15.6625 41.1899 15.2146 40.6554 15.2146C40.1208 15.2146 39.6875 15.6625 39.6875 16.2151C39.6875 16.7676 40.1208 17.2156 40.6554 17.2156Z" fill="#A0A0AE"/>
<path d="M46.6507 16.1905C47.1266 16.1905 47.5124 15.7918 47.5124 15.2999C47.5124 14.8079 47.1266 14.4092 46.6507 14.4092C46.1748 14.4092 45.7891 14.8079 45.7891 15.2999C45.7891 15.7918 46.1748 16.1905 46.6507 16.1905Z" fill="#A0A0AE"/>
<path d="M17.1379 6.84474C17.529 6.84474 17.8461 6.51698 17.8461 6.11268C17.8461 5.70837 17.529 5.38062 17.1379 5.38062C16.7468 5.38062 16.4297 5.70837 16.4297 6.11268C16.4297 6.51698 16.7468 6.84474 17.1379 6.84474Z" fill="#A0A0AE"/>
<path d="M7.3 27.0984C7.84107 27.0984 8.27969 26.645 8.27969 26.0857C8.27969 25.5264 7.84107 25.073 7.3 25.073C6.75893 25.073 6.32031 25.5264 6.32031 26.0857C6.32031 26.645 6.75893 27.0984 7.3 27.0984Z" fill="#A0A0AE"/>
<path d="M3.58906 21.498C4.13013 21.498 4.56875 21.0446 4.56875 20.4853C4.56875 19.9261 4.13013 19.4727 3.58906 19.4727C3.048 19.4727 2.60938 19.9261 2.60938 20.4853C2.60938 21.0446 3.048 21.498 3.58906 21.498Z" fill="#A0A0AE"/>
<path d="M2.68231 25.6219C3.18426 25.6219 3.59117 25.2013 3.59117 24.6824C3.59117 24.1635 3.18426 23.7429 2.68231 23.7429C2.18035 23.7429 1.77344 24.1635 1.77344 24.6824C1.77344 25.2013 2.18035 25.6219 2.68231 25.6219Z" fill="#A0A0AE"/>
<path d="M14.0495 12.8721C14.5514 12.8721 14.9584 12.4515 14.9584 11.9326C14.9584 11.4138 14.5514 10.9932 14.0495 10.9932C13.5475 10.9932 13.1406 11.4138 13.1406 11.9326C13.1406 12.4515 13.5475 12.8721 14.0495 12.8721Z" fill="#A0A0AE"/>
<path d="M20.4636 19.4727C20.9655 19.4727 21.3724 19.0521 21.3724 18.5332C21.3724 18.0144 20.9655 17.5938 20.4636 17.5938C19.9616 17.5938 19.5547 18.0144 19.5547 18.5332C19.5547 19.0521 19.9616 19.4727 20.4636 19.4727Z" fill="#A0A0AE"/>
<path d="M28.3776 24.3531C28.8796 24.3531 29.2865 23.9325 29.2865 23.4136C29.2865 22.8947 28.8796 22.4741 28.3776 22.4741C27.8757 22.4741 27.4688 22.8947 27.4688 23.4136C27.4688 23.9325 27.8757 24.3531 28.3776 24.3531Z" fill="#A0A0AE"/>
<path d="M25.7705 21.8885C26.1486 21.8885 26.4551 21.5716 26.4551 21.1808C26.4551 20.79 26.1486 20.4731 25.7705 20.4731C25.3924 20.4731 25.0859 20.79 25.0859 21.1808C25.0859 21.5716 25.3924 21.8885 25.7705 21.8885Z" fill="#A0A0AE"/>
<path d="M23.8316 10.9198C24.3987 10.9198 24.8585 10.4446 24.8585 9.85836C24.8585 9.27212 24.3987 8.79688 23.8316 8.79688C23.2644 8.79688 22.8047 9.27212 22.8047 9.85836C22.8047 10.4446 23.2644 10.9198 23.8316 10.9198Z" fill="#A0A0AE"/>
<path d="M26.2613 2.12298C26.8284 2.12298 27.2882 1.64773 27.2882 1.06149C27.2882 0.475244 26.8284 0 26.2613 0C25.6941 0 25.2344 0.475244 25.2344 1.06149C25.2344 1.64773 25.6941 2.12298 26.2613 2.12298Z" fill="#A0A0AE"/>
<path d="M23.8311 6.97876C24.3591 6.97876 24.7872 6.53629 24.7872 5.99048C24.7872 5.44467 24.3591 5.0022 23.8311 5.0022C23.303 5.0022 22.875 5.44467 22.875 5.99048C22.875 6.53629 23.303 6.97876 23.8311 6.97876Z" fill="#A0A0AE"/>
<path d="M28.378 11.4932C28.906 11.4932 29.334 11.0507 29.334 10.5049C29.334 9.95907 28.906 9.5166 28.378 9.5166C27.8499 9.5166 27.4219 9.95907 27.4219 10.5049C27.4219 11.0507 27.8499 11.4932 28.378 11.4932Z" fill="#A0A0AE"/>
<path d="M30.3839 17.3008C30.7685 17.3008 31.0803 16.9785 31.0803 16.5809C31.0803 16.1834 30.7685 15.8611 30.3839 15.8611C29.9993 15.8611 29.6875 16.1834 29.6875 16.5809C29.6875 16.9785 29.9993 17.3008 30.3839 17.3008Z" fill="#A0A0AE"/>
<path d="M31.9413 21.1442C32.5345 21.1442 33.0154 20.6471 33.0154 20.0339C33.0154 19.4207 32.5345 18.9236 31.9413 18.9236C31.3481 18.9236 30.8672 19.4207 30.8672 20.0339C30.8672 20.6471 31.3481 21.1442 31.9413 21.1442Z" fill="#A0A0AE"/>
<path d="M41.6354 13.9456C42.1374 13.9456 42.5443 13.525 42.5443 13.0061C42.5443 12.4873 42.1374 12.0667 41.6354 12.0667C41.1335 12.0667 40.7266 12.4873 40.7266 13.0061C40.7266 13.525 41.1335 13.9456 41.6354 13.9456Z" fill="#A0A0AE"/>
<path d="M26.3172 5.61231C26.9756 5.61231 27.5093 5.06059 27.5093 4.38001C27.5093 3.69943 26.9756 3.14771 26.3172 3.14771C25.6587 3.14771 25.125 3.69943 25.125 4.38001C25.125 5.06059 25.6587 5.61231 26.3172 5.61231Z" fill="#A0A0AE"/>
<path d="M26.2661 8.93119C26.905 8.93119 27.4229 8.39586 27.4229 7.73549C27.4229 7.07513 26.905 6.53979 26.2661 6.53979C25.6273 6.53979 25.1094 7.07513 25.1094 7.73549C25.1094 8.39586 25.6273 8.93119 26.2661 8.93119Z" fill="#A0A0AE"/>
<path d="M17.5182 10.4439C18.0202 10.4439 18.4271 10.0233 18.4271 9.50442C18.4271 8.98556 18.0202 8.56494 17.5182 8.56494C17.0163 8.56494 16.6094 8.98556 16.6094 9.50442C16.6094 10.0233 17.0163 10.4439 17.5182 10.4439Z" fill="#A0A0AE"/>
<path d="M6.01875 19.5947C6.55982 19.5947 6.99844 19.1413 6.99844 18.582C6.99844 18.0227 6.55982 17.5693 6.01875 17.5693C5.47768 17.5693 5.03906 18.0227 5.03906 18.582C5.03906 19.1413 5.47768 19.5947 6.01875 19.5947Z" fill="#A0A0AE"/>
<path d="M13.3469 16.1784C13.8879 16.1784 14.3266 15.7251 14.3266 15.1658C14.3266 14.6065 13.8879 14.1531 13.3469 14.1531C12.8058 14.1531 12.3672 14.6065 12.3672 15.1658C12.3672 15.7251 12.8058 16.1784 13.3469 16.1784Z" fill="#A0A0AE"/>
<path d="M160.038 27.0041C160.038 30.353 160.038 36.5905 160.038 39.9279C160.038 40.791 159.762 41.0787 158.911 41.0787C158.128 41.0787 157.346 41.0672 156.563 41.0787C156.114 41.0902 155.792 40.9176 155.539 40.5263C153.145 36.0611 150.567 29.8351 148.07 25.9339C147.84 25.5656 147.575 25.2203 147.264 24.9211C146.873 24.5298 146.493 24.6449 146.367 25.1973C146.286 25.5886 146.252 26.0029 146.252 26.4057C146.24 29.9157 146.252 33.4257 146.252 36.9357C146.252 37.0623 146.252 37.1889 146.252 37.3155C146.229 37.8219 145.918 38.1671 145.423 38.1786C144.652 38.2016 143.881 38.2016 143.11 38.1786C142.627 38.1671 142.327 37.8334 142.293 37.3385C142.281 37.2119 142.281 37.0853 142.281 36.9587C142.281 30.307 142.281 23.6667 142.281 17.015C142.281 16.8884 142.281 16.7618 142.293 16.6352C142.327 16.1403 142.627 15.8066 143.121 15.7951C144.065 15.7721 145.009 15.7836 145.952 15.7951C146.298 15.7951 146.539 16.0138 146.735 16.313C148.737 19.4662 149.877 21.7103 151.879 24.8636C152.409 25.6807 153.801 28.293 154.342 29.0986C154.549 29.4208 154.802 29.7201 155.078 29.9732C155.435 30.2955 155.78 30.1804 155.896 29.7086C155.988 29.3288 156.022 28.926 156.022 28.5232C156.034 24.9557 156.022 20.5135 156.034 16.9459C156.034 16.8308 156.034 16.7158 156.045 16.6007C156.091 16.1288 156.402 15.8066 156.874 15.7951C157.656 15.7721 158.439 15.7721 159.221 15.7951C159.716 15.8066 160.027 16.1403 160.05 16.6467C160.061 16.8654 160.061 17.0955 160.061 17.3142C160.038 20.548 160.038 23.7818 160.038 27.0041Z" fill="#A0A0AE"/>
<path d="M128.259 25.4161C129.732 25.4161 131.194 25.4161 132.667 25.4161C133.415 25.4161 133.725 25.7383 133.725 26.4979C133.725 28.742 133.725 30.9861 133.714 33.2302C133.714 33.4603 133.668 33.7365 133.541 33.9092C131.872 36.1763 129.72 37.7644 126.993 38.3974C123.138 39.2835 119.708 38.2938 116.831 35.5548C114.104 32.9655 112.941 29.7087 113.252 25.9455C113.666 20.9509 116.877 16.992 121.607 15.6571C124.818 14.7479 127.822 15.3464 130.572 17.2107C131.251 17.671 131.872 18.2349 132.494 18.7758C132.954 19.1786 132.954 19.708 132.528 20.1568C132.045 20.6632 131.55 21.1695 131.055 21.6644C130.561 22.1592 130.146 22.1592 129.64 21.6759C128.696 20.7668 127.649 20.0187 126.383 19.6505C123.84 18.9139 121.584 19.5239 119.662 21.3307C117.522 23.3331 116.808 25.8764 117.43 28.7305C118.051 31.5845 119.823 33.4834 122.562 34.358C124.772 35.06 126.82 34.5191 128.673 33.1726C129.732 32.4131 129.72 32.4016 129.72 31.0896C129.72 30.871 129.732 30.6638 129.72 30.4452C129.686 29.8237 129.364 29.5015 128.754 29.5015C127.166 29.5015 125.566 29.5015 123.978 29.5015C123.897 29.5015 123.805 29.5015 123.725 29.5015C123.138 29.49 122.804 29.1678 122.781 28.5578C122.769 28.2586 122.781 27.9594 122.781 27.6487C122.781 27.2344 122.769 26.8086 122.781 26.3943C122.792 25.7383 123.126 25.4161 123.759 25.4046C125.244 25.4161 126.751 25.4161 128.259 25.4161Z" fill="#A0A0AE"/>
<path d="M83.5781 26.9924C83.6357 21.618 86.9615 17.0722 92.0482 15.6682C95.5582 14.7016 98.792 15.4266 101.681 17.6477C104.155 19.5465 105.57 22.1014 106.042 25.2086C106.928 31.0893 103.384 36.7629 97.7678 38.305C94.0161 39.3407 90.6212 38.4661 87.6405 35.9343C85.6151 34.208 84.3722 31.9869 83.8428 29.3631C83.7047 28.5805 83.6702 27.7864 83.5781 26.9924ZM102.152 26.7507C102.083 24.5411 101.243 22.4581 99.2984 20.939C97.2959 19.3624 95.0518 18.879 92.6466 19.7422C88.4116 21.2612 86.4782 26.2213 88.4116 30.3643C89.6545 33.0112 92.8768 35.4969 96.732 34.3691C100.231 33.3564 102.118 30.2952 102.152 26.7507Z" fill="#A0A0AE"/>
<path d="M57.6484 27.0042C57.6945 21.4342 61.3541 16.7043 66.6594 15.5305C69.9162 14.8055 72.8969 15.5535 75.5783 17.556C76.1077 17.9472 76.5795 18.4191 77.0628 18.8794C77.4196 19.2247 77.4426 19.6965 77.1089 20.0763C76.5795 20.6517 76.0501 21.2156 75.4862 21.768C75.0834 22.1593 74.6461 22.1362 74.1858 21.7334C73.8751 21.4688 73.5873 21.1811 73.2766 20.9394C71.044 19.2362 68.6043 18.8104 66.061 20.0417C63.4371 21.3076 61.987 23.4942 61.7569 26.4748C61.4692 30.0079 63.7248 33.3913 67.0622 34.3695C69.0991 34.9679 71.0325 34.6687 72.7588 33.3798C73.5298 32.8159 74.2088 32.1254 74.9338 31.4924C75.0029 31.4349 75.0719 31.3543 75.141 31.2968C75.5553 30.94 75.9465 30.9285 76.3493 31.3083C76.8902 31.8262 77.4196 32.3671 77.926 32.908C78.2712 33.2647 78.2827 33.6445 77.9835 34.0358C76.0616 36.51 73.6219 38.1442 70.5146 38.6045C64.7145 39.4676 59.0179 35.3247 57.9246 29.1793C57.7635 28.4543 57.729 27.7177 57.6484 27.0042Z" fill="#A0A0AE"/>
<path d="M188.274 38.1901C186.064 38.1901 183.855 38.1901 181.645 38.1901C180.862 38.1901 180.575 37.8909 180.563 37.1083C180.563 36.5099 180.575 35.923 180.563 35.3246C180.552 34.9218 180.69 34.6226 180.966 34.3464C184.177 31.1701 187.376 27.9938 190.587 24.8175C191.484 23.9199 191.876 22.8496 191.738 21.5837C191.611 20.3984 190.944 19.6388 189.862 19.2936C188.918 18.9829 187.928 18.9598 186.95 19.213C185.903 19.4777 185.224 20.1912 184.798 21.1809C184.706 21.3996 184.626 21.6298 184.534 21.8599C184.315 22.3548 183.947 22.5504 183.417 22.4353C182.784 22.2857 182.163 22.1361 181.53 21.9635C180.943 21.8024 180.701 21.3651 180.851 20.7321C181.518 17.9471 183.82 15.8181 186.616 15.3923C188.538 15.1046 190.391 15.3117 192.106 16.2554C194.154 17.3832 195.19 19.213 195.409 21.5492C195.547 23.0683 195.34 24.5298 194.534 25.8418C194.189 26.4172 193.752 26.9466 193.28 27.4184C191.531 29.2022 189.735 30.9514 187.974 32.7237C187.767 32.9308 187.583 33.1495 187.434 33.3912C187.18 33.8055 187.318 34.1622 187.779 34.2888C188.055 34.3694 188.354 34.4039 188.653 34.4039C190.736 34.4154 192.831 34.4039 194.914 34.4039C195.685 34.4039 195.996 34.7146 195.996 35.4972C195.996 36.0496 195.996 36.602 195.996 37.1544C195.996 37.8564 195.673 38.1901 194.983 38.1901C192.762 38.1901 190.518 38.1901 188.274 38.1901Z" fill="#A0A0AE"/>
<path d="M173.169 27.0045C173.169 30.3534 173.169 33.7138 173.169 37.0627C173.169 37.8913 172.881 38.179 172.064 38.179C171.431 38.179 170.787 38.179 170.154 38.179C169.486 38.179 169.164 37.8452 169.164 37.1777C169.164 30.3764 169.164 23.575 169.164 16.7736C169.164 16.1292 169.498 15.7954 170.142 15.7839C170.833 15.7839 171.512 15.7839 172.202 15.7839C172.858 15.7839 173.18 16.1177 173.18 16.7967C173.169 20.2031 173.169 23.6095 173.169 27.0045Z" fill="#A0A0AE"/>
</svg>
