<?xml version="1.0" encoding="utf-8"?>
<!-- Generator: Adobe Illustrator 27.3.1, SVG Export Plug-In . SVG Version: 6.00 Build 0)  -->
<svg version="1.1" id="Layer_1" xmlns="http://www.w3.org/2000/svg" xmlns:xlink="http://www.w3.org/1999/xlink" x="0px" y="0px"
	 viewBox="0 0 1342.4 1374.8" style="enable-background:new 0 0 1342.4 1374.8;" xml:space="preserve">
<style type="text/css">
	.st0{fill:#191B52;}
	.st1{fill:#FFFFFF;}
	.st2{fill:url(#SVGID_1_);}
	.st3{fill:#0A6B53;}
	.st4{fill:#0D382E;}
	.st5{fill:#223FA7;}
	.st6{fill:#3AA3D4;}
	.st7{fill:#0CA1A9;}
	.st8{fill:url(#SVGID_00000047771855150194604400000017966120449112162718_);}
	.st9{fill:#231F20;}
</style>
<g>
	<linearGradient id="SVGID_1_" gradientUnits="userSpaceOnUse" x1="673.3477" y1="1015.4526" x2="672.9655" y2="745.2928">
		<stop  offset="0" style="stop-color:#137191"/>
		<stop  offset="1" style="stop-color:#0CA1A9"/>
	</linearGradient>
	<path class="st2" d="M700.1,729.6c-17,11.5-34.8,16.3-54,8v279.2h54V729.6z"/>
	<path class="st3" d="M700.1,822.9c0,0-6-8.8,42.9-52c48.9-43.2,80.6-60,90.2-79.5c9.6-19.5,21-38.6,31.3-48.5
		c0,0,0.4-71.1,16.8-126.1c16.4-55,28-79.9,27.5-112.7c-0.4-28.3-43.9-121.5-43.9-121.5l-42.4,48.9c0,0,37.1,59.2,34.8,83.7
		c0,0-3.1,38.6-25.6,90.9c-19,44.1-20.9,103.3-21,121c0,4.4-1.4,8.8-3.9,12.4c-4,5.7-12,14.8-27.8,27.1c-29,22.5-78.8,63-78.8,63
		V822.9z"/>
	<path class="st4" d="M864.6,642.9h107c0,0,29.8,1.9,65-34.4v56.3c0,24-19.4,43.4-43.4,43.4H819.7c0,0,11.1-7.9,16.7-23.1
		S858.3,649.2,864.6,642.9z"/>
	<path class="st5" d="M646.1,737.6c0,0-94.5-77.2-100.2-102c-6.2-27-7.3-86.4-23.3-128c-16-41.7-31.7-72.2-30.6-102.8
		s18.3-62.3,18.3-62.3l-38.6-42.4c0,0-27.9,75.3-28.7,103.9c-0.8,28.7,27.1,107.8,30.2,119.6c3.1,11.8,22.9,76.4,17.2,118.8
		l44.7,71.8c0,0,87,73.7,110.9,114.3V737.6z"/>
	<path class="st0" d="M322,611.2v49.4c0,25.5,20.6,46.1,46.1,46.1h142.3c0,0,15.4-0.5,24.8,7.6l-44.7-71.8H387.7
		C387.7,642.5,353.3,645.2,322,611.2z"/>
	<circle class="st0" cx="369.7" cy="749.9" r="12.2"/>
	<circle class="st0" cx="394.2" cy="611.2" r="12.2"/>
	<circle class="st0" cx="318.9" cy="735.4" r="20.2"/>
	<circle class="st5" cx="283.4" cy="671.9" r="20.2"/>
	<circle class="st5" cx="229.9" cy="637.5" r="20.2"/>
	<circle class="st5" cx="347.2" cy="567.7" r="20.2"/>
	<circle class="st0" cx="288" cy="517.7" r="26.5"/>
	<circle class="st5" cx="458.4" cy="603.2" r="20.2"/>
	<circle class="st5" cx="410.6" cy="537.9" r="23.6"/>
	<circle class="st5" cx="156.4" cy="517.7" r="23.6"/>
	<circle class="st5" cx="314.4" cy="425.8" r="23.6"/>
	<circle class="st5" cx="414.6" cy="465.6" r="23.6"/>
	<circle class="st5" cx="356.5" cy="489.2" r="17"/>
	<circle class="st5" cx="263.2" cy="323.4" r="14"/>
	<circle class="st5" cx="263.2" cy="394.1" r="20.2"/>
	<circle class="st5" cx="335.8" cy="359.3" r="20.2"/>
	<circle class="st5" cx="557.8" cy="304.6" r="27.2"/>
	<circle class="st5" cx="557.8" cy="219.4" r="27.2"/>
	<circle class="st5" cx="532.2" cy="391.7" r="23"/>
	<circle class="st5" cx="364.9" cy="425" r="17"/>
	<circle class="st5" cx="591.5" cy="390.9" r="19.7"/>
	<circle class="st5" cx="628.2" cy="339.1" r="17.9"/>
	<circle class="st5" cx="588.4" cy="564.4" r="14"/>
	<circle class="st5" cx="597.2" cy="511.2" r="22"/>
	<circle class="st5" cx="657.1" cy="603.2" r="22"/>
	<circle class="st3" cx="710.9" cy="603.2" r="22"/>
	<circle class="st3" cx="712.6" cy="483.6" r="26.6"/>
	<circle class="st3" cx="816.9" cy="405.7" r="24.4"/>
	<circle class="st3" cx="939.2" cy="466.4" r="24.4"/>
	<circle class="st3" cx="1002.6" cy="474.5" r="20.3"/>
	<circle class="st4" cx="1070.6" cy="507.5" r="25.6"/>
	<circle class="st4" cx="1205.5" cy="518.2" r="25.6"/>
	<circle class="st4" cx="957.2" cy="546.1" r="25.6"/>
	<circle class="st3" cx="769.5" cy="347.7" r="25.2"/>
	<circle class="st3" cx="792.5" cy="264.7" r="27.4"/>
	<circle class="st3" cx="733" cy="203.5" r="18.7"/>
	<circle class="st3" cx="794.7" cy="204.6" r="18.7"/>
	<circle class="st3" cx="852" cy="239.5" r="18.7"/>
	<circle class="st3" cx="917.3" cy="290.3" r="18.7"/>
	<circle class="st3" cx="1048.3" cy="444.3" r="12.2"/>
	<circle class="st3" cx="1143.4" cy="493.1" r="18.5"/>
	<circle class="st3" cx="1036.5" cy="566.1" r="18.5"/>
	<circle class="st3" cx="908.9" cy="603.2" r="20.6"/>
	<circle class="st3" cx="1081" cy="605.2" r="20.6"/>
	<circle class="st4" cx="1081" cy="670.6" r="20.6"/>
	<circle class="st4" cx="1038.6" cy="734.4" r="20.6"/>
	<circle class="st3" cx="1141.4" cy="625.8" r="17.6"/>
	<circle class="st3" cx="959.3" cy="746.4" r="13.1"/>
	<circle class="st3" cx="963.6" cy="610.1" r="13.4"/>
	<circle class="st3" cx="1092.7" cy="321.2" r="18.7"/>
	<circle class="st3" cx="1097.2" cy="455.7" r="21.9"/>
	<circle class="st3" cx="1041.7" cy="388.9" r="25.3"/>
	<circle class="st3" cx="848.2" cy="172.5" r="12.6"/>
	<circle class="st5" cx="779" cy="552.7" r="19"/>
	<circle class="st5" cx="641.2" cy="442.1" r="26"/>
	<circle class="st5" cx="688.9" cy="367.7" r="26"/>
	<circle class="st5" cx="931.6" cy="353.5" r="20"/>
	<circle class="st5" cx="972.5" cy="408.8" r="20"/>
	<circle class="st5" cx="1096.3" cy="390.5" r="17.8"/>
	<circle class="st5" cx="486.8" cy="206.9" r="14.7"/>
	<circle class="st6" cx="283.4" cy="606.2" r="20.2"/>
	<circle class="st6" cx="207" cy="494.1" r="20.2"/>
	<circle class="st6" cx="188.1" cy="578" r="18.8"/>
	<circle class="st6" cx="422.8" cy="323.4" r="18.8"/>
	<circle class="st6" cx="555.5" cy="455.2" r="18.8"/>
	<circle class="st6" cx="718.7" cy="552.7" r="18.8"/>
	<circle class="st6" cx="665" cy="508" r="14.1"/>
	<circle class="st6" cx="625" cy="281.8" r="21.1"/>
	<circle class="st6" cx="675.1" cy="106" r="21.1"/>
	<circle class="st6" cx="625" cy="204.6" r="19.8"/>
	<circle class="st7" cx="718.7" cy="294.7" r="19.8"/>
	<circle class="st7" cx="760.4" cy="416.1" r="14.5"/>
	<circle class="st7" cx="792.5" cy="485.2" r="22.2"/>
	<circle class="st7" cx="992.8" cy="344.7" r="18.8"/>
	<circle class="st3" cx="676.5" cy="172.4" r="24.6"/>
	<circle class="st6" cx="675.1" cy="239.5" r="23.8"/>
	<circle class="st6" cx="494.6" cy="274.9" r="18.8"/>
	<circle class="st6" cx="257" cy="456.3" r="20.2"/>
	<circle class="st6" cx="408.4" cy="387.8" r="20.2"/>
	<g>
		<g>
			<path class="st0" d="M906.4,1172.4c0,23,0,66,0,89c0,6-2,7.9-7.9,7.9c-5.5,0-11-0.1-16.5,0c-3.2,0.1-5.4-1.1-7.2-3.8
				c-16.8-30.8-34.9-73.7-52.5-100.5c-1.6-2.5-3.5-4.9-5.6-7c-2.8-2.7-5.4-1.9-6.3,1.9c-0.6,2.7-0.8,5.6-0.8,8.4
				c-0.1,24.2,0,48.3,0,72.5c0,0.9,0,1.7,0,2.6c-0.2,3.5-2.4,5.8-5.8,5.9c-5.4,0.1-10.8,0.1-16.3,0c-3.4-0.1-5.5-2.4-5.7-5.8
				c-0.1-0.9-0.1-1.7-0.1-2.6c0-45.8,0-91.6,0-137.4c0-0.9,0-1.7,0.1-2.6c0.2-3.4,2.4-5.7,5.8-5.7c6.6-0.1,13.3-0.1,19.9,0
				c2.5,0,4.1,1.5,5.5,3.5c14.1,21.7,22,37.2,36.2,58.9c3.7,5.7,13.5,23.6,17.3,29.2c1.5,2.2,3.2,4.3,5.2,6.1
				c2.5,2.2,4.9,1.5,5.7-1.8c0.6-2.6,0.9-5.4,0.9-8.1c0.1-24.6,0-55.1,0-79.7c0-0.8,0-1.6,0.1-2.4c0.4-3.3,2.5-5.5,5.8-5.6
				c5.5-0.1,11-0.1,16.5,0c3.5,0.1,5.7,2.4,5.9,5.9c0.1,1.5,0,3.1,0,4.6C906.4,1128,906.4,1150.2,906.4,1172.4z"/>
			<path class="st0" d="M683.2,1161.4c10.3,0,20.6,0,30.9,0c5.2,0,7.4,2.2,7.4,7.5c0,15.5,0,30.9-0.1,46.4c0,1.6-0.3,3.5-1.2,4.7
				c-11.8,15.6-26.8,26.6-46,30.9c-27.1,6.1-51.1-0.7-71.4-19.6c-19.2-17.8-27.3-40.3-25.1-66.2c2.9-34.4,25.5-61.6,58.7-70.8
				c22.5-6.2,43.6-2.2,63,10.7c4.8,3.2,9.1,7,13.5,10.8c3.2,2.8,3.2,6.4,0.2,9.5c-3.4,3.5-6.9,6.9-10.4,10.4
				c-3.5,3.4-6.4,3.4-9.9,0.1c-6.7-6.3-14-11.4-22.9-14c-17.9-5-33.7-0.8-47.2,11.5c-15.1,13.8-20.1,31.3-15.7,51
				c4.4,19.7,16.8,32.8,36,38.7c15.5,4.8,29.9,1.1,42.9-8.1c7.4-5.3,7.4-5.3,7.4-14.3c0-1.5,0-2.9,0-4.4c-0.2-4.3-2.5-6.5-6.8-6.5
				c-11.2,0-22.4,0-33.5,0c-0.6,0-1.2,0-1.8,0c-4.1-0.1-6.4-2.3-6.6-6.5c-0.1-2.1,0-4.1,0-6.2c0-2.9,0-5.8,0-8.6
				c0.1-4.5,2.4-6.8,6.9-6.8C662,1161.4,672.6,1161.4,683.2,1161.4z"/>
			<path class="st0" d="M369.2,1172.3c0.4-37,23.8-68.3,59.5-78c24.6-6.7,47.3-1.7,67.7,13.7c17.3,13.1,27.4,30.7,30.7,52.1
				c6.3,40.5-18.6,79.6-58.1,90.2c-26.3,7.1-50.2,1.1-71.1-16.4c-14.2-11.9-22.9-27.2-26.6-45.3
				C370.1,1183.3,369.9,1177.8,369.2,1172.3z M499.7,1170.7c-0.5-15.2-6.4-29.6-20-40c-14.1-10.8-29.8-14.2-46.7-8.3
				c-29.7,10.5-43.3,44.7-29.7,73.2c8.7,18.2,31.4,35.3,58.5,27.6C486.3,1216.2,499.5,1195.1,499.7,1170.7z"/>
			<path class="st0" d="M187.1,1172.4c0.3-38.4,26-71,63.3-79c22.9-5,43.8,0.2,62.6,13.9c3.7,2.7,7,6,10.4,9.1
				c2.5,2.4,2.7,5.7,0.3,8.2c-3.7,4-7.5,7.9-11.4,11.6c-2.8,2.7-5.9,2.5-9.2-0.2c-2.1-1.8-4.2-3.8-6.4-5.5
				c-15.7-11.8-32.8-14.7-50.7-6.2c-18.4,8.8-28.6,23.8-30.3,44.3c-2,24.3,13.8,47.6,37.2,54.4c14.3,4.1,27.9,2,40-6.8
				c5.4-3.9,10.2-8.6,15.3-13c0.5-0.4,0.9-0.9,1.5-1.4c2.9-2.4,5.7-2.5,8.4,0.1c3.8,3.6,7.5,7.3,11.1,11.1c2.4,2.5,2.5,5.1,0.4,7.8
				c-13.5,17.1-30.7,28.3-52.5,31.5c-40.8,6-80.7-22.6-88.5-65C187.9,1182.4,187.7,1177.3,187.1,1172.4z"/>
			<g>
				<path class="st3" d="M1104.8,1249.4c-15.5,0-31.1,0-46.6,0c-5.5,0-7.6-2.1-7.6-7.5c0-4.1,0.1-8.2,0-12.2
					c-0.1-2.8,0.9-4.8,2.9-6.7c22.5-21.8,45-43.8,67.5-65.6c6.3-6.1,9.1-13.5,8.1-22.3c-0.9-8.2-5.6-13.4-13.2-15.8
					c-6.7-2.1-13.6-2.3-20.4-0.6c-7.4,1.8-12.1,6.8-15.1,13.6c-0.7,1.5-1.2,3.1-1.9,4.6c-1.5,3.4-4.2,4.8-7.8,4
					c-4.4-1-8.8-2.1-13.2-3.3c-4.1-1.1-5.8-4.2-4.7-8.5c4.7-19.2,20.9-33.9,40.5-36.7c13.5-2,26.5-0.6,38.6,6
					c14.4,7.8,21.7,20.4,23.2,36.4c1,10.4-0.5,20.5-6.1,29.5c-2.5,3.9-5.5,7.6-8.8,10.9c-12.3,12.3-24.9,24.3-37.3,36.5
					c-1.4,1.4-2.8,2.9-3.8,4.6c-1.8,2.9-0.8,5.3,2.4,6.2c2,0.6,4.1,0.8,6.1,0.8c14.7,0.1,29.3,0,44,0c5.4,0,7.6,2.2,7.6,7.5
					c0,3.8,0,7.6,0,11.4c0,4.9-2.3,7.1-7.1,7.1C1136.3,1249.4,1120.5,1249.4,1104.8,1249.4z"/>
			</g>
			<path class="st0" d="M998.6,1172.4c0,23.1,0,46.2,0,69.3c0,5.7-2,7.7-7.7,7.7c-4.5,0-9,0-13.5,0c-4.6,0-7-2.3-7-6.9
				c0-46.9,0-93.7,0-140.6c0-4.5,2.3-6.8,6.8-6.8c4.8,0,9.6,0,14.5,0c4.6,0,6.9,2.3,6.9,7C998.6,1125.6,998.6,1149,998.6,1172.4z"/>
		</g>
	</g>
</g>
</svg>
