<svg width="24" height="24" viewBox="0 0 24 24" fill="none" xmlns="http://www.w3.org/2000/svg">
<g clip-path="url(#clip0_1274_15626)">
<path d="M16.6695 0.375C17.5829 0.375 18.4874 0.554909 19.3313 0.904456C20.1751 1.254 20.9419 1.76634 21.5878 2.41222C22.2337 3.0581 22.746 3.82487 23.0955 4.66875C23.4451 5.51263 23.625 6.41709 23.625 7.3305V16.6695C23.625 18.5142 22.8922 20.2834 21.5878 21.5878C20.2834 22.8922 18.5142 23.625 16.6695 23.625H7.3305C5.48579 23.625 3.71663 22.8922 2.41222 21.5878C1.10781 20.2834 0.375 18.5142 0.375 16.6695V7.3305C0.375 5.48579 1.10781 3.71663 2.41222 2.41222C3.71663 1.10781 5.48579 0.375 7.3305 0.375H16.6695ZM16.6695 2.625H7.3305C6.08252 2.625 4.88566 3.12076 4.00321 4.00321C3.12076 4.88566 2.625 6.08252 2.625 7.3305V16.6695C2.625 17.2874 2.74671 17.8993 2.98318 18.4702C3.21966 19.0411 3.56626 19.5598 4.00321 19.9968C4.88566 20.8792 6.08252 21.375 7.3305 21.375H16.6695C17.2874 21.375 17.8993 21.2533 18.4702 21.0168C19.0411 20.7803 19.5598 20.4337 19.9968 19.9968C20.4337 19.5598 20.7803 19.0411 21.0168 18.4702C21.2533 17.8993 21.375 17.2874 21.375 16.6695V7.3305C21.375 6.71256 21.2533 6.10068 21.0168 5.52978C20.7803 4.95889 20.4337 4.44016 19.9968 4.00321C19.5598 3.56626 19.0411 3.21966 18.4702 2.98318C17.8993 2.74671 17.2874 2.625 16.6695 2.625ZM12 6.2085C12.2719 6.20851 12.5345 6.30696 12.7394 6.48565C12.9443 6.66434 13.0775 6.91117 13.1145 7.1805L13.125 7.3335V15.4995C13.1249 15.7845 13.0166 16.0589 12.822 16.2672C12.6274 16.4755 12.3611 16.6021 12.0767 16.6215C11.7923 16.641 11.5112 16.5517 11.2901 16.3719C11.0689 16.192 10.9244 15.9349 10.8855 15.6525L10.875 15.4995V7.335C10.875 7.03663 10.9935 6.75048 11.2045 6.5395C11.4155 6.32853 11.7016 6.2085 12 6.2085ZM7.3335 9.5775C7.60558 9.57756 7.86842 9.67622 8.07334 9.85522C8.27825 10.0342 8.41136 10.2814 8.448 10.551L8.4585 10.7025V15.4995C8.45841 15.7845 8.35013 16.0589 8.15554 16.2672C7.96095 16.4755 7.69455 16.6021 7.41018 16.6215C7.12581 16.641 6.84466 16.5517 6.62355 16.3719C6.40244 16.192 6.25785 15.9349 6.219 15.6525L6.2085 15.4995V10.7025C6.2085 10.4041 6.32703 10.118 6.538 9.90701C6.74898 9.69603 7.03513 9.5775 7.3335 9.5775ZM16.6665 11.178C16.9384 11.178 17.201 11.2765 17.4059 11.4552C17.6108 11.6338 17.744 11.8807 17.781 12.15L17.7915 12.303V15.4995C17.7914 15.7845 17.6831 16.0589 17.4885 16.2672C17.2939 16.4755 17.0276 16.6021 16.7432 16.6215C16.4588 16.641 16.1777 16.5517 15.9566 16.3719C15.7354 16.192 15.5909 15.9349 15.552 15.6525L15.5415 15.4995V12.303C15.5415 12.0046 15.66 11.7185 15.871 11.5075C16.082 11.2965 16.3681 11.178 16.6665 11.178Z" fill="white"/>
</g>
<defs>
<clipPath id="clip0_1274_15626">
<rect width="24" height="24" fill="white"/>
</clipPath>
</defs>
</svg>
