<svg width="23" height="21" viewBox="0 0 23 21" fill="none" xmlns="http://www.w3.org/2000/svg">
<path fill-rule="evenodd" clip-rule="evenodd" d="M5.75 5.90625H2.875C2.49375 5.90625 2.12812 6.04453 1.85853 6.29067C1.58895 6.53681 1.4375 6.87065 1.4375 7.21875V15.0938H2.875V11.8125H5.75V15.0938H7.1875V7.21875C7.1875 6.87065 7.03605 6.53681 6.76647 6.29067C6.49688 6.04453 6.13125 5.90625 5.75 5.90625ZM2.875 10.5V7.21875H5.75V10.5H2.875ZM15.8125 7.21875H17.9688V13.7812H15.8125V15.0938H21.5625V13.7812H19.4062V7.21875H21.5625V5.90625H15.8125V7.21875ZM8.625 15.0938H10.0625V11.8125H12.9375C13.3187 11.8125 13.6844 11.6742 13.954 11.4281C14.2235 11.1819 14.375 10.8481 14.375 10.5V7.21875C14.375 6.87065 14.2235 6.53681 13.954 6.29067C13.6844 6.04453 13.3187 5.90625 12.9375 5.90625H8.625V15.0938ZM12.9375 10.5H10.0625V7.21875H12.9375V10.5Z" fill="white"/>
</svg>
