<svg width="18" height="17" viewBox="0 0 18 17" fill="none" xmlns="http://www.w3.org/2000/svg">
<path fill-rule="evenodd" clip-rule="evenodd" d="M9.06166 0.730545C9.52884 0.378829 10.0825 0.144244 10.6712 0.0485436C11.26 -0.0471567 11.8648 -0.000872991 12.4295 0.183103C12.9943 0.367078 13.5007 0.682788 13.9019 1.10095C14.303 1.51912 14.5859 2.0262 14.7242 2.57518C14.7332 2.61131 14.7636 2.64106 14.794 2.64743C15.437 2.77088 16.0379 3.04185 16.5439 3.43644C17.0499 3.83104 17.4453 4.33715 17.6954 4.91016C17.9454 5.48317 18.0425 6.1055 17.9778 6.72228C17.9132 7.33906 17.689 7.93137 17.3249 8.44698C17.3024 8.47567 17.3024 8.51392 17.3294 8.55005C17.6926 9.06494 17.9163 9.65628 17.9807 10.272C18.045 10.8877 17.9482 11.509 17.6986 12.081C17.449 12.6531 17.0544 13.1584 16.5495 13.5525C16.0445 13.9466 15.4448 14.2174 14.803 14.3411C14.7636 14.3485 14.7332 14.3783 14.7209 14.4293C14.5821 14.9781 14.2987 15.485 13.897 15.9027C13.4954 16.3204 12.9884 16.6354 12.4234 16.8185C11.8583 17.0015 11.2534 17.0468 10.6649 16.9499C10.0764 16.853 9.52336 16.6172 9.05716 16.2644C9.04002 16.2517 9.01871 16.245 8.99694 16.2456C8.97516 16.2462 8.95429 16.254 8.93793 16.2675C8.47215 16.6189 7.92013 16.8538 7.33286 16.9504C6.7456 17.0469 6.14204 17.0021 5.57795 16.8201C5.01884 16.6409 4.51628 16.332 4.11635 15.9217C3.71641 15.5114 3.43189 15.0129 3.28885 14.4718L3.27198 14.4112C3.26679 14.3969 3.25806 14.3839 3.24652 14.3734C3.23499 14.3629 3.22096 14.3551 3.20561 14.3507C2.56281 14.2271 1.96203 13.9562 1.4562 13.5617C0.95037 13.1671 0.555018 12.6611 0.304972 12.0883C0.0549272 11.5154 -0.0421368 10.8933 0.0223316 10.2766C0.0868001 9.65997 0.310822 9.06777 0.674662 8.55217C0.697159 8.52348 0.697159 8.48523 0.669038 8.44804C0.306356 7.93304 0.0831867 7.34174 0.0191553 6.72616C-0.0448762 6.11057 0.0521918 5.48956 0.301823 4.91772C0.551454 4.34588 0.946002 3.84074 1.45077 3.44672C1.95553 3.05271 2.55506 2.78188 3.19661 2.65806C3.23598 2.65062 3.26748 2.62193 3.27985 2.5688C3.41931 2.02048 3.70312 1.51432 4.10496 1.09728C4.50679 0.680231 5.01362 0.365815 5.57844 0.1832C6.14325 0.000585658 6.74774 -0.0443116 7.33582 0.0526742C7.92391 0.14966 8.47653 0.385386 8.94243 0.737983C8.97617 0.763485 9.02454 0.763485 9.04929 0.742233L9.06054 0.730545H9.06166ZM7.77369 1.84413C7.51876 1.68632 7.22758 1.5884 6.92443 1.55853C6.62129 1.52867 6.31498 1.56772 6.03107 1.67244C5.74715 1.77716 5.49387 1.9445 5.29236 2.16051C5.09084 2.37651 4.94694 2.63491 4.87266 2.91414C4.80041 3.22335 4.63527 3.5063 4.39704 3.72908C4.15881 3.95185 3.85762 4.10498 3.52957 4.17011L3.35409 4.21048C2.99738 4.3064 2.66957 4.48027 2.39718 4.71804C2.12478 4.9558 1.91545 5.25079 1.78611 5.57914C1.65678 5.9075 1.61106 6.25999 1.65267 6.60813C1.69428 6.95626 1.82204 7.29026 2.02563 7.5831L2.11787 7.72549C2.26909 7.9874 2.34111 8.28357 2.32603 8.58157C2.31095 8.87956 2.20936 9.16789 2.03238 9.41499L1.93114 9.57331C1.75142 9.88053 1.65103 10.2235 1.63816 10.5743C1.62529 10.9251 1.7003 11.2738 1.85707 11.5921C2.01384 11.9103 2.24795 12.1891 2.54034 12.4057C2.83274 12.6223 3.17514 12.7706 3.5397 12.8386L3.69718 12.8779C4.21462 13.0309 4.62857 13.4092 4.82767 13.9363L4.91878 14.2359C5.01786 14.5091 5.18498 14.7559 5.40605 14.9554C5.62713 15.1549 5.8957 15.3013 6.18917 15.3823C6.48264 15.4633 6.79241 15.4766 7.09243 15.4209C7.39244 15.3653 7.67392 15.2424 7.91318 15.0626L8.04366 14.9723C8.23039 14.8554 8.43511 14.7757 8.64546 14.7342V2.26809C8.43188 2.22624 8.22876 2.14617 8.04704 2.0322L7.77369 1.84413ZM11.8907 1.64117C11.5868 1.54316 11.2617 1.51903 10.9454 1.57103C10.6291 1.62303 10.3317 1.74948 10.0808 1.9387L10.1247 1.90788V15.0891L10.2259 15.1572C10.6612 15.4281 11.1967 15.5184 11.7051 15.4058L11.8941 15.3548C12.5116 15.1529 12.9773 14.6694 13.1258 14.084C13.1981 13.7747 13.3632 13.4918 13.6014 13.269C13.8397 13.0462 14.1409 12.8931 14.4689 12.828L14.6444 12.7876C15.0013 12.6917 15.3294 12.5177 15.6019 12.2797C15.8744 12.0417 16.0838 11.7465 16.213 11.4179C16.3423 11.0892 16.3878 10.7365 16.3459 10.3881C16.304 10.0398 16.1758 9.70569 15.9717 9.41286L15.8817 9.27154C15.7307 9.00975 15.6588 8.71379 15.6739 8.416C15.689 8.11822 15.7905 7.83008 15.9672 7.5831L16.0685 7.42584C16.2484 7.11858 16.349 6.77551 16.362 6.42457C16.375 6.07364 16.3 5.72477 16.1432 5.40639C15.9864 5.088 15.7522 4.80911 15.4597 4.59242C15.1672 4.37574 14.8246 4.2274 14.4599 4.15948L14.3092 4.12229C14.0182 4.0379 13.7559 3.88243 13.5489 3.67159C13.3419 3.46076 13.1975 3.20203 13.1303 2.92158C13.0547 2.6271 12.9016 2.35539 12.6853 2.13159C12.4691 1.90779 12.1965 1.73911 11.893 1.64117H11.8907ZM13.9008 9.56162C14.0835 9.56152 14.2594 9.62668 14.3932 9.74403C14.5271 9.86137 14.609 10.0222 14.6226 10.1943C14.6361 10.3663 14.5802 10.5368 14.4662 10.6715C14.3521 10.8063 14.1883 10.8953 14.0077 10.9207L13.9008 10.9281C13.2799 10.9281 12.7681 11.3723 12.7029 11.9418L12.695 12.0661C12.6988 12.158 12.683 12.2497 12.6484 12.3357C12.6138 12.4217 12.5612 12.5002 12.4937 12.5666C12.4262 12.6329 12.3452 12.6856 12.2556 12.7217C12.166 12.7577 12.0696 12.7763 11.9723 12.7763C11.8749 12.7763 11.7785 12.7577 11.6889 12.7217C11.5993 12.6856 11.5183 12.6329 11.4508 12.5666C11.3833 12.5002 11.3307 12.4217 11.2961 12.3357C11.2615 12.2497 11.2457 12.158 11.2495 12.0661C11.2495 11.7372 11.3181 11.4115 11.4513 11.1077C11.5846 10.8038 11.7799 10.5277 12.0261 10.2952C12.2723 10.0626 12.5646 9.87813 12.8862 9.75227C13.2079 9.6264 13.5527 9.56162 13.9008 9.56162ZM4.09875 9.56162C4.80193 9.56162 5.4763 9.82549 5.97351 10.2952C6.47073 10.7649 6.75006 11.4019 6.75006 12.0661C6.74839 12.2375 6.67862 12.4019 6.55459 12.527C6.43056 12.652 6.26132 12.7285 6.08042 12.7412C5.89953 12.7539 5.72019 12.7019 5.57795 12.5956C5.43571 12.4892 5.34096 12.3363 5.31249 12.1671L5.30461 12.0661C5.30461 11.4796 4.83442 10.9961 4.23036 10.9345L4.09875 10.9281C3.90693 10.9281 3.72295 10.8561 3.58731 10.728C3.45167 10.5998 3.37547 10.4261 3.37547 10.2449C3.37547 10.0637 3.45167 9.88987 3.58731 9.76174C3.72295 9.63361 3.90693 9.56162 4.09875 9.56162ZM6.02678 4.24874C6.4261 4.24874 6.75006 4.55476 6.75006 4.93197C6.75006 5.59621 6.47073 6.23324 5.97351 6.70292C5.4763 7.1726 4.80193 7.43647 4.09875 7.43647C3.91613 7.43657 3.74022 7.37141 3.60635 7.25406C3.47248 7.13672 3.39055 6.97588 3.37702 6.80384C3.3635 6.6318 3.41937 6.46129 3.53342 6.32655C3.64747 6.19181 3.81125 6.10282 3.99189 6.07743L4.09875 6.06999C4.71968 6.06999 5.2315 5.62584 5.29674 5.0563L5.30461 4.93197C5.30461 4.55476 5.62745 4.24874 6.02678 4.24874ZM11.9728 4.24874C12.335 4.24874 12.6365 4.50163 12.6871 4.83103L12.695 4.93197C12.695 5.51852 13.1652 6.00199 13.7704 6.06362L13.9008 6.06999C14.0927 6.06999 14.2766 6.14198 14.4123 6.27011C14.5479 6.39824 14.6241 6.57203 14.6241 6.75323C14.6241 6.93444 14.5479 7.10822 14.4123 7.23635C14.2766 7.36448 14.0927 7.43647 13.9008 7.43647C13.1977 7.43647 12.5233 7.1726 12.0261 6.70292C11.5289 6.23324 11.2495 5.59621 11.2495 4.93197C11.2495 4.55476 11.5735 4.24874 11.9728 4.24874Z" fill="white"/>
</svg>
