<svg width="22" height="22" viewBox="0 0 22 22" fill="none" xmlns="http://www.w3.org/2000/svg">
<path d="M17.875 4.12484C17.267 4.1267 16.6768 4.33019 16.1968 4.70342C15.7168 5.07665 15.3742 5.59854 15.2227 6.18734H12.3272C12.199 5.16649 11.7868 4.20212 11.1377 3.40389C10.4885 2.60566 9.62836 2.00562 8.65507 1.67202C7.68179 1.33841 6.63441 1.28462 5.63208 1.51678C4.62974 1.74893 3.71266 2.2577 2.98514 2.98523C2.25763 3.71276 1.74888 4.62985 1.51675 5.6322C1.28462 6.63454 1.33843 7.68191 1.67205 8.65519C2.00568 9.62847 2.60574 10.4886 3.40398 11.1377C4.20223 11.7869 5.16661 12.199 6.18747 12.3272V15.2225C5.53939 15.3899 4.97459 15.7878 4.59893 16.3418C4.22327 16.8958 4.06255 17.5677 4.14688 18.2317C4.23122 18.8957 4.55483 19.5062 5.05706 19.9486C5.55928 20.3911 6.20563 20.6352 6.87497 20.6352C7.5443 20.6352 8.19065 20.3911 8.69288 19.9486C9.1951 19.5062 9.51871 18.8957 9.60305 18.2317C9.68739 17.5677 9.52666 16.8958 9.151 16.3418C8.77535 15.7878 8.21054 15.3899 7.56247 15.2225V12.3272C8.53964 12.2043 9.46546 11.8197 10.2421 11.214L12.7647 13.7371C12.5123 14.1562 12.3776 14.6356 12.375 15.1248C12.375 15.6687 12.5363 16.2004 12.8384 16.6527C13.1406 17.1049 13.5701 17.4574 14.0726 17.6655C14.5751 17.8737 15.128 17.9281 15.6615 17.822C16.1949 17.7159 16.6849 17.454 17.0695 17.0694C17.4541 16.6848 17.716 16.1948 17.8221 15.6613C17.9282 15.1279 17.8738 14.575 17.6656 14.0725C17.4575 13.57 17.105 13.1405 16.6528 12.8383C16.2005 12.5361 15.6689 12.3748 15.125 12.3748C14.6356 12.3774 14.1561 12.512 13.7369 12.7646L11.2142 10.2419C11.8198 9.4653 12.2044 8.53949 12.3272 7.56234H15.2227C15.3521 8.0592 15.6182 8.50981 15.9909 8.863C16.3636 9.21619 16.8278 9.4578 17.3309 9.5604C17.8339 9.66299 18.3557 9.62246 18.8369 9.44341C19.3181 9.26435 19.7395 8.95395 20.0531 8.54745C20.3668 8.14095 20.5601 7.65464 20.6113 7.14376C20.6624 6.63288 20.5693 6.11789 20.3424 5.65729C20.1156 5.19668 19.7641 4.80892 19.3279 4.53803C18.8918 4.26715 18.3884 4.124 17.875 4.12484ZM8.24997 17.8748C8.24997 18.1468 8.16932 18.4126 8.01824 18.6388C7.86715 18.8649 7.6524 19.0411 7.40116 19.1452C7.14991 19.2493 6.87344 19.2765 6.60672 19.2234C6.33999 19.1704 6.09499 19.0394 5.90269 18.8471C5.7104 18.6548 5.57944 18.4098 5.52639 18.1431C5.47333 17.8764 5.50056 17.5999 5.60463 17.3487C5.7087 17.0974 5.88494 16.8827 6.11106 16.7316C6.33717 16.5805 6.60302 16.4998 6.87497 16.4998C7.23951 16.5003 7.589 16.6453 7.84678 16.903C8.10455 17.1608 8.24955 17.5103 8.24997 17.8748ZM6.87497 10.9998C6.05912 10.9998 5.26159 10.7579 4.58324 10.3047C3.90489 9.8514 3.37617 9.20716 3.06396 8.45341C2.75175 7.69967 2.67006 6.87027 2.82923 6.0701C2.98839 5.26993 3.38126 4.53492 3.95815 3.95803C4.53504 3.38114 5.27005 2.98827 6.07022 2.8291C6.87039 2.66994 7.69979 2.75163 8.45354 3.06384C9.20728 3.37605 9.85152 3.90476 10.3048 4.58312C10.758 5.26147 11 6.059 11 6.87484C10.9988 7.96849 10.5638 9.01701 9.79045 9.79033C9.01713 10.5637 7.96862 10.9986 6.87497 10.9998ZM16.5 15.1248C16.5 15.3968 16.4193 15.6626 16.2682 15.8888C16.1171 16.1149 15.9024 16.2911 15.6512 16.3952C15.3999 16.4993 15.1234 16.5265 14.8567 16.4734C14.59 16.4204 14.345 16.2894 14.1527 16.0971C13.9604 15.9048 13.8294 15.6598 13.7764 15.3931C13.7233 15.1264 13.7506 14.8499 13.8546 14.5987C13.9587 14.3474 14.1349 14.1327 14.3611 13.9816C14.5872 13.8305 14.853 13.7498 15.125 13.7498C15.4895 13.7503 15.839 13.8953 16.0968 14.153C16.3545 14.4108 16.4995 14.7603 16.5 15.1248ZM17.875 8.24984C17.603 8.24984 17.3372 8.1692 17.1111 8.01812C16.8849 7.86703 16.7087 7.65228 16.6046 7.40103C16.5006 7.14979 16.4733 6.87332 16.5264 6.6066C16.5794 6.33987 16.7104 6.09487 16.9027 5.90257C17.095 5.71028 17.34 5.57932 17.6067 5.52626C17.8734 5.47321 18.1499 5.50044 18.4012 5.60451C18.6524 5.70858 18.8671 5.88482 19.0182 6.11094C19.1693 6.33705 19.25 6.6029 19.25 6.87484C19.2495 7.23939 19.1045 7.58888 18.8468 7.84665C18.589 8.10443 18.2395 8.24943 17.875 8.24984Z" fill="white"/>
</svg>
