<svg width="18" height="19" viewBox="0 0 18 19" fill="none" xmlns="http://www.w3.org/2000/svg">
<path d="M12.75 6.5H14.25C15.0784 6.5 15.75 7.17157 15.75 8V12.5C15.75 13.3284 15.0784 14 14.25 14H12.75V17L9.75 14H6.75C6.33579 14 5.96079 13.8321 5.68934 13.5607M5.68934 13.5607L8.25 11H11.25C12.0784 11 12.75 10.3284 12.75 9.5V5C12.75 4.17157 12.0784 3.5 11.25 3.5H3.75C2.92157 3.5 2.25 4.17157 2.25 5V9.5C2.25 10.3284 2.92157 11 3.75 11H5.25V14L5.68934 13.5607Z" stroke="white" stroke-linecap="round" stroke-linejoin="round"/>
</svg>
