<svg width="24" height="24" viewBox="0 0 24 24" fill="none" xmlns="http://www.w3.org/2000/svg">
<g clip-path="url(#clip0_2436_7535)">
<path d="M15 19H5C2.8 19 1 17.2 1 15V5C1 2.8 2.8 1 5 1H15C17.2 1 19 2.8 19 5V15C19 17.2 17.2 19 15 19Z" stroke="#42425D" stroke-width="2" stroke-miterlimit="10" stroke-linecap="round" stroke-linejoin="round"/>
<path d="M19 5C21.2 5 23 6.8 23 9V19C23 21.2 21.2 23 19 23H9C6.8 23 5 21.2 5 19" stroke="#42425D" stroke-width="2" stroke-miterlimit="10" stroke-linecap="round" stroke-linejoin="round"/>
<path d="M10 13V7" stroke="#42425D" stroke-width="2" stroke-miterlimit="10" stroke-linecap="round" stroke-linejoin="round"/>
<path d="M7 10H13" stroke="#42425D" stroke-width="2" stroke-miterlimit="10" stroke-linecap="round" stroke-linejoin="round"/>
</g>
<defs>
<clipPath id="clip0_2436_7535">
<rect width="24" height="24" fill="white"/>
</clipPath>
</defs>
</svg>
