<svg width="23" height="22" viewBox="0 0 23 22" fill="none" xmlns="http://www.w3.org/2000/svg">
<path d="M17.9688 6.87461H17.9256C17.7427 5.36721 16.9871 3.97666 15.8024 2.96736C14.6177 1.95806 13.0865 1.40039 11.5 1.40039C9.91351 1.40039 8.38234 1.95806 7.19762 2.96736C6.0129 3.97666 5.25726 5.36721 5.07437 6.87461H5.03125C4.07813 6.87461 3.16404 7.23678 2.49009 7.88143C1.81613 8.52609 1.4375 9.40043 1.4375 10.3121C1.4375 11.2238 1.81613 12.0981 2.49009 12.7428C3.16404 13.3874 4.07813 13.7496 5.03125 13.7496H6.46875V7.56211C6.46875 6.28576 6.99883 5.06168 7.94237 4.15916C8.88591 3.25664 10.1656 2.74961 11.5 2.74961C12.8344 2.74961 14.1141 3.25664 15.0576 4.15916C16.0012 5.06168 16.5312 6.28576 16.5312 7.56211V14.4371C16.5308 15.067 16.3042 15.6777 15.8895 16.167C15.4748 16.6563 14.897 16.9945 14.2528 17.1252C14.0609 16.4816 13.6303 15.9269 13.0415 15.5653C12.4527 15.2036 11.7462 15.0598 11.0545 15.1607C10.3627 15.2617 9.73322 15.6004 9.28393 16.1136C8.83464 16.6267 8.59641 17.2789 8.6139 17.948C8.63139 18.6171 8.90339 19.2572 9.37892 19.7482C9.85446 20.2392 10.5009 20.5474 11.197 20.6152C11.8932 20.6829 12.5912 20.5055 13.1604 20.1161C13.7296 19.7268 14.1307 19.1523 14.2887 18.5002C15.3087 18.3556 16.2406 17.8662 16.9157 17.1208C17.5909 16.3754 17.9644 15.4233 17.9688 14.4371V13.7496C18.9219 13.7496 19.836 13.3874 20.5099 12.7428C21.1839 12.0981 21.5625 11.2238 21.5625 10.3121C21.5625 9.40043 21.1839 8.52609 20.5099 7.88143C19.836 7.23678 18.9219 6.87461 17.9688 6.87461ZM2.875 10.3121C2.875 9.7651 3.10218 9.2405 3.50655 8.8537C3.91093 8.46691 4.45938 8.24961 5.03125 8.24961V12.3746C4.45938 12.3746 3.91093 12.1573 3.50655 11.7705C3.10218 11.3837 2.875 10.8591 2.875 10.3121ZM11.5 19.2496C11.2157 19.2496 10.9378 19.169 10.7014 19.0179C10.465 18.8668 10.2807 18.6521 10.1719 18.4008C10.0631 18.1496 10.0347 17.8731 10.0901 17.6064C10.1456 17.3396 10.2825 17.0946 10.4835 16.9023C10.6846 16.71 10.9407 16.5791 11.2196 16.526C11.4984 16.473 11.7874 16.5002 12.0501 16.6043C12.3128 16.7083 12.5373 16.8846 12.6952 17.1107C12.8532 17.3368 12.9375 17.6027 12.9375 17.8746C12.9375 18.2393 12.786 18.589 12.5165 18.8469C12.2469 19.1047 11.8812 19.2496 11.5 19.2496ZM17.9688 12.3746V8.24961C18.5406 8.24961 19.0891 8.46691 19.4935 8.8537C19.8978 9.2405 20.125 9.7651 20.125 10.3121C20.125 10.8591 19.8978 11.3837 19.4935 11.7705C19.0891 12.1573 18.5406 12.3746 17.9688 12.3746Z" fill="white"/>
</svg>
