<svg width="21" height="21" viewBox="0 0 21 21" fill="none" xmlns="http://www.w3.org/2000/svg">
<path d="M2.625 10.5L4.375 8.75M4.375 8.75L10.5 2.625L16.625 8.75M4.375 8.75V17.5C4.375 17.9832 4.76675 18.375 5.25 18.375H7.875M16.625 8.75L18.375 10.5M16.625 8.75V17.5C16.625 17.9832 16.2332 18.375 15.75 18.375H13.125M7.875 18.375C8.35825 18.375 8.75 17.9832 8.75 17.5V14C8.75 13.5168 9.14175 13.125 9.625 13.125H11.375C11.8582 13.125 12.25 13.5168 12.25 14V17.5C12.25 17.9832 12.6418 18.375 13.125 18.375M7.875 18.375H13.125" stroke="white" stroke-width="1.5" stroke-linecap="round" stroke-linejoin="round"/>
</svg>
