<svg width="20" height="19" viewBox="0 0 20 19" fill="none" xmlns="http://www.w3.org/2000/svg">
<path fill-rule="evenodd" clip-rule="evenodd" d="M8.75 17.8125H16.25C16.5814 17.8121 16.8991 17.6869 17.1335 17.4643C17.3678 17.2417 17.4996 16.9398 17.5 16.625V2.375C17.4996 2.06017 17.3678 1.75833 17.1335 1.53571C16.8991 1.31309 16.5814 1.18786 16.25 1.1875H8.75C8.4186 1.18786 8.10087 1.31309 7.86654 1.53571C7.6322 1.75833 7.50038 2.06017 7.5 2.375V4.15625H8.75V2.375H16.25V16.625H8.75V14.8438H7.5V16.625C7.50038 16.9398 7.6322 17.2417 7.86654 17.4643C8.10087 17.6869 8.4186 17.8121 8.75 17.8125ZM4.8925 10.0938L7.13375 12.2229L6.25 13.0625L2.5 9.5L6.25 5.9375L7.13375 6.77706L4.8925 8.90625H13.75V10.0938H4.8925Z" fill="white"/>
</svg>
