<svg width="14" height="15" viewBox="0 0 14 15" fill="none" xmlns="http://www.w3.org/2000/svg">
<path d="M8.75 3.125V4.375M8.75 6.875V8.125M8.75 10.625V11.875M2.91667 3.125C2.27233 3.125 1.75 3.68464 1.75 4.375V6.25C2.39433 6.25 2.91667 6.80964 2.91667 7.5C2.91667 8.19036 2.39433 8.75 1.75 8.75V10.625C1.75 11.3154 2.27233 11.875 2.91667 11.875H11.0833C11.7277 11.875 12.25 11.3154 12.25 10.625V8.75C11.6057 8.75 11.0833 8.19036 11.0833 7.5C11.0833 6.80964 11.6057 6.25 12.25 6.25V4.375C12.25 3.68464 11.7277 3.125 11.0833 3.125H2.91667Z" stroke="white" stroke-linecap="round" stroke-linejoin="round"/>
</svg>
