<svg width="49" height="49" viewBox="0 0 49 49" fill="none" xmlns="http://www.w3.org/2000/svg">
<circle cx="24.5" cy="24.5" r="24.5" fill="#0DBC33"/>
<path d="M28.5833 21.4167H35.9277C38.2198 21.4167 39.7106 23.8288 38.6855 25.8789L33.2897 36.6706C32.7674 37.7152 31.6998 38.375 30.5319 38.375H24.3379C24.0858 38.375 23.8347 38.3441 23.5901 38.2829L17.7917 36.8333M28.5833 21.4167V13.7083C28.5833 12.0055 27.2029 10.625 25.5 10.625H25.3528C24.5827 10.625 23.9583 11.2493 23.9583 12.0195C23.9583 13.1207 23.6324 14.1973 23.0215 15.1135L17.7917 22.9583V36.8333M28.5833 21.4167H25.5M17.7917 36.8333H14.7083C13.0055 36.8333 11.625 35.4529 11.625 33.75V24.5C11.625 22.7971 13.0055 21.4167 14.7083 21.4167H18.5625" stroke="white" stroke-width="2" stroke-linecap="round" stroke-linejoin="round"/>
</svg>
