<svg width="49" height="49" viewBox="0 0 49 49" fill="none" xmlns="http://www.w3.org/2000/svg">
<circle cx="24.5" cy="24.5" r="24.5" fill="#D20404"/>
<path d="M20.5866 29.4167H13.6392C11.471 29.4167 10.0608 27.1349 11.0304 25.1956L16.1346 14.9873C16.6287 13.9992 17.6386 13.375 18.7433 13.375H24.6025C24.841 13.375 25.0786 13.4042 25.3099 13.4621L30.7949 14.8333M20.5866 29.4167V36.7083C20.5866 38.3192 21.8924 39.625 23.5032 39.625H23.6425C24.371 39.625 24.9616 39.0344 24.9616 38.3059C24.9616 37.2642 25.2699 36.2458 25.8478 35.3791L30.7949 27.9583V14.8333M20.5866 29.4167H23.5032M30.7949 14.8333H33.7116C35.3224 14.8333 36.6282 16.1392 36.6282 17.75V26.5C36.6282 28.1108 35.3224 29.4167 33.7116 29.4167H30.0657" stroke="white" stroke-width="2" stroke-linecap="round" stroke-linejoin="round"/>
</svg>
