<svg width="26" height="26" viewBox="0 0 26 26" fill="none" xmlns="http://www.w3.org/2000/svg">
<path fill-rule="evenodd" clip-rule="evenodd" d="M24.137 11.137C23.9847 11.2894 23.778 11.375 23.5625 11.375C23.1315 11.375 22.7182 11.5462 22.4135 11.851C22.1087 12.1557 21.9375 12.569 21.9375 13C21.9375 13.431 22.1087 13.8443 22.4135 14.149C22.7182 14.4538 23.1315 14.625 23.5625 14.625C23.778 14.625 23.9847 14.7106 24.137 14.863C24.2894 15.0153 24.375 15.222 24.375 15.4375V19.5C24.375 19.931 24.2038 20.3443 23.899 20.649C23.5943 20.9538 23.181 21.125 22.75 21.125H3.25C2.81902 21.125 2.4057 20.9538 2.10095 20.649C1.7962 20.3443 1.625 19.931 1.625 19.5V15.4375C1.625 15.222 1.7106 15.0153 1.86298 14.863C2.01535 14.7106 2.22201 14.625 2.4375 14.625C2.86848 14.625 3.2818 14.4538 3.58655 14.149C3.8913 13.8443 4.0625 13.431 4.0625 13C4.0625 12.569 3.8913 12.1557 3.58655 11.851C3.2818 11.5462 2.86848 11.375 2.4375 11.375C2.22201 11.375 2.01535 11.2894 1.86298 11.137C1.7106 10.9847 1.625 10.778 1.625 10.5625V6.5C1.625 6.06902 1.7962 5.6557 2.10095 5.35095C2.4057 5.0462 2.81902 4.875 3.25 4.875H22.75C23.181 4.875 23.5943 5.0462 23.899 5.35095C24.2038 5.6557 24.375 6.06902 24.375 6.5V10.5625C24.375 10.778 24.2894 10.9847 24.137 11.137ZM22.75 19.5V16.1444C22.0545 15.9626 21.4389 15.5554 20.9995 14.9864C20.5602 14.4174 20.3218 13.7189 20.3218 13C20.3218 12.2811 20.5602 11.5826 20.9995 11.0136C21.4389 10.4446 22.0545 10.0374 22.75 9.85563V6.5H17.0625V8.9375H15.4375V6.5H3.25V9.85563C3.9455 10.0374 4.5611 10.4446 5.00047 11.0136C5.43984 11.5826 5.67817 12.2811 5.67817 13C5.67817 13.7189 5.43984 14.4174 5.00047 14.9864C4.5611 15.5554 3.9455 15.9626 3.25 16.1444V19.5H15.4375V17.0625H17.0625V19.5H22.75ZM15.4375 10.5625H17.0625V15.4375H15.4375V10.5625Z" fill="white"/>
</svg>
