<svg width="27" height="27" viewBox="0 0 27 27" fill="none" xmlns="http://www.w3.org/2000/svg">
<path fill-rule="evenodd" clip-rule="evenodd" d="M25.0654 11.5654C24.9071 11.7236 24.6925 11.8125 24.4688 11.8125C24.0212 11.8125 23.592 11.9903 23.2755 12.3068C22.959 12.6232 22.7812 13.0524 22.7812 13.5C22.7812 13.9476 22.959 14.3768 23.2755 14.6932C23.592 15.0097 24.0212 15.1875 24.4688 15.1875C24.6925 15.1875 24.9071 15.2764 25.0654 15.4346C25.2236 15.5929 25.3125 15.8075 25.3125 16.0312V20.25C25.3125 20.6976 25.1347 21.1268 24.8182 21.4432C24.5018 21.7597 24.0726 21.9375 23.625 21.9375H3.375C2.92745 21.9375 2.49822 21.7597 2.18176 21.4432C1.86529 21.1268 1.6875 20.6976 1.6875 20.25V16.0312C1.6875 15.8075 1.77639 15.5929 1.93463 15.4346C2.09286 15.2764 2.30747 15.1875 2.53125 15.1875C2.9788 15.1875 3.40803 15.0097 3.72449 14.6932C4.04096 14.3768 4.21875 13.9476 4.21875 13.5C4.21875 13.0524 4.04096 12.6232 3.72449 12.3068C3.40803 11.9903 2.9788 11.8125 2.53125 11.8125C2.30747 11.8125 2.09286 11.7236 1.93463 11.5654C1.77639 11.4071 1.6875 11.1925 1.6875 10.9688V6.75C1.6875 6.30245 1.86529 5.87322 2.18176 5.55676C2.49822 5.24029 2.92745 5.0625 3.375 5.0625H23.625C24.0726 5.0625 24.5018 5.24029 24.8182 5.55676C25.1347 5.87322 25.3125 6.30245 25.3125 6.75V10.9688C25.3125 11.1925 25.2236 11.4071 25.0654 11.5654ZM23.625 20.25V16.7653C22.9028 16.5765 22.2635 16.1536 21.8072 15.5628C21.3509 14.972 21.1034 14.2465 21.1034 13.5C21.1034 12.7535 21.3509 12.028 21.8072 11.4372C22.2635 10.8464 22.9028 10.4235 23.625 10.2347V6.75H17.7188V9.28125H16.0312V6.75H3.375V10.2347C4.09725 10.4235 4.73653 10.8464 5.19279 11.4372C5.64906 12.028 5.89656 12.7535 5.89656 13.5C5.89656 14.2465 5.64906 14.972 5.19279 15.5628C4.73653 16.1536 4.09725 16.5765 3.375 16.7653V20.25H16.0312V17.7188H17.7188V20.25H23.625ZM16.0312 10.9688H17.7188V16.0312H16.0312V10.9688Z" fill="#42425D"/>
</svg>
