<svg width="22" height="21" viewBox="0 0 22 21" fill="none" xmlns="http://www.w3.org/2000/svg">
<g clip-path="url(#clip0_323_820)">
<path d="M11.4294 19.2834C16.2817 19.2834 20.2152 15.4406 20.2152 10.7003C20.2152 5.95998 16.2817 2.11719 11.4294 2.11719C6.57711 2.11719 2.64355 5.95998 2.64355 10.7003C2.64355 15.4406 6.57711 19.2834 11.4294 19.2834Z" stroke="white" stroke-width="2" stroke-linecap="round" stroke-linejoin="round"/>
</g>
<path d="M11.6644 12.5508C11.4469 12.6909 11.2201 12.7505 10.9746 12.6491V16.0622H11.6644V12.5508Z" fill="white"/>
<path d="M11.6588 13.6905C11.6588 13.6905 11.5812 13.5832 12.2057 13.0556C12.8303 12.528 13.2342 12.3223 13.3554 12.0838C13.4766 11.8454 13.6226 11.6129 13.7562 11.4906C13.7562 11.4906 13.7625 10.6202 13.9706 9.94953C14.1788 9.27585 14.328 8.9718 14.3218 8.57236C14.3155 8.22658 13.7625 7.08789 13.7625 7.08789L13.2218 7.68705C13.2218 7.68705 13.6941 8.4114 13.6661 8.70948C13.6661 8.70948 13.6257 9.18046 13.3399 9.82135C13.0975 10.3609 13.0726 11.0852 13.0726 11.2999C13.0726 11.3535 13.054 11.4072 13.0229 11.4519C12.9732 11.5234 12.8707 11.6337 12.6687 11.7828C12.2989 12.057 11.6651 12.5548 11.6651 12.5548V13.6905H11.6588Z" fill="white"/>
<path d="M13.7612 11.4906H15.1253C15.1253 11.4906 15.5044 11.5145 15.9518 11.0703V11.7589C15.9518 12.051 15.7032 12.2895 15.3987 12.2895H13.1895C13.1895 12.2895 13.3324 12.1911 13.4039 12.0063C13.4722 11.8215 13.6804 11.5681 13.7612 11.4906Z" fill="white"/>
<path d="M10.9739 12.6485C10.9739 12.6485 9.7683 11.7035 9.69683 11.4025C9.61604 11.0716 9.60361 10.3472 9.39853 9.8375C9.19346 9.32777 8.99459 8.95516 9.01013 8.57957C9.02566 8.20697 9.24317 7.81945 9.24317 7.81945L8.75223 7.30078C8.75223 7.30078 8.398 8.22187 8.38557 8.57063C8.37314 8.91939 8.73048 9.88818 8.77087 10.0342C8.81126 10.1803 9.06295 10.9673 8.99148 11.4859L9.56011 12.3653C9.56011 12.3653 10.6694 13.2655 10.9739 13.7633V12.6485Z" fill="white"/>
<path d="M6.84668 11.1016V11.7067C6.84668 12.0167 7.1108 12.2701 7.43395 12.2701H9.24858C9.24858 12.2701 9.44434 12.2641 9.56552 12.3625L8.9969 11.4831H7.68564C7.68564 11.4831 7.24752 11.5159 6.84668 11.1016Z" fill="white"/>
<path d="M7.45028 12.9485C7.53609 12.9485 7.60565 12.8817 7.60565 12.7994C7.60565 12.7171 7.53609 12.6504 7.45028 12.6504C7.36448 12.6504 7.29492 12.7171 7.29492 12.7994C7.29492 12.8817 7.36448 12.9485 7.45028 12.9485Z" fill="white"/>
<path d="M7.76376 11.2532C7.84957 11.2532 7.91912 11.1864 7.91912 11.1041C7.91912 11.0218 7.84957 10.9551 7.76376 10.9551C7.67796 10.9551 7.6084 11.0218 7.6084 11.1041C7.6084 11.1864 7.67796 11.2532 7.76376 11.2532Z" fill="white"/>
<path d="M6.80575 12.8679C6.94819 12.8679 7.06366 12.7571 7.06366 12.6205C7.06366 12.4838 6.94819 12.373 6.80575 12.373C6.66332 12.373 6.54785 12.4838 6.54785 12.6205C6.54785 12.7571 6.66332 12.8679 6.80575 12.8679Z" fill="white"/>
<path d="M6.358 12.0925C6.50043 12.0925 6.6159 11.9817 6.6159 11.8451C6.6159 11.7084 6.50043 11.5977 6.358 11.5977C6.21556 11.5977 6.1001 11.7084 6.1001 11.8451C6.1001 11.9817 6.21556 12.0925 6.358 12.0925Z" fill="white"/>
<path d="M5.66513 11.6726C5.80756 11.6726 5.92303 11.5618 5.92303 11.4251C5.92303 11.2885 5.80756 11.1777 5.66513 11.1777C5.52269 11.1777 5.40723 11.2885 5.40723 11.4251C5.40723 11.5618 5.52269 11.6726 5.66513 11.6726Z" fill="white"/>
<path d="M7.16415 10.8171C7.30659 10.8171 7.42205 10.7063 7.42205 10.5697C7.42205 10.433 7.30659 10.3223 7.16415 10.3223C7.02172 10.3223 6.90625 10.433 6.90625 10.5697C6.90625 10.7063 7.02172 10.8171 7.16415 10.8171Z" fill="white"/>
<path d="M6.41389 10.2826C6.60094 10.2826 6.75258 10.1372 6.75258 9.95773C6.75258 9.77828 6.60094 9.63281 6.41389 9.63281C6.22683 9.63281 6.0752 9.77828 6.0752 9.95773C6.0752 10.1372 6.22683 10.2826 6.41389 10.2826Z" fill="white"/>
<path d="M8.5831 11.2526C8.72553 11.2526 8.841 11.1419 8.841 11.0052C8.841 10.8686 8.72553 10.7578 8.5831 10.7578C8.44066 10.7578 8.3252 10.8686 8.3252 11.0052C8.3252 11.1419 8.44066 11.2526 8.5831 11.2526Z" fill="white"/>
<path d="M7.96986 10.4963C8.13632 10.4963 8.27126 10.3668 8.27126 10.2071C8.27126 10.0474 8.13632 9.91797 7.96986 9.91797C7.8034 9.91797 7.66846 10.0474 7.66846 10.2071C7.66846 10.3668 7.8034 10.4963 7.96986 10.4963Z" fill="white"/>
<path d="M4.73353 10.2482C4.89999 10.2482 5.03494 10.1188 5.03494 9.95907C5.03494 9.79938 4.89999 9.66992 4.73353 9.66992C4.56707 9.66992 4.43213 9.79938 4.43213 9.95907C4.43213 10.1188 4.56707 10.2482 4.73353 10.2482Z" fill="white"/>
<path d="M6.75502 9.12516C6.92148 9.12516 7.05642 8.99571 7.05642 8.83602C7.05642 8.67633 6.92148 8.54688 6.75502 8.54688C6.58856 8.54688 6.45361 8.67633 6.45361 8.83602C6.45361 8.99571 6.58856 9.12516 6.75502 9.12516Z" fill="white"/>
<path d="M8.02455 9.61149C8.19101 9.61149 8.32595 9.48204 8.32595 9.32235C8.32595 9.16266 8.19101 9.0332 8.02455 9.0332C7.85809 9.0332 7.72314 9.16266 7.72314 9.32235C7.72314 9.48204 7.85809 9.61149 8.02455 9.61149Z" fill="white"/>
<path d="M7.28343 9.82357C7.40355 9.82357 7.50093 9.73015 7.50093 9.61491C7.50093 9.49967 7.40355 9.40625 7.28343 9.40625C7.1633 9.40625 7.06592 9.49967 7.06592 9.61491C7.06592 9.73015 7.1633 9.82357 7.28343 9.82357Z" fill="white"/>
<path d="M6.09313 7.75583C6.19095 7.75583 6.27024 7.67976 6.27024 7.58593C6.27024 7.49209 6.19095 7.41602 6.09313 7.41602C5.99531 7.41602 5.91602 7.49209 5.91602 7.58593C5.91602 7.67976 5.99531 7.75583 6.09313 7.75583Z" fill="white"/>
<path d="M6.09921 8.69404C6.24165 8.69404 6.35711 8.58327 6.35711 8.44663C6.35711 8.30999 6.24165 8.19922 6.09921 8.19922C5.95677 8.19922 5.84131 8.30999 5.84131 8.44663C5.84131 8.58327 5.95677 8.69404 6.09921 8.69404Z" fill="white"/>
<path d="M7.0206 8.27022C7.16303 8.27022 7.2785 8.15944 7.2785 8.0228C7.2785 7.88616 7.16303 7.77539 7.0206 7.77539C6.87816 7.77539 6.7627 7.88616 6.7627 8.0228C6.7627 8.15944 6.87816 8.27022 7.0206 8.27022Z" fill="white"/>
<path d="M9.84313 7.68725C10.0353 7.68725 10.1911 7.53777 10.1911 7.35339C10.1911 7.169 10.0353 7.01953 9.84313 7.01953C9.65093 7.01953 9.49512 7.169 9.49512 7.35339C9.49512 7.53777 9.65093 7.68725 9.84313 7.68725Z" fill="white"/>
<path d="M9.84313 6.64623C10.0353 6.64623 10.1911 6.49676 10.1911 6.31237C10.1911 6.12799 10.0353 5.97852 9.84313 5.97852C9.65093 5.97852 9.49512 6.12799 9.49512 6.31237C9.49512 6.49676 9.65093 6.64623 9.84313 6.64623Z" fill="white"/>
<path d="M9.52353 8.70103C9.68484 8.70103 9.81561 8.57558 9.81561 8.42083C9.81561 8.26608 9.68484 8.14062 9.52353 8.14062C9.36222 8.14062 9.23145 8.26608 9.23145 8.42083C9.23145 8.57558 9.36222 8.70103 9.52353 8.70103Z" fill="white"/>
<path d="M7.3928 9.03646C7.51293 9.03646 7.61031 8.94304 7.61031 8.8278C7.61031 8.71256 7.51293 8.61914 7.3928 8.61914C7.27267 8.61914 7.17529 8.71256 7.17529 8.8278C7.17529 8.94304 7.27267 9.03646 7.3928 9.03646Z" fill="white"/>
<path d="M10.28 8.65087C10.419 8.65087 10.5317 8.54277 10.5317 8.40942C10.5317 8.27607 10.419 8.16797 10.28 8.16797C10.141 8.16797 10.0283 8.27607 10.0283 8.40942C10.0283 8.54277 10.141 8.65087 10.28 8.65087Z" fill="white"/>
<path d="M10.7478 7.9938C10.8731 7.9938 10.9747 7.89638 10.9747 7.7762C10.9747 7.65602 10.8731 7.55859 10.7478 7.55859C10.6226 7.55859 10.521 7.65602 10.521 7.7762C10.521 7.89638 10.6226 7.9938 10.7478 7.9938Z" fill="white"/>
<path d="M10.2432 10.7032C10.3427 10.7032 10.4234 10.6258 10.4234 10.5303C10.4234 10.4348 10.3427 10.3574 10.2432 10.3574C10.1437 10.3574 10.063 10.4348 10.063 10.5303C10.063 10.6258 10.1437 10.7032 10.2432 10.7032Z" fill="white"/>
<path d="M10.348 10.1498C10.5025 10.1498 10.6277 10.0297 10.6277 9.88156C10.6277 9.73339 10.5025 9.61328 10.348 9.61328C10.1936 9.61328 10.0684 9.73339 10.0684 9.88156C10.0684 10.0297 10.1936 10.1498 10.348 10.1498Z" fill="white"/>
<path d="M11.1097 11.2729C11.2642 11.2729 11.3894 11.1528 11.3894 11.0046C11.3894 10.8564 11.2642 10.7363 11.1097 10.7363C10.9553 10.7363 10.8301 10.8564 10.8301 11.0046C10.8301 11.1528 10.9553 11.2729 11.1097 11.2729Z" fill="white"/>
<path d="M11.7967 11.2729C11.9512 11.2729 12.0764 11.1528 12.0764 11.0046C12.0764 10.8564 11.9512 10.7363 11.7967 10.7363C11.6423 10.7363 11.5171 10.8564 11.5171 11.0046C11.5171 11.1528 11.6423 11.2729 11.7967 11.2729Z" fill="white"/>
<path d="M11.8206 9.86858C12.0077 9.86858 12.1593 9.72311 12.1593 9.54367C12.1593 9.36422 12.0077 9.21875 11.8206 9.21875C11.6336 9.21875 11.4819 9.36422 11.4819 9.54367C11.4819 9.72311 11.6336 9.86858 11.8206 9.86858Z" fill="white"/>
<path d="M13.1472 8.88719C13.3188 8.88719 13.4579 8.75373 13.4579 8.5891C13.4579 8.42447 13.3188 8.29102 13.1472 8.29102C12.9755 8.29102 12.8364 8.42447 12.8364 8.5891C12.8364 8.75373 12.9755 8.88719 13.1472 8.88719Z" fill="white"/>
<path d="M14.7155 9.62938C14.8871 9.62938 15.0262 9.49592 15.0262 9.33129C15.0262 9.16666 14.8871 9.0332 14.7155 9.0332C14.5439 9.0332 14.4048 9.16666 14.4048 9.33129C14.4048 9.49592 14.5439 9.62938 14.7155 9.62938Z" fill="white"/>
<path d="M15.5143 9.67842C15.6567 9.67842 15.7722 9.56765 15.7722 9.43101C15.7722 9.29436 15.6567 9.18359 15.5143 9.18359C15.3718 9.18359 15.2563 9.29436 15.2563 9.43101C15.2563 9.56765 15.3718 9.67842 15.5143 9.67842Z" fill="white"/>
<path d="M16.3941 10.1475C16.5743 10.1475 16.7204 10.0073 16.7204 9.83448C16.7204 9.66162 16.5743 9.52148 16.3941 9.52148C16.2139 9.52148 16.0679 9.66162 16.0679 9.83448C16.0679 10.0073 16.2139 10.1475 16.3941 10.1475Z" fill="white"/>
<path d="M18.1065 10.2783C18.2867 10.2783 18.4328 10.1382 18.4328 9.96534C18.4328 9.79247 18.2867 9.65234 18.1065 9.65234C17.9263 9.65234 17.7803 9.79247 17.7803 9.96534C17.7803 10.1382 17.9263 10.2783 18.1065 10.2783Z" fill="white"/>
<path d="M14.9449 10.6221C15.1251 10.6221 15.2712 10.4819 15.2712 10.3091C15.2712 10.1362 15.1251 9.99609 14.9449 9.99609C14.7647 9.99609 14.6187 10.1362 14.6187 10.3091C14.6187 10.4819 14.7647 10.6221 14.9449 10.6221Z" fill="white"/>
<path d="M12.5442 8.19023C12.7209 8.19023 12.8642 8.05277 12.8642 7.8832C12.8642 7.71363 12.7209 7.57617 12.5442 7.57617C12.3674 7.57617 12.2241 7.71363 12.2241 7.8832C12.2241 8.05277 12.3674 8.19023 12.5442 8.19023Z" fill="white"/>
<path d="M12.8402 7.20287C13.0324 7.20287 13.1882 7.0534 13.1882 6.86901C13.1882 6.68463 13.0324 6.53516 12.8402 6.53516C12.648 6.53516 12.4922 6.68463 12.4922 6.86901C12.4922 7.0534 12.648 7.20287 12.8402 7.20287Z" fill="white"/>
<path d="M12.0796 6.34773C12.2117 6.34773 12.3188 6.24496 12.3188 6.1182C12.3188 5.99143 12.2117 5.88867 12.0796 5.88867C11.9475 5.88867 11.8403 5.99143 11.8403 6.1182C11.8403 6.24496 11.9475 6.34773 12.0796 6.34773Z" fill="white"/>
<path d="M12.8716 6.3614C13.0037 6.3614 13.1108 6.25863 13.1108 6.13187C13.1108 6.00511 13.0037 5.90234 12.8716 5.90234C12.7394 5.90234 12.6323 6.00511 12.6323 6.13187C12.6323 6.25863 12.7394 6.3614 12.8716 6.3614Z" fill="white"/>
<path d="M13.5981 6.78718C13.7303 6.78718 13.8374 6.68442 13.8374 6.55765C13.8374 6.43089 13.7303 6.32812 13.5981 6.32812C13.466 6.32812 13.3589 6.43089 13.3589 6.55765C13.3589 6.68442 13.466 6.78718 13.5981 6.78718Z" fill="white"/>
<path d="M14.4351 7.41023C14.5672 7.41023 14.6743 7.30746 14.6743 7.1807C14.6743 7.05393 14.5672 6.95117 14.4351 6.95117C14.3029 6.95117 14.1958 7.05393 14.1958 7.1807C14.1958 7.30746 14.3029 7.41023 14.4351 7.41023Z" fill="white"/>
<path d="M16.1085 9.21215C16.1943 9.21215 16.2639 9.14542 16.2639 9.06311C16.2639 8.98079 16.1943 8.91406 16.1085 8.91406C16.0227 8.91406 15.9531 8.98079 15.9531 9.06311C15.9531 9.14542 16.0227 9.21215 16.1085 9.21215Z" fill="white"/>
<path d="M17.3143 9.88864C17.4447 9.88864 17.5504 9.78721 17.5504 9.66209C17.5504 9.53698 17.4447 9.43555 17.3143 9.43555C17.1839 9.43555 17.0781 9.53698 17.0781 9.66209C17.0781 9.78721 17.1839 9.88864 17.3143 9.88864Z" fill="white"/>
<path d="M15.9554 10.7773C16.0858 10.7773 16.1915 10.6759 16.1915 10.5508C16.1915 10.4256 16.0858 10.3242 15.9554 10.3242C15.825 10.3242 15.7192 10.4256 15.7192 10.5508C15.7192 10.6759 15.825 10.7773 15.9554 10.7773Z" fill="white"/>
<path d="M14.3274 11.2527C14.4716 11.2527 14.5884 11.1406 14.5884 11.0023C14.5884 10.8641 14.4716 10.752 14.3274 10.752C14.1833 10.752 14.0664 10.8641 14.0664 11.0023C14.0664 11.1406 14.1833 11.2527 14.3274 11.2527Z" fill="white"/>
<path d="M16.5174 11.2801C16.6615 11.2801 16.7784 11.168 16.7784 11.0297C16.7784 10.8914 16.6615 10.7793 16.5174 10.7793C16.3732 10.7793 16.2563 10.8914 16.2563 11.0297C16.2563 11.168 16.3732 11.2801 16.5174 11.2801Z" fill="white"/>
<path d="M16.5174 12.0789C16.6615 12.0789 16.7784 11.9668 16.7784 11.8285C16.7784 11.6902 16.6615 11.5781 16.5174 11.5781C16.3732 11.5781 16.2563 11.6902 16.2563 11.8285C16.2563 11.9668 16.3732 12.0789 16.5174 12.0789Z" fill="white"/>
<path d="M15.9802 12.8621C16.1244 12.8621 16.2413 12.75 16.2413 12.6117C16.2413 12.4734 16.1244 12.3613 15.9802 12.3613C15.8361 12.3613 15.7192 12.4734 15.7192 12.6117C15.7192 12.75 15.8361 12.8621 15.9802 12.8621Z" fill="white"/>
<path d="M17.2872 11.4976C17.4108 11.4976 17.5109 11.4015 17.5109 11.283C17.5109 11.1644 17.4108 11.0684 17.2872 11.0684C17.1636 11.0684 17.0635 11.1644 17.0635 11.283C17.0635 11.4015 17.1636 11.4976 17.2872 11.4976Z" fill="white"/>
<path d="M14.9661 12.9157C15.0588 12.9157 15.1339 12.8436 15.1339 12.7547C15.1339 12.6658 15.0588 12.5938 14.9661 12.5938C14.8735 12.5938 14.7983 12.6658 14.7983 12.7547C14.7983 12.8436 14.8735 12.9157 14.9661 12.9157Z" fill="white"/>
<path d="M15.0239 11.2517C15.1183 11.2517 15.1948 11.1783 15.1948 11.0878C15.1948 10.9972 15.1183 10.9238 15.0239 10.9238C14.9295 10.9238 14.853 10.9972 14.853 11.0878C14.853 11.1783 14.9295 11.2517 15.0239 11.2517Z" fill="white"/>
<path d="M16.6655 7.78718C16.7977 7.78718 16.9048 7.68442 16.9048 7.55765C16.9048 7.43089 16.7977 7.32812 16.6655 7.32812C16.5334 7.32812 16.4263 7.43089 16.4263 7.55765C16.4263 7.68442 16.5334 7.78718 16.6655 7.78718Z" fill="white"/>
<path d="M16.7264 9.47015C16.8809 9.47015 17.0061 9.35004 17.0061 9.20187C17.0061 9.05371 16.8809 8.93359 16.7264 8.93359C16.572 8.93359 16.4468 9.05371 16.4468 9.20187C16.4468 9.35004 16.572 9.47015 16.7264 9.47015Z" fill="white"/>
<path d="M16.018 8.69424C16.1965 8.69424 16.3411 8.55544 16.3411 8.38423C16.3411 8.21302 16.1965 8.07422 16.018 8.07422C15.8395 8.07422 15.6948 8.21302 15.6948 8.38423C15.6948 8.55544 15.8395 8.69424 16.018 8.69424Z" fill="white"/>
<path d="M13.5512 5.8979C13.6405 5.8979 13.7128 5.8285 13.7128 5.7429C13.7128 5.65729 13.6405 5.58789 13.5512 5.58789C13.462 5.58789 13.3896 5.65729 13.3896 5.7429C13.3896 5.8285 13.462 5.8979 13.5512 5.8979Z" fill="white"/>
<path d="M12.6652 10.6193C12.7991 10.6193 12.9076 10.5152 12.9076 10.3868C12.9076 10.2584 12.7991 10.1543 12.6652 10.1543C12.5314 10.1543 12.4229 10.2584 12.4229 10.3868C12.4229 10.5152 12.5314 10.6193 12.6652 10.6193Z" fill="white"/>
<path d="M10.913 9.35275C11.0967 9.35275 11.2455 9.20995 11.2455 9.0338C11.2455 8.85764 11.0967 8.71484 10.913 8.71484C10.7294 8.71484 10.5806 8.85764 10.5806 9.0338C10.5806 9.20995 10.7294 9.35275 10.913 9.35275Z" fill="white"/>
<path d="M11.5156 8.44455C11.6992 8.44455 11.8481 8.30175 11.8481 8.12559C11.8481 7.94944 11.6992 7.80664 11.5156 7.80664C11.332 7.80664 11.1831 7.94944 11.1831 8.12559C11.1831 8.30175 11.332 8.44455 11.5156 8.44455Z" fill="white"/>
<path d="M14.6147 8.1998C14.7554 8.1998 14.8695 8.09036 14.8695 7.95537C14.8695 7.82037 14.7554 7.71094 14.6147 7.71094C14.4739 7.71094 14.3599 7.82037 14.3599 7.95537C14.3599 8.09036 14.4739 8.1998 14.6147 8.1998Z" fill="white"/>
<path d="M15.1327 8.87558C15.2734 8.87558 15.3875 8.76615 15.3875 8.63115C15.3875 8.49615 15.2734 8.38672 15.1327 8.38672C14.992 8.38672 14.8779 8.49615 14.8779 8.63115C14.8779 8.76615 14.992 8.87558 15.1327 8.87558Z" fill="white"/>
<path d="M16.7078 8.62271C16.8331 8.62271 16.9346 8.52528 16.9346 8.4051C16.9346 8.28492 16.8331 8.1875 16.7078 8.1875C16.5825 8.1875 16.481 8.28492 16.481 8.4051C16.481 8.52528 16.5825 8.62271 16.7078 8.62271Z" fill="white"/>
<path d="M8.94522 6.34013C9.04819 6.34013 9.13166 6.26005 9.13166 6.16127C9.13166 6.0625 9.04819 5.98242 8.94522 5.98242C8.84226 5.98242 8.75879 6.0625 8.75879 6.16127C8.75879 6.26005 8.84226 6.34013 8.94522 6.34013Z" fill="white"/>
<path d="M6.358 11.2878C6.50043 11.2878 6.6159 11.177 6.6159 11.0404C6.6159 10.9037 6.50043 10.793 6.358 10.793C6.21556 10.793 6.1001 10.9037 6.1001 11.0404C6.1001 11.177 6.21556 11.2878 6.358 11.2878Z" fill="white"/>
<path d="M5.37704 9.92061C5.51948 9.92061 5.63494 9.80984 5.63494 9.67319C5.63494 9.53655 5.51948 9.42578 5.37704 9.42578C5.23461 9.42578 5.11914 9.53655 5.11914 9.67319C5.11914 9.80984 5.23461 9.92061 5.37704 9.92061Z" fill="white"/>
<path d="M5.13916 10.9278C5.2713 10.9278 5.37842 10.825 5.37842 10.6983C5.37842 10.5715 5.2713 10.4688 5.13916 10.4688C5.00702 10.4688 4.8999 10.5715 4.8999 10.6983C4.8999 10.825 5.00702 10.9278 5.13916 10.9278Z" fill="white"/>
<path d="M8.12646 7.81257C8.2586 7.81257 8.36572 7.70981 8.36572 7.58304C8.36572 7.45628 8.2586 7.35352 8.12646 7.35352C7.99433 7.35352 7.88721 7.45628 7.88721 7.58304C7.88721 7.70981 7.99433 7.81257 8.12646 7.81257Z" fill="white"/>
<path d="M9.82422 9.42585C9.95636 9.42585 10.0635 9.32309 10.0635 9.19632C10.0635 9.06956 9.95636 8.9668 9.82422 8.9668C9.69208 8.9668 9.58496 9.06956 9.58496 9.19632C9.58496 9.32309 9.69208 9.42585 9.82422 9.42585Z" fill="white"/>
<path d="M11.9058 10.6173C12.0379 10.6173 12.145 10.5145 12.145 10.3877C12.145 10.261 12.0379 10.1582 11.9058 10.1582C11.7736 10.1582 11.6665 10.261 11.6665 10.3877C11.6665 10.5145 11.7736 10.6173 11.9058 10.6173Z" fill="white"/>
<path d="M11.2193 10.0157C11.3188 10.0157 11.3995 9.9383 11.3995 9.84281C11.3995 9.74733 11.3188 9.66992 11.2193 9.66992C11.1198 9.66992 11.0391 9.74733 11.0391 9.84281C11.0391 9.9383 11.1198 10.0157 11.2193 10.0157Z" fill="white"/>
<path d="M10.7073 7.33508C10.8566 7.33508 10.9777 7.21897 10.9777 7.07574C10.9777 6.93251 10.8566 6.81641 10.7073 6.81641C10.558 6.81641 10.437 6.93251 10.437 7.07574C10.437 7.21897 10.558 7.33508 10.7073 7.33508Z" fill="white"/>
<path d="M11.3441 5.18664C11.4934 5.18664 11.6144 5.07053 11.6144 4.9273C11.6144 4.78408 11.4934 4.66797 11.3441 4.66797C11.1948 4.66797 11.0737 4.78408 11.0737 4.9273C11.0737 5.07053 11.1948 5.18664 11.3441 5.18664Z" fill="white"/>
<path d="M10.7082 6.37157C10.8472 6.37157 10.9599 6.26347 10.9599 6.13012C10.9599 5.99677 10.8472 5.88867 10.7082 5.88867C10.5692 5.88867 10.4565 5.99677 10.4565 6.13012C10.4565 6.26347 10.5692 6.37157 10.7082 6.37157Z" fill="white"/>
<path d="M11.8977 7.47509C12.0367 7.47509 12.1494 7.36699 12.1494 7.23364C12.1494 7.10029 12.0367 6.99219 11.8977 6.99219C11.7587 6.99219 11.646 7.10029 11.646 7.23364C11.646 7.36699 11.7587 7.47509 11.8977 7.47509Z" fill="white"/>
<path d="M12.427 8.89471C12.5282 8.89471 12.6103 8.81597 12.6103 8.71884C12.6103 8.62171 12.5282 8.54297 12.427 8.54297C12.3257 8.54297 12.2437 8.62171 12.2437 8.71884C12.2437 8.81597 12.3257 8.89471 12.427 8.89471Z" fill="white"/>
<path d="M12.8404 9.83549C12.9965 9.83549 13.1231 9.71404 13.1231 9.56423C13.1231 9.41442 12.9965 9.29297 12.8404 9.29297C12.6842 9.29297 12.5576 9.41442 12.5576 9.56423C12.5576 9.71404 12.6842 9.83549 12.8404 9.83549Z" fill="white"/>
<path d="M15.3906 8.07234C15.5228 8.07234 15.6299 7.96957 15.6299 7.84281C15.6299 7.71604 15.5228 7.61328 15.3906 7.61328C15.2585 7.61328 15.1514 7.71604 15.1514 7.84281C15.1514 7.96957 15.2585 8.07234 15.3906 8.07234Z" fill="white"/>
<path d="M11.3529 6.03768C11.5262 6.03768 11.6667 5.90289 11.6667 5.73661C11.6667 5.57034 11.5262 5.43555 11.3529 5.43555C11.1796 5.43555 11.0391 5.57034 11.0391 5.73661C11.0391 5.90289 11.1796 6.03768 11.3529 6.03768Z" fill="white"/>
<path d="M11.3436 6.85183C11.5117 6.85183 11.6481 6.72104 11.6481 6.5597C11.6481 6.39837 11.5117 6.26758 11.3436 6.26758C11.1754 6.26758 11.0391 6.39837 11.0391 6.5597C11.0391 6.72104 11.1754 6.85183 11.3436 6.85183Z" fill="white"/>
<path d="M9.04736 7.21882C9.1795 7.21882 9.28662 7.11606 9.28662 6.98929C9.28662 6.86253 9.1795 6.75977 9.04736 6.75977C8.91522 6.75977 8.80811 6.86253 8.80811 6.98929C8.80811 7.11606 8.91522 7.21882 9.04736 7.21882Z" fill="white"/>
<path d="M6.0245 9.45576C6.16694 9.45576 6.28241 9.34499 6.28241 9.20835C6.28241 9.07171 6.16694 8.96094 6.0245 8.96094C5.88207 8.96094 5.7666 9.07171 5.7666 9.20835C5.7666 9.34499 5.88207 9.45576 6.0245 9.45576Z" fill="white"/>
<path d="M7.95126 8.62178C8.0937 8.62178 8.20916 8.51101 8.20916 8.37437C8.20916 8.23772 8.0937 8.12695 7.95126 8.12695C7.80883 8.12695 7.69336 8.23772 7.69336 8.37437C7.69336 8.51101 7.80883 8.62178 7.95126 8.62178Z" fill="white"/>
<defs>
<clipPath id="clip0_323_820">
<rect width="21.086" height="20.5995" fill="white" transform="translate(0.88623 0.400391)"/>
</clipPath>
</defs>
</svg>
