<svg width="22" height="20" viewBox="0 0 22 20" fill="none" xmlns="http://www.w3.org/2000/svg">
<path fill-rule="evenodd" clip-rule="evenodd" d="M14.9509 8.27688L16.2503 7.19844C16.4466 7.03594 16.5769 6.81406 16.619 6.5708C16.661 6.32754 16.6122 6.07803 16.4809 5.865L15.1534 3.6975C15.056 3.53515 14.9144 3.40031 14.7434 3.30692C14.5723 3.21353 14.3779 3.16497 14.1803 3.16625C14.0581 3.16572 13.9366 3.18365 13.8203 3.21937L12.4534 3.655C12.2174 3.50697 11.9712 3.37387 11.7166 3.25656L11.4297 1.91781C11.3789 1.67688 11.2413 1.46 11.0403 1.30406C10.8393 1.14813 10.5873 1.06277 10.3272 1.0625H7.6722C7.41208 1.06277 7.16009 1.14813 6.95909 1.30406C6.75809 1.46 6.6205 1.67688 6.5697 1.91781L6.28282 3.25656C6.02633 3.37384 5.7783 3.50694 5.54032 3.655L4.17907 3.21937C4.06284 3.18365 3.94131 3.16572 3.81907 3.16625C3.62148 3.16497 3.42711 3.21353 3.25604 3.30692C3.08496 3.40031 2.94339 3.53515 2.84595 3.6975L1.51845 5.865C1.38715 6.07803 1.33837 6.32754 1.38044 6.5708C1.42251 6.81406 1.55283 7.03594 1.74907 7.19844L2.8347 8.09625C2.82345 8.22906 2.8122 8.36188 2.8122 8.5C2.8122 8.63812 2.81782 8.77094 2.82907 8.90906L1.74907 9.80156C1.55283 9.96406 1.42251 10.1859 1.38044 10.4292C1.33837 10.6725 1.38715 10.922 1.51845 11.135L2.84595 13.3025C2.94339 13.4649 3.08496 13.5997 3.25604 13.6931C3.42711 13.7865 3.62148 13.835 3.81907 13.8338C3.94131 13.8343 4.06284 13.8163 4.17907 13.7806L5.54595 13.345C5.78199 13.493 6.02816 13.6261 6.28282 13.7434L6.5697 15.0822C6.6205 15.3231 6.75809 15.54 6.95909 15.6959C7.16009 15.8519 7.41208 15.9372 7.6722 15.9375H8.4372V14.875H7.6722L7.27282 12.9891C6.72073 12.7933 6.20734 12.5113 5.75407 12.155L3.81907 12.7713L2.49157 10.6037L4.02157 9.32875C3.9175 8.77884 3.9175 8.21585 4.02157 7.66594L2.49157 6.39625L3.81907 4.22875L5.74845 4.845C6.20011 4.4837 6.71629 4.20127 7.27282 4.01094L7.6722 2.125H10.3272L10.7266 4.01094C11.2787 4.20674 11.7921 4.48868 12.2453 4.845L14.1803 4.22875L15.5078 6.39625L14.1522 7.5225L14.9509 8.27688ZM7.37316 9.95599C7.66213 10.244 8.03081 10.4496 8.43733 10.5496V11.6398C7.80272 11.5385 7.21201 11.2679 6.73486 10.86C6.25771 10.4521 5.91401 9.92378 5.74429 9.33744C5.57457 8.7511 5.5859 8.13116 5.77695 7.5507C5.968 6.97025 6.33081 6.45349 6.82258 6.06135C7.31436 5.66922 7.9146 5.41807 8.55253 5.33751C9.19047 5.25695 9.83949 5.35034 10.4231 5.60667C11.0067 5.86301 11.5005 6.27159 11.8463 6.78425C12.1921 7.29691 12.3755 7.89226 12.3748 8.50012H11.2498C11.2505 8.10337 11.1334 7.71439 10.9118 7.37736C10.6901 7.04032 10.3729 6.76874 9.99601 6.59344C9.61915 6.41815 9.1978 6.34618 8.77981 6.38569C8.36181 6.42521 7.96392 6.57464 7.63133 6.817C7.29874 7.05936 7.04478 7.38495 6.89828 7.75679C6.75178 8.12863 6.71862 8.53182 6.80256 8.92056C6.8865 9.30931 7.08418 9.66803 7.37316 9.95599Z" fill="white"/>
<path fill-rule="evenodd" clip-rule="evenodd" d="M7.25478 19.0023C7.32965 19.0418 7.4141 19.0625 7.5 19.0625H20.5C20.5859 19.0625 20.6704 19.0418 20.7452 19.0023C20.8201 18.9628 20.8828 18.9059 20.9274 18.837C20.972 18.7682 20.9969 18.6897 20.9997 18.6092C21.0026 18.5287 20.9832 18.4489 20.9436 18.3775L14.4436 6.65873C14.4014 6.58262 14.3377 6.51883 14.2595 6.47431C14.1813 6.42979 14.0915 6.40625 14 6.40625C13.9085 6.40625 13.8187 6.42979 13.7405 6.47431C13.6623 6.51883 13.5986 6.58262 13.5564 6.65873L7.0564 18.3775C7.01677 18.4489 6.99744 18.5287 7.00027 18.6092C7.00311 18.6897 7.02802 18.7682 7.0726 18.837C7.11718 18.9059 7.17992 18.9628 7.25478 19.0023ZM19.6757 18.1235L19.6747 18.125H8.32535L8.32435 18.1235L13.999 7.89285H14.001L19.6757 18.1235ZM14.5 10.625H13.5V14.8438H14.5V10.625ZM14 15.7812C13.8517 15.7812 13.7067 15.8225 13.5833 15.8997C13.46 15.977 13.3639 16.0868 13.3071 16.2153C13.2503 16.3438 13.2355 16.4852 13.2644 16.6215C13.2934 16.7579 13.3648 16.8832 13.4697 16.9816C13.5746 17.0799 13.7082 17.1469 13.8537 17.174C13.9992 17.2011 14.15 17.1872 14.287 17.134C14.4241 17.0808 14.5412 16.9906 14.6236 16.875C14.706 16.7594 14.75 16.6234 14.75 16.4844C14.75 16.2979 14.671 16.1191 14.5303 15.9872C14.3897 15.8553 14.1989 15.7812 14 15.7812Z" fill="white"/>
</svg>
